<svg width="330" height="54" viewBox="0 0 330 54" fill="none" xmlns="http://www.w3.org/2000/svg">
<mask id="mask0_17_14637" style="mask-type:luminance" maskUnits="userSpaceOnUse" x="0" y="0" width="330" height="54">
<path d="M0.947937 0.932281H329.583V53.3333H0.947937V0.932281Z" fill="white"/>
</mask>
<g mask="url(#mask0_17_14637)">
<mask id="mask1_17_14637" style="mask-type:luminance" maskUnits="userSpaceOnUse" x="0" y="0" width="329" height="53">
<path d="M8.94794 0.932281H320.964C323.089 0.932281 325.12 1.77603 326.62 3.27603C328.12 4.77603 328.964 6.81249 328.964 8.93228V44.6198C328.964 46.7396 328.12 48.776 326.62 50.276C325.12 51.776 323.089 52.6198 320.964 52.6198H8.94794C6.82815 52.6198 4.79169 51.776 3.29169 50.276C1.79169 48.776 0.947937 46.7396 0.947937 44.6198V8.93228C0.947937 6.81249 1.79169 4.77603 3.29169 3.27603C4.79169 1.77603 6.82815 0.932281 8.94794 0.932281Z" fill="white"/>
</mask>
<g mask="url(#mask1_17_14637)">
<path d="M0.947937 0.932281H328.589V52.5625H0.947937V0.932281Z" fill="white"/>
</g>
</g>
<path d="M37.2466 31.9334L41.3299 20.7251H43.6424L47.7257 31.9334H45.5591L44.6632 29.3501H40.2882L39.3924 31.9334H37.2466ZM40.8507 27.7459H44.1007L42.4757 23.0792L40.8507 27.7459Z" fill="#6F3F2D"/>
<path d="M54.0667 32.1209C53.0094 32.1209 52.0875 31.8865 51.2959 31.4126C50.5146 30.9282 49.9053 30.2563 49.4625 29.3917C49.0303 28.5324 48.8167 27.5324 48.8167 26.3917C48.8167 25.2407 49.0355 24.2251 49.4834 23.3501C49.9417 22.4751 50.5875 21.7876 51.4209 21.2876C52.2542 20.7876 53.2438 20.5376 54.4 20.5376C55.7178 20.5376 56.8063 20.8605 57.6709 21.4959C58.5303 22.1209 59.0928 22.9907 59.3584 24.1001H57.0667C56.9 23.574 56.5875 23.1626 56.1292 22.8709C55.6813 22.5792 55.1084 22.4334 54.4 22.4334C53.2855 22.4334 52.4261 22.7876 51.8167 23.4959C51.2021 24.2042 50.9 25.1782 50.9 26.4126C50.9 27.6522 51.1969 28.6105 51.7959 29.2876C52.4053 29.9699 53.223 30.3084 54.2542 30.3084C55.2646 30.3084 56.0303 30.0376 56.5459 29.4959C57.0719 28.9438 57.3896 28.2147 57.5042 27.3084H54.6709V25.7667H59.5667V31.9334H57.6709L57.5042 30.4542C57.1396 30.9959 56.6917 31.4126 56.15 31.7042C55.6084 31.9803 54.9105 32.1209 54.0667 32.1209Z" fill="#6F3F2D"/>
<path d="M61.5389 31.9334V20.7251H68.8514V22.3917H63.6014V25.4542H68.3722V27.0584H63.6014V30.2876H68.8514V31.9334H61.5389Z" fill="#6F3F2D"/>
<path d="M70.7869 31.9334V20.7251H72.8494L78.0994 28.6209V20.7251H80.1619V31.9334H78.0994L72.8494 24.0584V31.9334H70.7869Z" fill="#6F3F2D"/>
<path d="M82.323 31.9334V20.7251H86.1563C87.4584 20.7251 88.5365 20.9647 89.3855 21.4334C90.2292 21.8917 90.8542 22.548 91.2605 23.3917C91.6772 24.2251 91.8855 25.2042 91.8855 26.3292C91.8855 27.4699 91.6772 28.4542 91.2605 29.2876C90.8542 30.1209 90.2292 30.7772 89.3855 31.2459C88.5365 31.7042 87.4584 31.9334 86.1563 31.9334H82.323ZM84.3855 30.1834H86.0522C86.9949 30.1834 87.7397 30.0324 88.2813 29.7251C88.823 29.423 89.2084 28.9855 89.448 28.4126C89.6824 27.8449 89.8022 27.1522 89.8022 26.3292C89.8022 25.5376 89.6824 24.8605 89.448 24.2876C89.2084 23.7042 88.823 23.2615 88.2813 22.9542C87.7397 22.6365 86.9949 22.4751 86.0522 22.4751H84.3855V30.1834Z" fill="#6F3F2D"/>
<path d="M93.699 31.9334V20.7251H101.011V22.3917H95.7615V25.4542H100.532V27.0584H95.7615V30.2876H101.011V31.9334H93.699Z" fill="#6F3F2D"/>
<path d="M110.588 32.1209C109.765 32.1209 109.036 31.9803 108.401 31.7042C107.776 31.4282 107.281 31.0272 106.922 30.4959C106.557 29.9542 106.37 29.3084 106.359 28.5584H108.526C108.536 29.0897 108.724 29.5324 109.088 29.8917C109.448 30.2407 109.943 30.4126 110.568 30.4126C111.109 30.4126 111.536 30.2824 111.859 30.0167C112.177 29.7563 112.338 29.4074 112.338 28.9751C112.338 28.5167 112.198 28.1626 111.922 27.9126C111.64 27.6522 111.265 27.4438 110.797 27.2876C110.323 27.1209 109.823 26.949 109.297 26.7667C108.422 26.4647 107.755 26.0792 107.297 25.6209C106.849 25.1521 106.63 24.5271 106.63 23.7459C106.614 23.0792 106.765 22.5115 107.088 22.0376C107.422 21.5688 107.87 21.199 108.443 20.9334C109.01 20.673 109.661 20.5376 110.401 20.5376C111.135 20.5376 111.786 20.6782 112.359 20.9542C112.927 21.2199 113.37 21.5949 113.693 22.0792C114.026 22.5532 114.203 23.1157 114.234 23.7667H112.047C112.031 23.3813 111.88 23.0324 111.588 22.7251C111.297 22.423 110.885 22.2667 110.359 22.2667C109.911 22.2563 109.536 22.3657 109.234 22.6001C108.927 22.824 108.776 23.1574 108.776 23.6001C108.776 23.9751 108.89 24.2771 109.13 24.4959C109.364 24.7042 109.682 24.8865 110.088 25.0376C110.489 25.1938 110.953 25.3501 111.484 25.5167C112.036 25.7147 112.547 25.9438 113.005 26.2042C113.463 26.4542 113.828 26.7876 114.109 27.2042C114.385 27.6209 114.526 28.1626 114.526 28.8292C114.526 29.4126 114.37 29.9542 114.068 30.4542C113.776 30.9542 113.328 31.3605 112.734 31.6626C112.151 31.9647 111.432 32.1209 110.588 32.1209Z" fill="#6F3F2D"/>
<path d="M120.64 32.1209C119.807 32.1209 119.057 31.9594 118.39 31.6417C117.734 31.3084 117.213 30.8188 116.828 30.1626C116.437 29.4959 116.245 28.6574 116.245 27.6417V20.7251H118.286V27.6626C118.286 28.5376 118.495 29.1938 118.911 29.6209C119.338 30.0376 119.932 30.2459 120.682 30.2459C121.416 30.2459 121.995 30.0376 122.411 29.6209C122.838 29.1938 123.057 28.5376 123.057 27.6626V20.7251H125.12V27.6417C125.12 28.6574 124.911 29.4959 124.495 30.1626C124.088 30.8188 123.547 31.3084 122.87 31.6417C122.203 31.9594 121.458 32.1209 120.64 32.1209Z" fill="#6F3F2D"/>
<path d="M126.495 31.9334L130.578 20.7251H132.891L136.974 31.9334H134.807L133.911 29.3501H129.536L128.641 31.9334H126.495ZM130.099 27.7459H133.349L131.724 23.0792L130.099 27.7459Z" fill="#6F3F2D"/>
<path d="M147.31 32.1209C146.17 32.1209 145.196 31.8813 144.394 31.3917C143.586 30.9074 142.961 30.2355 142.519 29.3709C142.086 28.4959 141.873 27.4907 141.873 26.3501C141.873 25.2147 142.086 24.2042 142.519 23.3292C142.961 22.4542 143.586 21.7771 144.394 21.2876C145.196 20.7876 146.17 20.5376 147.31 20.5376C148.644 20.5376 149.737 20.8709 150.602 21.5376C151.461 22.2042 151.998 23.1417 152.206 24.3501H149.956C149.816 23.7407 149.519 23.2615 149.06 22.9126C148.612 22.5688 148.019 22.3917 147.269 22.3917C146.237 22.3917 145.425 22.7459 144.831 23.4542C144.248 24.1626 143.956 25.1313 143.956 26.3501C143.956 27.574 144.248 28.5376 144.831 29.2459C145.425 29.9438 146.237 30.2876 147.269 30.2876C148.019 30.2876 148.612 30.1313 149.06 29.8084C149.519 29.4751 149.816 29.0272 149.956 28.4542H152.206C151.998 29.6105 151.461 30.5115 150.602 31.1626C149.737 31.8032 148.644 32.1209 147.31 32.1209Z" fill="#6F3F2D"/>
<path d="M159.269 32.1209C158.144 32.1209 157.165 31.8813 156.332 31.3917C155.498 30.9074 154.842 30.2251 154.373 29.3501C153.899 28.4751 153.665 27.4699 153.665 26.3292C153.665 25.1938 153.899 24.1938 154.373 23.3292C154.842 22.4542 155.498 21.7771 156.332 21.2876C157.165 20.7876 158.144 20.5376 159.269 20.5376C160.379 20.5376 161.352 20.7876 162.186 21.2876C163.03 21.7771 163.691 22.4542 164.165 23.3292C164.634 24.1938 164.873 25.1938 164.873 26.3292C164.873 27.4699 164.634 28.4751 164.165 29.3501C163.691 30.2251 163.03 30.9074 162.186 31.3917C161.352 31.8813 160.379 32.1209 159.269 32.1209ZM159.269 30.2876C160.337 30.2876 161.186 29.9438 161.811 29.2459C162.446 28.5376 162.769 27.5688 162.769 26.3292C162.769 25.1105 162.446 24.1521 161.811 23.4542C161.186 22.7459 160.337 22.3917 159.269 22.3917C158.196 22.3917 157.342 22.7459 156.707 23.4542C156.066 24.1521 155.748 25.1105 155.748 26.3292C155.748 27.5688 156.066 28.5376 156.707 29.2459C157.342 29.9438 158.196 30.2876 159.269 30.2876Z" fill="#6F3F2D"/>
<path d="M166.675 31.9334V20.7251H168.738L173.988 28.6209V20.7251H176.05V31.9334H173.988L168.738 24.0584V31.9334H166.675Z" fill="#6F3F2D"/>
<path d="M182.045 32.1209C181.222 32.1209 180.492 31.9803 179.857 31.7042C179.232 31.4282 178.737 31.0272 178.378 30.4959C178.013 29.9542 177.826 29.3084 177.815 28.5584H179.982C179.992 29.0897 180.18 29.5324 180.545 29.8917C180.904 30.2407 181.399 30.4126 182.024 30.4126C182.565 30.4126 182.992 30.2824 183.315 30.0167C183.633 29.7563 183.795 29.4074 183.795 28.9751C183.795 28.5167 183.654 28.1626 183.378 27.9126C183.097 27.6522 182.722 27.4438 182.253 27.2876C181.779 27.1209 181.279 26.949 180.753 26.7667C179.878 26.4647 179.211 26.0792 178.753 25.6209C178.305 25.1521 178.086 24.5271 178.086 23.7459C178.071 23.0792 178.222 22.5115 178.545 22.0376C178.878 21.5688 179.326 21.199 179.899 20.9334C180.466 20.673 181.117 20.5376 181.857 20.5376C182.591 20.5376 183.242 20.6782 183.815 20.9542C184.383 21.2199 184.826 21.5949 185.149 22.0792C185.482 22.5532 185.659 23.1157 185.69 23.7667H183.503C183.487 23.3813 183.336 23.0324 183.045 22.7251C182.753 22.423 182.341 22.2667 181.815 22.2667C181.367 22.2563 180.992 22.3657 180.69 22.6001C180.383 22.824 180.232 23.1574 180.232 23.6001C180.232 23.9751 180.347 24.2771 180.586 24.4959C180.821 24.7042 181.138 24.8865 181.545 25.0376C181.946 25.1938 182.409 25.3501 182.94 25.5167C183.492 25.7147 184.003 25.9438 184.461 26.2042C184.92 26.4542 185.284 26.7876 185.565 27.2042C185.841 27.6209 185.982 28.1626 185.982 28.8292C185.982 29.4126 185.826 29.9542 185.524 30.4542C185.232 30.9542 184.784 31.3605 184.19 31.6626C183.607 31.9647 182.888 32.1209 182.045 32.1209Z" fill="#6F3F2D"/>
<path d="M192.097 32.1209C191.263 32.1209 190.513 31.9594 189.847 31.6417C189.19 31.3084 188.669 30.8188 188.284 30.1626C187.893 29.4959 187.701 28.6574 187.701 27.6417V20.7251H189.742V27.6626C189.742 28.5376 189.951 29.1938 190.367 29.6209C190.794 30.0376 191.388 30.2459 192.138 30.2459C192.873 30.2459 193.451 30.0376 193.867 29.6209C194.294 29.1938 194.513 28.5376 194.513 27.6626V20.7251H196.576V27.6417C196.576 28.6574 196.367 29.4959 195.951 30.1626C195.544 30.8188 195.003 31.3084 194.326 31.6417C193.659 31.9594 192.914 32.1209 192.097 32.1209Z" fill="#6F3F2D"/>
<path d="M198.659 31.9334V20.7251H200.722V30.3292H205.68V31.9334H198.659Z" fill="#6F3F2D"/>
<path d="M210.079 31.9334V22.3917H206.829V20.7251H215.413V22.3917H212.142V31.9334H210.079Z" fill="#6F3F2D"/>
<path d="M216.223 31.9334L220.306 20.7251H222.619L226.702 31.9334H224.535L223.64 29.3501H219.265L218.369 31.9334H216.223ZM219.827 27.7459H223.077L221.452 23.0792L219.827 27.7459Z" fill="#6F3F2D"/>
<path d="M231.247 31.9334L235.33 20.7251H237.643L241.726 31.9334H239.559L238.664 29.3501H234.289L233.393 31.9334H231.247ZM234.851 27.7459H238.101L236.476 23.0792L234.851 27.7459Z" fill="#6F3F2D"/>
<path d="M248.067 32.1209C247.01 32.1209 246.088 31.8865 245.296 31.4126C244.515 30.9282 243.906 30.2563 243.463 29.3917C243.031 28.5324 242.817 27.5324 242.817 26.3917C242.817 25.2407 243.036 24.2251 243.484 23.3501C243.942 22.4751 244.588 21.7876 245.421 21.2876C246.255 20.7876 247.244 20.5376 248.4 20.5376C249.718 20.5376 250.807 20.8605 251.671 21.4959C252.531 22.1209 253.093 22.9907 253.359 24.1001H251.067C250.9 23.574 250.588 23.1626 250.13 22.8709C249.682 22.5792 249.109 22.4334 248.4 22.4334C247.286 22.4334 246.427 22.7876 245.817 23.4959C245.203 24.2042 244.9 25.1782 244.9 26.4126C244.9 27.6522 245.197 28.6105 245.796 29.2876C246.406 29.9699 247.223 30.3084 248.255 30.3084C249.265 30.3084 250.031 30.0376 250.546 29.4959C251.072 28.9438 251.39 28.2147 251.505 27.3084H248.671V25.7667H253.567V31.9334H251.671L251.505 30.4542C251.14 30.9959 250.692 31.4126 250.15 31.7042C249.609 31.9803 248.911 32.1209 248.067 32.1209Z" fill="#6F3F2D"/>
<path d="M260.789 32.1209C259.664 32.1209 258.685 31.8813 257.852 31.3917C257.018 30.9074 256.362 30.2251 255.893 29.3501C255.419 28.4751 255.185 27.4699 255.185 26.3292C255.185 25.1938 255.419 24.1938 255.893 23.3292C256.362 22.4542 257.018 21.7771 257.852 21.2876C258.685 20.7876 259.664 20.5376 260.789 20.5376C261.899 20.5376 262.873 20.7876 263.706 21.2876C264.55 21.7771 265.211 22.4542 265.685 23.3292C266.154 24.1938 266.393 25.1938 266.393 26.3292C266.393 27.4699 266.154 28.4751 265.685 29.3501C265.211 30.2251 264.55 30.9074 263.706 31.3917C262.873 31.8813 261.899 32.1209 260.789 32.1209ZM260.789 30.2876C261.857 30.2876 262.706 29.9438 263.331 29.2459C263.966 28.5376 264.289 27.5688 264.289 26.3292C264.289 25.1105 263.966 24.1521 263.331 23.4542C262.706 22.7459 261.857 22.3917 260.789 22.3917C259.716 22.3917 258.862 22.7459 258.227 23.4542C257.586 24.1521 257.268 25.1105 257.268 26.3292C257.268 27.5688 257.586 28.5376 258.227 29.2459C258.862 29.9438 259.716 30.2876 260.789 30.2876Z" fill="#6F3F2D"/>
<path d="M268.195 31.9334V20.7251H272.32C273.206 20.7251 273.945 20.8813 274.529 21.1834C275.112 21.4907 275.539 21.9074 275.82 22.4334C276.112 22.949 276.258 23.5167 276.258 24.1417C276.258 24.824 276.076 25.449 275.716 26.0167C275.367 26.5897 274.81 26.9959 274.049 27.2459L276.383 31.9334H274.029L271.945 27.5167H270.258V31.9334H268.195ZM270.258 26.0167H272.174C272.867 26.0167 273.372 25.8501 273.695 25.5167C274.013 25.1834 274.174 24.7459 274.174 24.2042C274.174 23.6782 274.013 23.2563 273.695 22.9334C273.372 22.6157 272.867 22.4542 272.174 22.4542H270.258V26.0167Z" fill="#6F3F2D"/>
<path d="M277.455 31.9334L281.538 20.7251H283.851L287.934 31.9334H285.768L284.872 29.3501H280.497L279.601 31.9334H277.455ZM281.059 27.7459H284.309L282.684 23.0792L281.059 27.7459Z" fill="#6F3F2D"/>
<path d="M289.775 28.3917L289.546 20.7251H291.734L291.504 28.3917H289.775ZM290.671 32.0376C290.296 32.0376 289.984 31.9282 289.734 31.7042C289.494 31.4699 289.379 31.1834 289.379 30.8501C289.379 30.5063 289.494 30.2147 289.734 29.9751C289.984 29.7407 290.296 29.6209 290.671 29.6209C291.046 29.6209 291.348 29.7407 291.588 29.9751C291.822 30.2147 291.942 30.5063 291.942 30.8501C291.942 31.1834 291.822 31.4699 291.588 31.7042C291.348 31.9282 291.046 32.0376 290.671 32.0376Z" fill="#6F3F2D"/>
</svg>
