<svg width="328" height="53" viewBox="0 0 328 53" fill="none" xmlns="http://www.w3.org/2000/svg">
<mask id="mask0_7_14617" style="mask-type:luminance" maskUnits="userSpaceOnUse" x="0" y="0" width="328" height="53">
<path d="M0.125 0.286621H327.729V52.6668H0.125V0.286621Z" fill="white"/>
</mask>
<g mask="url(#mask0_7_14617)">
<mask id="mask1_7_14617" style="mask-type:luminance" maskUnits="userSpaceOnUse" x="0" y="0" width="328" height="52">
<path d="M8.11458 0.286621H319.703C321.818 0.286621 323.854 1.12516 325.349 2.62516C326.849 4.12516 327.688 6.15641 327.688 8.2762V43.9116C327.688 46.0314 326.849 48.0627 325.349 49.5575C323.854 51.0575 321.818 51.9012 319.703 51.9012H8.11458C5.99479 51.9012 3.96354 51.0575 2.46354 49.5575C0.968751 48.0627 0.125 46.0314 0.125 43.9116V8.2762C0.125 6.15641 0.968751 4.12516 2.46354 2.62516C3.96354 1.12516 5.99479 0.286621 8.11458 0.286621Z" fill="white"/>
</mask>
<g mask="url(#mask1_7_14617)">
<path d="M0.125 0.286621H327.318V51.8439H0.125V0.286621Z" fill="#CB962E"/>
</g>
</g>
<path d="M31.0421 28.0767H26.3129L25.4379 30.2434H22.2087L27.1462 19.0559H30.2712L35.2296 30.2434H31.9379L31.0421 28.0767ZM30.1254 25.7434L28.6879 22.1601L27.2504 25.7434H30.1254Z" fill="white"/>
<path d="M43.6008 24.41H46.4133V29.035C45.7727 29.4933 45.0383 29.8475 44.205 30.0975C43.3717 30.3475 42.5383 30.4725 41.705 30.4725C40.5383 30.4725 39.481 30.2225 38.5383 29.7225C37.606 29.2225 36.8717 28.535 36.33 27.66C35.7987 26.7746 35.5383 25.7746 35.5383 24.66C35.5383 23.535 35.7987 22.535 36.33 21.66C36.8717 20.7746 37.6112 20.0767 38.5592 19.5767C39.5019 19.0767 40.5696 18.8267 41.7675 18.8267C42.8092 18.8267 43.7467 19.009 44.58 19.3683C45.4133 19.7173 46.106 20.2225 46.6633 20.8892L44.6425 22.7017C43.8925 21.8683 42.9862 21.4517 41.9342 21.4517C40.9758 21.4517 40.1946 21.7433 39.6008 22.3267C39.0175 22.91 38.7258 23.6912 38.7258 24.66C38.7258 25.2746 38.856 25.8215 39.1217 26.3058C39.3977 26.7954 39.7727 27.1756 40.2467 27.4517C40.731 27.7173 41.2779 27.8475 41.8925 27.8475C42.5019 27.8475 43.0696 27.7225 43.6008 27.4725V24.41Z" fill="white"/>
<path d="M57.404 27.8059V30.2434H48.4248V19.0559H57.1956V21.4934H51.5498V23.3892H56.529V25.7434H51.5498V27.8059H57.404Z" fill="white"/>
<path d="M69.8079 19.0559V30.2434H67.1829L62.2454 24.2851V30.2434H59.1621V19.0559H61.7663L66.7038 25.0142V19.0559H69.8079Z" fill="white"/>
<path d="M72.0404 19.0559H77.3321C78.5508 19.0559 79.6342 19.2851 80.5821 19.7434C81.5248 20.2017 82.2539 20.858 82.7696 21.7017C83.2956 22.5351 83.5612 23.5247 83.5612 24.6601C83.5612 25.7851 83.2956 26.7747 82.7696 27.6184C82.2539 28.4517 81.5248 29.0976 80.5821 29.5559C79.6342 30.0142 78.5508 30.2434 77.3321 30.2434H72.0404V19.0559ZM77.1862 27.7226C78.1446 27.7226 78.9154 27.4517 79.4987 26.9101C80.0821 26.3684 80.3737 25.6184 80.3737 24.6601C80.3737 23.7017 80.0821 22.9517 79.4987 22.4101C78.9154 21.858 78.1446 21.5767 77.1862 21.5767H75.2071V27.7226H77.1862Z" fill="white"/>
<path d="M94.2174 27.8059V30.2434H85.2383V19.0559H94.0091V21.4934H88.3633V23.3892H93.3424V25.7434H88.3633V27.8059H94.2174Z" fill="white"/>
<path d="M104.542 30.4725C103.636 30.4725 102.755 30.3579 101.896 30.1392C101.047 29.9204 100.36 29.6183 99.8335 29.2433L100.875 26.91C101.375 27.2329 101.948 27.4933 102.604 27.7017C103.271 27.91 103.922 28.0142 104.563 28.0142C105.781 28.0142 106.396 27.7121 106.396 27.0975C106.396 26.7798 106.219 26.5454 105.875 26.3892C105.526 26.2381 104.964 26.0715 104.188 25.8892C103.354 25.7121 102.651 25.5142 102.083 25.3058C101.526 25.0975 101.042 24.7642 100.625 24.3058C100.219 23.8475 100.021 23.2329 100.021 22.4517C100.021 21.7746 100.208 21.16 100.583 20.6183C100.958 20.0662 101.511 19.6287 102.25 19.3058C103 18.9881 103.906 18.8267 104.979 18.8267C105.714 18.8267 106.438 18.91 107.146 19.0767C107.865 19.2433 108.5 19.4881 109.042 19.8058L108.063 22.16C106.99 21.5767 105.958 21.285 104.958 21.285C104.333 21.285 103.875 21.384 103.583 21.5767C103.302 21.759 103.167 22.0037 103.167 22.3058C103.167 22.5975 103.333 22.8215 103.667 22.9725C104.011 23.1287 104.563 23.2798 105.313 23.4308C106.172 23.6131 106.88 23.8058 107.438 24.0142C107.99 24.2225 108.469 24.5558 108.875 25.0142C109.292 25.4621 109.5 26.0715 109.5 26.8475C109.5 27.5298 109.313 28.1392 108.938 28.6808C108.563 29.2225 108 29.66 107.25 29.9933C106.511 30.311 105.61 30.4725 104.542 30.4725Z" fill="white"/>
<path d="M116.109 30.4726C114.453 30.4726 113.161 30.0247 112.234 29.1184C111.317 28.2017 110.859 26.9205 110.859 25.2642V19.0559H114.026V25.1601C114.026 26.9517 114.734 27.8476 116.151 27.8476C117.552 27.8476 118.255 26.9517 118.255 25.1601V19.0559H121.38V25.2642C121.38 26.9205 120.911 28.2017 119.984 29.1184C119.067 30.0247 117.776 30.4726 116.109 30.4726Z" fill="white"/>
<path d="M131.001 28.0767H126.272L125.397 30.2434H122.168L127.105 19.0559H130.23L135.188 30.2434H131.897L131.001 28.0767ZM130.084 25.7434L128.647 22.1601L127.209 25.7434H130.084Z" fill="white"/>
<path d="M146.293 30.4725C145.126 30.4725 144.074 30.2225 143.147 29.7225C142.215 29.2225 141.48 28.535 140.939 27.66C140.407 26.7746 140.147 25.7746 140.147 24.66C140.147 23.535 140.407 22.535 140.939 21.66C141.48 20.7746 142.215 20.0767 143.147 19.5767C144.074 19.0767 145.126 18.8267 146.293 18.8267C147.319 18.8267 148.241 19.0142 149.064 19.3892C149.881 19.7537 150.564 20.2746 151.105 20.9517L149.105 22.7642C148.366 21.8892 147.485 21.4517 146.459 21.4517C145.845 21.4517 145.303 21.5923 144.834 21.8683C144.36 22.134 143.991 22.509 143.73 22.9933C143.465 23.4673 143.334 24.0246 143.334 24.66C143.334 25.285 143.465 25.8423 143.73 26.3267C143.991 26.8162 144.36 27.1912 144.834 27.4517C145.303 27.7173 145.845 27.8475 146.459 27.8475C147.485 27.8475 148.366 27.41 149.105 26.535L151.105 28.3475C150.564 29.0454 149.881 29.5715 149.064 29.9308C148.241 30.2902 147.319 30.4725 146.293 30.4725Z" fill="white"/>
<path d="M158.147 30.4725C156.965 30.4725 155.902 30.2225 154.96 29.7225C154.027 29.2225 153.293 28.5298 152.751 27.6392C152.21 26.7537 151.939 25.759 151.939 24.66C151.939 23.5506 152.21 22.5506 152.751 21.66C153.293 20.7746 154.027 20.0767 154.96 19.5767C155.902 19.0767 156.965 18.8267 158.147 18.8267C159.34 18.8267 160.402 19.0767 161.335 19.5767C162.277 20.0767 163.022 20.7746 163.564 21.66C164.105 22.5506 164.376 23.5506 164.376 24.66C164.376 25.759 164.105 26.7537 163.564 27.6392C163.022 28.5298 162.277 29.2225 161.335 29.7225C160.402 30.2225 159.34 30.4725 158.147 30.4725ZM158.147 27.8475C158.715 27.8475 159.23 27.7173 159.689 27.4517C160.147 27.1912 160.506 26.8162 160.772 26.3267C161.032 25.8423 161.168 25.285 161.168 24.66C161.168 24.0246 161.032 23.4673 160.772 22.9933C160.506 22.509 160.147 22.134 159.689 21.8683C159.23 21.5923 158.715 21.4517 158.147 21.4517C157.59 21.4517 157.085 21.5923 156.626 21.8683C156.168 22.134 155.798 22.509 155.522 22.9933C155.256 23.4673 155.126 24.0246 155.126 24.66C155.126 25.285 155.256 25.8423 155.522 26.3267C155.798 26.8162 156.168 27.1912 156.626 27.4517C157.085 27.7173 157.59 27.8475 158.147 27.8475Z" fill="white"/>
<path d="M176.685 19.0559V30.2434H174.06L169.123 24.2851V30.2434H166.039V19.0559H168.644L173.581 25.0142V19.0559H176.685Z" fill="white"/>
<path d="M182.834 30.4725C181.928 30.4725 181.048 30.3579 180.189 30.1392C179.34 29.9204 178.652 29.6183 178.126 29.2433L179.168 26.91C179.668 27.2329 180.241 27.4933 180.897 27.7017C181.564 27.91 182.215 28.0142 182.855 28.0142C184.074 28.0142 184.689 27.7121 184.689 27.0975C184.689 26.7798 184.512 26.5454 184.168 26.3892C183.819 26.2381 183.256 26.0715 182.48 25.8892C181.647 25.7121 180.944 25.5142 180.376 25.3058C179.819 25.0975 179.334 24.7642 178.918 24.3058C178.512 23.8475 178.314 23.2329 178.314 22.4517C178.314 21.7746 178.501 21.16 178.876 20.6183C179.251 20.0662 179.803 19.6287 180.543 19.3058C181.293 18.9881 182.199 18.8267 183.272 18.8267C184.006 18.8267 184.73 18.91 185.439 19.0767C186.157 19.2433 186.793 19.4881 187.334 19.8058L186.355 22.16C185.282 21.5767 184.251 21.285 183.251 21.285C182.626 21.285 182.168 21.384 181.876 21.5767C181.595 21.759 181.459 22.0037 181.459 22.3058C181.459 22.5975 181.626 22.8215 181.959 22.9725C182.303 23.1287 182.855 23.2798 183.605 23.4308C184.465 23.6131 185.173 23.8058 185.73 24.0142C186.282 24.2225 186.762 24.5558 187.168 25.0142C187.584 25.4621 187.793 26.0715 187.793 26.8475C187.793 27.5298 187.605 28.1392 187.23 28.6808C186.855 29.2225 186.293 29.66 185.543 29.9933C184.803 30.311 183.902 30.4725 182.834 30.4725Z" fill="white"/>
<path d="M194.401 30.4726C192.745 30.4726 191.453 30.0247 190.526 29.1184C189.61 28.2017 189.151 26.9205 189.151 25.2642V19.0559H192.318V25.1601C192.318 26.9517 193.026 27.8476 194.443 27.8476C195.844 27.8476 196.547 26.9517 196.547 25.1601V19.0559H199.672V25.2642C199.672 26.9205 199.203 28.2017 198.276 29.1184C197.36 30.0247 196.068 30.4726 194.401 30.4726Z" fill="white"/>
<path d="M201.814 19.0559H204.981V27.7434H210.314V30.2434H201.814V19.0559Z" fill="white"/>
<path d="M213.936 21.5767H210.499V19.0559H220.519V21.5767H217.103V30.2434H213.936V21.5767Z" fill="white"/>
<path d="M229.186 28.0767H224.457L223.582 30.2434H220.353L225.29 19.0559H228.415L233.374 30.2434H230.082L229.186 28.0767ZM228.27 25.7434L226.832 22.1601L225.395 25.7434H228.27Z" fill="white"/>
<path d="M246.395 28.0767H241.665L240.79 30.2434H237.561L242.499 19.0559H245.624L250.582 30.2434H247.29L246.395 28.0767ZM245.478 25.7434L244.04 22.1601L242.603 25.7434H245.478Z" fill="white"/>
<path d="M258.953 24.41H261.766V29.035C261.125 29.4933 260.391 29.8475 259.558 30.0975C258.724 30.3475 257.891 30.4725 257.058 30.4725C255.891 30.4725 254.834 30.2225 253.891 29.7225C252.959 29.2225 252.224 28.535 251.683 27.66C251.151 26.7746 250.891 25.7746 250.891 24.66C250.891 23.535 251.151 22.535 251.683 21.66C252.224 20.7746 252.964 20.0767 253.912 19.5767C254.854 19.0767 255.922 18.8267 257.12 18.8267C258.162 18.8267 259.099 19.009 259.933 19.3683C260.766 19.7173 261.459 20.2225 262.016 20.8892L259.995 22.7017C259.245 21.8683 258.339 21.4517 257.287 21.4517C256.328 21.4517 255.547 21.7433 254.953 22.3267C254.37 22.91 254.078 23.6912 254.078 24.66C254.078 25.2746 254.209 25.8215 254.474 26.3058C254.75 26.7954 255.125 27.1756 255.599 27.4517C256.084 27.7173 256.63 27.8475 257.245 27.8475C257.854 27.8475 258.422 27.7225 258.953 27.4725V24.41Z" fill="white"/>
<path d="M269.402 30.4725C268.22 30.4725 267.158 30.2225 266.215 29.7225C265.283 29.2225 264.548 28.5298 264.007 27.6392C263.465 26.7537 263.194 25.759 263.194 24.66C263.194 23.5506 263.465 22.5506 264.007 21.66C264.548 20.7746 265.283 20.0767 266.215 19.5767C267.158 19.0767 268.22 18.8267 269.402 18.8267C270.595 18.8267 271.658 19.0767 272.59 19.5767C273.533 20.0767 274.277 20.7746 274.819 21.66C275.361 22.5506 275.632 23.5506 275.632 24.66C275.632 25.759 275.361 26.7537 274.819 27.6392C274.277 28.5298 273.533 29.2225 272.59 29.7225C271.658 30.2225 270.595 30.4725 269.402 30.4725ZM269.402 27.8475C269.97 27.8475 270.486 27.7173 270.944 27.4517C271.402 27.1912 271.762 26.8162 272.027 26.3267C272.288 25.8423 272.423 25.285 272.423 24.66C272.423 24.0246 272.288 23.4673 272.027 22.9933C271.762 22.509 271.402 22.134 270.944 21.8683C270.486 21.5923 269.97 21.4517 269.402 21.4517C268.845 21.4517 268.34 21.5923 267.882 21.8683C267.423 22.134 267.053 22.509 266.777 22.9933C266.512 23.4673 266.382 24.0246 266.382 24.66C266.382 25.285 266.512 25.8423 266.777 26.3267C267.053 26.8162 267.423 27.1912 267.882 27.4517C268.34 27.7173 268.845 27.8475 269.402 27.8475Z" fill="white"/>
<path d="M282.17 27.2642H280.461V30.2434H277.295V19.0559H282.399C283.409 19.0559 284.284 19.2226 285.024 19.5559C285.774 19.8892 286.347 20.3684 286.753 20.9934C287.17 21.6184 287.378 22.358 287.378 23.2017C287.378 24.009 287.18 24.7174 286.795 25.3267C286.42 25.9257 285.883 26.3892 285.191 26.7226L287.586 30.2434H284.211L282.17 27.2642ZM284.17 23.2017C284.17 22.6757 284.003 22.2747 283.67 21.9934C283.347 21.7017 282.863 21.5559 282.211 21.5559H280.461V24.8267H282.211C282.863 24.8267 283.347 24.6913 283.67 24.4101C284.003 24.1184 284.17 23.7174 284.17 23.2017Z" fill="white"/>
<path d="M296.598 28.0767H291.869L290.994 30.2434H287.764L292.702 19.0559H295.827L300.785 30.2434H297.494L296.598 28.0767ZM295.681 25.7434L294.244 22.1601L292.806 25.7434H295.681Z" fill="white"/>
<path d="M301.157 19.0559H304.761L304.157 26.1601H301.761L301.157 19.0559ZM302.969 30.3892C302.427 30.3892 301.979 30.233 301.636 29.9101C301.302 29.5767 301.136 29.1757 301.136 28.7017C301.136 28.233 301.302 27.8424 301.636 27.5351C301.979 27.2174 302.427 27.0559 302.969 27.0559C303.495 27.0559 303.927 27.2174 304.261 27.5351C304.594 27.8424 304.761 28.233 304.761 28.7017C304.761 29.1757 304.584 29.5767 304.24 29.9101C303.907 30.233 303.479 30.3892 302.969 30.3892Z" fill="white"/>
</svg>
