<svg width="305" height="48" viewBox="0 0 305 48" fill="none" xmlns="http://www.w3.org/2000/svg">
<mask id="mask0_21_4" style="mask-type:luminance" maskUnits="userSpaceOnUse" x="0" y="0" width="305" height="48">
<path d="M0.223938 0.729004H304.422V47.3228H0.223938V0.729004Z" fill="white"/>
</mask>
<g mask="url(#mask0_21_4)">
<mask id="mask1_21_4" style="mask-type:luminance" maskUnits="userSpaceOnUse" x="0" y="0" width="305" height="47">
<path d="M23.2969 0.729004H281.271C287.391 0.729004 293.255 3.15609 297.583 7.48421C301.906 11.8123 304.339 17.6769 304.339 23.7967C304.339 29.9165 301.906 35.7811 297.583 40.1092C293.255 44.4373 287.391 46.8644 281.271 46.8644H23.2969C10.5573 46.8644 0.223938 36.5363 0.223938 23.7967C0.223938 11.0571 10.5573 0.729004 23.2969 0.729004Z" fill="white"/>
</mask>
<g mask="url(#mask1_21_4)">
<path d="M0.223938 0.729004H304.422V46.4425H0.223938V0.729004Z" fill="white"/>
</g>
</g>
<mask id="mask2_21_4" style="mask-type:luminance" maskUnits="userSpaceOnUse" x="218" y="0" width="87" height="48">
<path d="M218.042 0.729004H305V47.3228H218.042V0.729004Z" fill="white"/>
</mask>
<g mask="url(#mask2_21_4)">
<mask id="mask3_21_4" style="mask-type:luminance" maskUnits="userSpaceOnUse" x="218" y="0" width="87" height="47">
<path d="M241.115 0.729004H281.271C294.01 0.729004 304.339 11.0571 304.339 23.7967C304.339 36.5363 294.01 46.8644 281.271 46.8644H241.115C228.37 46.8644 218.042 36.5363 218.042 23.7967C218.042 11.0571 228.37 0.729004 241.115 0.729004Z" fill="white"/>
</mask>
<g mask="url(#mask3_21_4)">
<path d="M218.042 0.729004H304.203V46.4425H218.042V0.729004Z" fill="#900182"/>
</g>
</g>
<path d="M46.2693 16.2871V29.7871H44.4777V19.7246L39.9985 29.7871H38.7485L34.2277 19.7038V29.7871H32.4568V16.2871H34.3735L39.3735 27.4538L44.3735 16.2871H46.2693Z" fill="#900182"/>
<path d="M51.0305 17.6204V22.1829H55.9888V23.6413H51.0305V28.3288H56.593V29.7871H49.2597V16.1621H56.593V17.6204H51.0305Z" fill="#900182"/>
<path d="M68.7943 29.9331C67.9036 29.9331 67.0964 29.7769 66.3776 29.4539C65.6693 29.1362 65.112 28.6935 64.7109 28.1206C64.3047 27.5529 64.0964 26.9019 64.0859 26.1623H65.9818C66.0495 26.8029 66.3151 27.3394 66.7734 27.7664C67.2422 28.1987 67.9193 28.4123 68.7943 28.4123C69.638 28.4123 70.3047 28.2039 70.7943 27.7873C71.2786 27.3706 71.5234 26.8289 71.5234 26.1623C71.5234 25.6362 71.3776 25.2144 71.0859 24.8914C70.8047 24.5581 70.4505 24.3081 70.0234 24.1414C69.5911 23.9748 69.013 23.7977 68.2943 23.5998C67.388 23.3654 66.6693 23.131 66.1276 22.8914C65.5859 22.6571 65.1172 22.2873 64.7318 21.7873C64.3568 21.2873 64.1693 20.6154 64.1693 19.7664C64.1693 19.0321 64.3568 18.381 64.7318 17.8081C65.1172 17.2248 65.6536 16.7821 66.3359 16.4748C67.013 16.1571 67.7995 15.9956 68.6901 15.9956C69.9505 15.9956 70.9922 16.3185 71.8151 16.9539C72.6328 17.5946 73.0911 18.4435 73.1901 19.4956H71.2318C71.1745 18.9852 70.9036 18.5321 70.4193 18.1414C69.9297 17.7404 69.2943 17.5373 68.5026 17.5373C67.763 17.5373 67.1589 17.7352 66.6901 18.1206C66.2161 18.4956 65.9818 19.0321 65.9818 19.7248C65.9818 20.2144 66.1172 20.6154 66.3984 20.9331C66.6901 21.2404 67.0339 21.4748 67.4401 21.6414C67.8568 21.8081 68.4297 21.9956 69.1693 22.2039C70.0703 22.4435 70.7943 22.6831 71.3359 22.9331C71.8776 23.1727 72.3411 23.5373 72.7318 24.0373C73.1328 24.5373 73.3359 25.2196 73.3359 26.0789C73.3359 26.7456 73.1536 27.3706 72.7943 27.9539C72.4453 28.5373 71.9245 29.0164 71.2318 29.3914C70.5495 29.756 69.737 29.9331 68.7943 29.9331Z" fill="#900182"/>
<path d="M77.7082 16.1831V29.7873H75.9374V16.1831H77.7082Z" fill="#900182"/>
<path d="M91.0507 20.1208C90.6757 19.3291 90.1236 18.7197 89.4049 18.2874C88.6965 17.8447 87.8632 17.6208 86.9049 17.6208C85.9569 17.6208 85.1028 17.8447 84.3424 18.2874C83.5767 18.7197 82.9726 19.3447 82.5299 20.1624C82.0976 20.9697 81.884 21.9072 81.884 22.9749C81.884 24.0479 82.0976 24.9854 82.5299 25.7874C82.9726 26.5947 83.5767 27.2197 84.3424 27.6624C85.1028 28.0947 85.9569 28.3083 86.9049 28.3083C88.2382 28.3083 89.3267 27.9124 90.1757 27.1208C91.0351 26.3187 91.5403 25.2406 91.6965 23.8916H86.259V22.4541H93.5924V23.8083C93.4778 24.9333 93.1236 25.9645 92.5299 26.8916C91.9309 27.8239 91.1392 28.5583 90.1549 29.0999C89.1809 29.6416 88.0976 29.9124 86.9049 29.9124C85.6392 29.9124 84.4882 29.6156 83.4465 29.0166C82.4049 28.4229 81.5767 27.5999 80.9674 26.5583C80.3684 25.5062 80.0715 24.3083 80.0715 22.9749C80.0715 21.6416 80.3684 20.4489 80.9674 19.3916C81.5767 18.3395 82.4049 17.5114 83.4465 16.9124C84.4882 16.3187 85.6392 16.0166 86.9049 16.0166C88.3476 16.0166 89.6236 16.3812 90.7382 17.0999C91.8476 17.8083 92.6601 18.8187 93.1757 20.1208H91.0507Z" fill="#900182"/>
<path d="M103.963 26.7666H98.0254L96.9421 29.7874H95.0671L99.9838 16.2666H102.025L106.942 29.7874H105.067L103.963 26.7666ZM103.463 25.3083L101.005 18.4541L98.5463 25.3083H103.463Z" fill="#900182"/>
<path d="M111.387 16.1831L111.158 25.9331H109.679L109.471 16.1831H111.387ZM110.512 29.9123C110.163 29.9123 109.872 29.7925 109.637 29.5581C109.398 29.3237 109.283 29.0373 109.283 28.7039C109.283 28.3602 109.398 28.0685 109.637 27.8289C109.872 27.5946 110.163 27.4748 110.512 27.4748C110.83 27.4748 111.101 27.5946 111.325 27.8289C111.559 28.0685 111.679 28.3602 111.679 28.7039C111.679 29.0373 111.559 29.3237 111.325 29.5581C111.101 29.7925 110.83 29.9123 110.512 29.9123Z" fill="#900182"/>
<mask id="mask4_21_4" style="mask-type:luminance" maskUnits="userSpaceOnUse" x="245" y="8" width="33" height="33">
<path d="M245.432 8.02588H277.432V40.0259H245.432V8.02588Z" fill="white"/>
</mask>
<g mask="url(#mask4_21_4)">
<path d="M261.422 10.9115C265.693 10.9115 266.198 10.9271 267.891 11.0052C269.443 11.0729 270.292 11.3333 270.859 11.5573C271.604 11.8437 272.135 12.1979 272.698 12.7552C273.26 13.3177 273.604 13.849 273.896 14.5938C274.115 15.1563 274.375 16.0052 274.453 17.5677C274.526 19.2552 274.542 19.7604 274.542 24.0312C274.542 28.3021 274.526 28.8073 274.453 30.4948C274.38 32.0521 274.12 32.901 273.896 33.4688C273.609 34.2135 273.26 34.7448 272.698 35.3073C272.135 35.8646 271.604 36.2083 270.859 36.5052C270.302 36.7188 269.453 36.9792 267.891 37.0573C266.198 37.1354 265.693 37.151 261.422 37.151C257.156 37.151 256.651 37.1354 254.958 37.0573C253.401 36.9896 252.557 36.7292 251.984 36.5052C251.245 36.2188 250.708 35.8646 250.151 35.3073C249.589 34.7448 249.245 34.2135 248.953 33.4688C248.734 32.9063 248.474 32.0573 248.396 30.4948C248.318 28.8073 248.307 28.3021 248.307 24.0312C248.307 19.7604 248.318 19.2552 248.396 17.5677C248.469 16.0104 248.724 15.1615 248.953 14.5938C249.24 13.849 249.589 13.3177 250.151 12.7552C250.708 12.1979 251.245 11.8542 251.984 11.5573C252.547 11.3385 253.396 11.0781 254.958 11.0052C256.651 10.9271 257.156 10.9115 261.422 10.9115ZM261.422 8.03125C257.078 8.03125 256.536 8.05208 254.828 8.13021C253.125 8.20833 251.958 8.47917 250.943 8.86979C249.891 9.28125 249 9.82813 248.109 10.7135C247.224 11.6042 246.677 12.4948 246.271 13.5469C245.88 14.5677 245.604 15.7292 245.531 17.4323C245.453 19.1354 245.432 19.6823 245.432 24.026C245.432 28.3698 245.453 28.9115 245.531 30.6198C245.604 32.3229 245.88 33.4896 246.271 34.5052C246.677 35.5573 247.224 36.4479 248.115 37.3385C249.005 38.2292 249.896 38.776 250.948 39.1823C251.964 39.5729 253.13 39.849 254.833 39.9271C256.536 40.0052 257.083 40.026 261.432 40.026C265.776 40.026 266.318 40.0052 268.031 39.9271C269.734 39.849 270.896 39.5729 271.911 39.1823C272.964 38.776 273.854 38.2292 274.745 37.3385C275.635 36.4479 276.182 35.5573 276.589 34.5052C276.984 33.4896 277.255 32.3229 277.333 30.6198C277.411 28.9167 277.432 28.3698 277.432 24.026C277.432 19.6771 277.411 19.1354 277.333 17.4271C277.255 15.724 276.984 14.5573 276.589 13.5417C276.182 12.4896 275.635 11.599 274.745 10.7083C273.854 9.81771 272.964 9.27083 271.911 8.86458C270.896 8.47396 269.734 8.19792 268.031 8.11979C266.318 8.05208 265.771 8.03125 261.422 8.03125Z" fill="#ECEBEC"/>
</g>
<path d="M261.422 15.8125C256.885 15.8125 253.214 19.4896 253.214 24.026C253.214 28.5625 256.896 32.2396 261.432 32.2396C265.969 32.2396 269.651 28.5677 269.651 24.026C269.641 19.4896 265.958 15.8125 261.422 15.8125ZM261.422 29.3594C258.479 29.3594 256.094 26.974 256.094 24.0312C256.094 21.0885 258.479 18.7031 261.422 18.7031C264.37 18.7031 266.755 21.0885 266.755 24.0312C266.76 26.9687 264.37 29.3594 261.422 29.3594Z" fill="#ECEBEC"/>
<path d="M271.885 15.4897C271.885 16.5522 271.021 17.4116 269.964 17.4116C268.906 17.4116 268.042 16.5522 268.042 15.4897C268.042 14.4325 268.906 13.5679 269.964 13.5679C271.021 13.5679 271.885 14.4272 271.885 15.4897Z" fill="#ECEBEC"/>
</svg>
