<svg width="206" height="66" viewBox="0 0 206 66" fill="none" xmlns="http://www.w3.org/2000/svg">
<mask id="mask0_21_3" style="mask-type:luminance" maskUnits="userSpaceOnUse" x="0" y="0" width="206" height="66">
<path d="M0.822937 0.671875H205.115V65.3333H0.822937V0.671875Z" fill="white"/>
</mask>
<g mask="url(#mask0_21_3)">
<mask id="mask1_21_3" style="mask-type:luminance" maskUnits="userSpaceOnUse" x="0" y="0" width="205" height="65">
<path d="M32.9584 0.671875H172.625C181.146 0.671875 189.318 4.05729 195.344 10.0833C201.37 16.1094 204.755 24.2813 204.755 32.8073C204.755 41.3281 201.37 49.5 195.344 55.526C189.318 61.5521 181.146 64.9375 172.625 64.9375H32.9584C24.4375 64.9375 16.2604 61.5521 10.2344 55.526C4.20835 49.5 0.822937 41.3281 0.822937 32.8073C0.822937 24.2813 4.20835 16.1094 10.2344 10.0833C16.2604 4.05729 24.4375 0.671875 32.9584 0.671875Z" fill="white"/>
</mask>
<g mask="url(#mask1_21_3)">
<path d="M0.822937 0.671875H205.115V64.7917H0.822937V0.671875Z" fill="#FF4F4F"/>
</g>
</g>
<path d="M33.5024 27.3521C35.5701 27.3521 37.3254 27.8677 38.7733 28.8937L37.5858 31.2896C36.1379 30.4041 34.6951 29.9562 33.2524 29.9562C31.7785 29.9562 31.0441 30.4562 31.0441 31.4562C31.0441 31.9458 31.3149 32.3468 31.8566 32.6646C32.4087 32.9875 33.0754 33.2583 33.8566 33.4771C34.6326 33.701 35.4087 33.9562 36.1899 34.2479C36.9816 34.5396 37.6483 35.0187 38.1899 35.6854C38.742 36.3416 39.0233 37.175 39.0233 38.1854C39.0233 39.6437 38.466 40.7583 37.3566 41.5187C36.2576 42.2687 34.8879 42.6437 33.2524 42.6437C32.1118 42.6437 31.0024 42.4666 29.9191 42.1021C28.8358 41.7427 27.9243 41.2271 27.1899 40.5604L28.3566 38.2479C28.992 38.8052 29.7785 39.2583 30.7108 39.6021C31.6535 39.9354 32.5493 40.1021 33.3983 40.1021C34.1326 40.1021 34.7212 39.9718 35.1691 39.7062C35.6274 39.4458 35.8566 39.0396 35.8566 38.4979C35.8566 37.9302 35.5754 37.4771 35.0233 37.1437C34.4816 36.8 33.8201 36.5291 33.0441 36.3312C32.2785 36.1229 31.5076 35.8833 30.7316 35.6021C29.9504 35.3104 29.2941 34.8416 28.7524 34.1854C28.2212 33.5343 27.9608 32.7062 27.9608 31.7062C27.9608 30.2791 28.4868 29.1958 29.5441 28.4562C30.6118 27.7218 31.9295 27.3521 33.5024 27.3521Z" fill="white"/>
<path d="M48.4956 27.3936C51.0633 27.3936 52.9227 28.1748 54.0789 29.7269C55.2456 31.2842 55.7248 33.4665 55.5164 36.2686H44.1623C44.4227 37.4352 44.9644 38.3519 45.7873 39.0186C46.6206 39.6852 47.631 40.0186 48.8289 40.0186C50.5216 40.0186 51.9331 39.4352 53.0581 38.2686L54.7873 40.1019C53.2456 41.7998 51.1727 42.6436 48.5789 42.6436C46.256 42.6436 44.3914 41.9456 42.9748 40.5394C41.5685 39.1383 40.8706 37.3102 40.8706 35.0602C40.8706 32.7998 41.5789 30.9561 42.9956 29.5394C44.4123 28.1227 46.2456 27.4092 48.4956 27.3936ZM44.0998 33.8936H52.7039C52.6466 32.6852 52.2352 31.7373 51.4748 31.0394C50.7248 30.3311 49.7352 29.9769 48.5164 29.9769C47.3185 29.9769 46.3341 30.3311 45.5581 31.0394C44.7769 31.7373 44.2925 32.6852 44.0998 33.8936Z" fill="white"/>
<path d="M66.4502 21.7896C66.8095 21.4146 67.2627 21.2271 67.8043 21.2271C68.3564 21.2271 68.8147 21.4146 69.1793 21.7896C69.5387 22.1541 69.721 22.6229 69.721 23.2062C69.721 23.7791 69.5387 24.2427 69.1793 24.6021C68.8147 24.9666 68.3564 25.1437 67.8043 25.1437C67.2627 25.1437 66.8095 24.9666 66.4502 24.6021C66.1012 24.2427 65.9293 23.7791 65.9293 23.2062C65.9293 22.6229 66.1012 22.1541 66.4502 21.7896ZM69.4293 42.5396H66.2002V27.4979H69.4293V42.5396Z" fill="white"/>
<path d="M83.0192 27.3936C84.7796 27.3936 86.1546 27.9092 87.1442 28.9352C88.1286 29.9665 88.6234 31.3831 88.6234 33.1852V42.5394H85.3734V34.0811C85.3734 32.9561 85.0505 32.0706 84.415 31.4144C83.7744 30.7633 82.8838 30.4352 81.7484 30.4352C80.54 30.4665 79.5505 30.8519 78.79 31.6019C78.04 32.3519 77.6025 33.3311 77.4775 34.5394V42.5394H74.2275V27.4977H77.4775V30.3727C78.5036 28.3883 80.3525 27.3936 83.0192 27.3936Z" fill="white"/>
<path d="M97.4677 27.3521C99.5354 27.3521 101.291 27.8677 102.738 28.8937L101.551 31.2896C100.103 30.4041 98.6604 29.9562 97.2177 29.9562C95.7437 29.9562 95.0093 30.4562 95.0093 31.4562C95.0093 31.9458 95.2802 32.3468 95.8218 32.6646C96.3739 32.9875 97.0406 33.2583 97.8218 33.4771C98.5979 33.701 99.3739 33.9562 100.155 34.2479C100.947 34.5396 101.613 35.0187 102.155 35.6854C102.707 36.3416 102.988 37.175 102.988 38.1854C102.988 39.6437 102.431 40.7583 101.322 41.5187C100.223 42.2687 98.8531 42.6437 97.2177 42.6437C96.077 42.6437 94.9677 42.4666 93.8843 42.1021C92.801 41.7427 91.8895 41.2271 91.1552 40.5604L92.3218 38.2479C92.9572 38.8052 93.7437 39.2583 94.676 39.6021C95.6187 39.9354 96.5145 40.1021 97.3635 40.1021C98.0979 40.1021 98.6864 39.9718 99.1343 39.7062C99.5927 39.4458 99.8218 39.0396 99.8218 38.4979C99.8218 37.9302 99.5406 37.4771 98.9885 37.1437C98.4468 36.8 97.7854 36.5291 97.0093 36.3312C96.2437 36.1229 95.4729 35.8833 94.6968 35.6021C93.9156 35.3104 93.2593 34.8416 92.7177 34.1854C92.1864 33.5343 91.926 32.7062 91.926 31.7062C91.926 30.2791 92.452 29.1958 93.5093 28.4562C94.577 27.7218 95.8947 27.3521 97.4677 27.3521Z" fill="white"/>
<path d="M112.419 27.3936C115.138 27.3936 117.216 28.2165 118.648 29.8519L116.857 31.9352C115.732 30.7842 114.299 30.2217 112.565 30.2477C111.258 30.2477 110.19 30.7008 109.357 31.6019C108.523 32.4925 108.107 33.6436 108.107 35.0602C108.107 36.4665 108.523 37.6175 109.357 38.5186C110.19 39.4092 111.258 39.8519 112.565 39.8519C114.482 39.8519 115.961 39.2477 117.003 38.0394L118.815 39.8519C117.398 41.7165 115.263 42.6436 112.419 42.6436C110.18 42.6436 108.357 41.9456 106.94 40.5394C105.534 39.1383 104.836 37.305 104.836 35.0394C104.836 32.7633 105.534 30.9248 106.94 29.5186C108.357 28.1019 110.18 27.3936 112.419 27.3936Z" fill="white"/>
<path d="M125.444 27.4977V30.4977C126.486 28.43 128.22 27.3936 130.653 27.3936V30.4977C129.163 30.4144 127.955 30.7633 127.028 31.5394C126.111 32.3206 125.58 33.3675 125.444 34.6852V42.5394H122.194V27.4977H125.444Z" fill="white"/>
<path d="M139.539 27.3936C142.107 27.3936 143.967 28.1748 145.123 29.7269C146.289 31.2842 146.769 33.4665 146.56 36.2686H135.206C135.467 37.4352 136.008 38.3519 136.831 39.0186C137.664 39.6852 138.675 40.0186 139.873 40.0186C141.565 40.0186 142.977 39.4352 144.102 38.2686L145.831 40.1019C144.289 41.7998 142.217 42.6436 139.623 42.6436C137.3 42.6436 135.435 41.9456 134.019 40.5394C132.612 39.1383 131.914 37.3102 131.914 35.0602C131.914 32.7998 132.623 30.9561 134.039 29.5394C135.456 28.1227 137.289 27.4092 139.539 27.3936ZM135.144 33.8936H143.748C143.69 32.6852 143.279 31.7373 142.519 31.0394C141.769 30.3311 140.779 29.9769 139.56 29.9769C138.362 29.9769 137.378 30.3311 136.602 31.0394C135.821 31.7373 135.336 32.6852 135.144 33.8936Z" fill="white"/>
<path d="M156.764 42.5397H153.41L147.576 27.498H150.972L155.16 39.3522L159.285 27.498H162.535L156.764 42.5397Z" fill="white"/>
<path d="M173.812 42.5394V40.7061C172.739 42.029 171.082 42.6852 168.832 42.6852C167.234 42.6852 165.957 42.2477 164.999 41.3727C164.041 40.4977 163.562 39.3831 163.562 38.0186C163.562 36.6436 164.051 35.555 165.041 34.7477C166.041 33.93 167.437 33.5133 169.228 33.4977H173.791V33.0394C173.791 32.0811 173.484 31.3415 172.874 30.8102C172.26 30.2842 171.374 30.0186 170.207 30.0186C168.749 30.0186 167.26 30.529 165.749 31.5394L164.437 29.2894C165.572 28.6123 166.603 28.1227 167.52 27.8311C168.437 27.5394 169.562 27.3936 170.895 27.3936C172.822 27.3936 174.317 27.8623 175.374 28.7894C176.426 29.7217 176.963 31.0133 176.978 32.6644L177.02 42.5394H173.812ZM169.52 40.1019C170.671 40.1019 171.645 39.8415 172.437 39.3102C173.239 38.7686 173.692 38.0811 173.791 37.2477V35.8727H169.707C168.635 35.8727 167.853 36.0342 167.353 36.3519C166.853 36.6592 166.603 37.1644 166.603 37.8727C166.603 38.555 166.859 39.0967 167.374 39.4977C167.9 39.904 168.614 40.1019 169.52 40.1019Z" fill="white"/>
</svg>
