<svg width="605" height="467" viewBox="0 0 605 467" fill="none" xmlns="http://www.w3.org/2000/svg">
<path d="M14.7248 27.5657V5.10213H22.7821V2.12817H3.37061V5.10213H11.4123V27.5657H14.7248Z" fill="#900182"/>
<path d="M44.328 17.5604C44.328 12.4354 40.4009 7.9458 34.9009 7.9458C29.3853 7.9458 25.1978 12.4562 25.1978 18.0291C25.1978 23.6177 29.3853 28.0916 34.9009 28.0916C39.2394 28.0916 42.6457 25.3208 43.729 21.826H40.1196C39.2811 23.9771 37.3905 25.0968 34.828 25.0968C31.6873 25.0968 28.8436 22.701 28.453 18.8677H44.2707C44.3123 18.175 44.328 17.8937 44.328 17.5604ZM28.5988 16.0239C29.328 12.7323 31.9842 10.9771 34.8488 10.9771C38.0988 10.9771 40.8488 13.3156 41.0363 16.0239H28.5988Z" fill="#900182"/>
<path d="M56.7306 28.1073C61.2567 28.1073 64.7723 25.2843 65.8556 21.1698H62.564C61.5744 23.7896 59.3088 25.0968 56.7463 25.0968C53.439 25.0968 50.1994 22.4198 50.1994 18.0291C50.1994 13.6698 53.4181 10.9771 56.7463 10.9771C59.3296 10.9771 61.5744 12.2687 62.564 14.7375H65.8765C64.7358 10.7896 61.2723 7.9458 56.7306 7.9458C51.2098 7.9458 46.9858 12.4562 46.9858 18.0291C46.9858 23.6021 51.2098 28.1073 56.7306 28.1073Z" fill="#900182"/>
<path d="M73.3727 27.5656V17.5396C73.3727 13.4614 76.2738 10.9562 79.4508 10.9562C82.7633 10.9562 84.7842 12.8833 84.7842 17.2791V27.5656H87.9977V17.2218C87.9977 11.1281 85.3415 7.9458 80.2738 7.9458C77.0394 7.9458 74.3258 9.72184 73.2425 12.175V8.48747H70.1592V27.5656H73.3727Z" fill="#900182"/>
<path d="M102.251 28.1073C107.954 28.1073 112.198 23.6385 112.198 18.0291C112.198 12.4354 107.938 7.9458 102.251 7.9458C96.5839 7.9458 92.3391 12.4562 92.3391 18.0291C92.3391 23.6385 96.5995 28.1073 102.251 28.1073ZM102.287 25.076C98.4902 25.076 95.5527 22.0864 95.5527 18.0291C95.5527 14.0083 98.4902 10.9771 102.287 10.9771C106.063 10.9771 108.985 14.0083 108.985 18.0291C108.985 22.0864 106.063 25.076 102.287 25.076Z" fill="#900182"/>
<path d="M119.979 27.5656V1.1958H116.765V27.5656H119.979Z" fill="#900182"/>
<path d="M134.456 28.1073C140.159 28.1073 144.404 23.6385 144.404 18.0291C144.404 12.4354 140.143 7.9458 134.456 7.9458C128.789 7.9458 124.544 12.4562 124.544 18.0291C124.544 23.6385 128.805 28.1073 134.456 28.1073ZM134.492 25.076C130.695 25.076 127.758 22.0864 127.758 18.0291C127.758 14.0083 130.695 10.9771 134.492 10.9771C138.268 10.9771 141.19 14.0083 141.19 18.0291C141.19 22.0864 138.268 25.076 134.492 25.076Z" fill="#900182"/>
<path d="M157.33 34.7479C164.007 34.7479 167.221 30.3156 167.221 25.0031V8.48751H164.137V12.5865C162.997 10.0604 160.283 7.96667 156.637 7.96667C151.325 7.96667 147.361 12.4563 147.361 17.6698C147.361 22.925 151.361 27.2115 156.731 27.2115C159.965 27.2115 162.788 25.6386 164.137 22.7427V25.0969C164.137 28.649 162.283 31.9979 157.33 31.9979C153.174 31.9979 151.585 29.9771 151.21 27.6802H148.163C148.372 31.1542 150.913 34.7479 157.33 34.7479ZM157.288 24.3677C153.549 24.3677 150.559 21.4667 150.559 17.6698C150.559 13.8365 153.549 10.9771 157.309 10.9771C161.049 10.9771 164.023 14.0448 164.023 17.6698C164.023 21.3365 161.033 24.3677 157.288 24.3677Z" fill="#900182"/>
<path d="M174.984 4.76876C176.365 4.76876 177.208 3.85209 177.208 2.71147C177.208 1.58647 176.365 0.6698 175 0.6698C173.656 0.6698 172.812 1.58647 172.812 2.71147C172.812 3.85209 173.656 4.76876 174.984 4.76876ZM176.609 27.5656V8.48751H173.396V27.5656H176.609Z" fill="#900182"/>
<path d="M190.394 28.1073C193.8 28.1073 196.659 26.3313 197.951 23.5083V27.5656H201.034V8.48751H197.951V12.5865C196.659 9.74272 193.816 7.96667 190.373 7.96667C185.196 7.96667 181.175 12.4563 181.175 18.0292C181.175 23.6386 185.175 28.1073 190.394 28.1073ZM191.102 25.0969C187.441 25.0969 184.373 22.2531 184.373 18.0292C184.373 13.9146 187.399 10.9771 191.123 10.9771C194.826 10.9771 197.837 14.0813 197.837 18.0292C197.837 22.0292 194.847 25.0969 191.102 25.0969Z" fill="#900182"/>
<path d="M219.886 27.5656V17.5396C219.886 13.4614 222.787 10.9562 225.965 10.9562C229.277 10.9562 231.298 12.8833 231.298 17.2791V27.5656H234.511V17.2218C234.511 11.1281 231.855 7.9458 226.787 7.9458C223.553 7.9458 220.84 9.72184 219.756 12.175V8.48747H216.673V27.5656H219.886Z" fill="#900182"/>
<path d="M248.072 28.1073C251.478 28.1073 254.337 26.3313 255.629 23.5083V27.5656H258.712V8.48751H255.629V12.5865C254.337 9.74272 251.494 7.96667 248.051 7.96667C242.874 7.96667 238.853 12.4563 238.853 18.0292C238.853 23.6386 242.853 28.1073 248.072 28.1073ZM248.78 25.0969C245.119 25.0969 242.051 22.2531 242.051 18.0292C242.051 13.9146 245.077 10.9771 248.801 10.9771C252.504 10.9771 255.514 14.0813 255.514 18.0292C255.514 22.0292 252.525 25.0969 248.78 25.0969Z" fill="#900182"/>
<path d="M13.3185 60.5837C16.7821 60.5837 19.4748 58.5629 20.6883 55.9848V60.0421H23.7769V33.7087H20.5581V43.1358L20.631 44.9848C19.5321 42.6879 16.9123 40.4223 13.3394 40.4223C7.86019 40.4223 3.93311 44.9327 3.93311 50.5056C3.93311 56.115 7.93311 60.5837 13.3185 60.5837ZM13.8446 57.5942C10.0112 57.5942 7.13102 54.5056 7.13102 50.5056C7.13102 46.4639 10.0841 43.4327 13.8446 43.4327C17.605 43.4327 20.5946 46.5369 20.5946 50.5056C20.5946 54.5056 17.5841 57.5942 13.8446 57.5942Z" fill="#900182"/>
<path d="M47.4701 50.0369C47.4701 44.9119 43.543 40.4224 38.043 40.4224C32.5273 40.4224 28.3398 44.9328 28.3398 50.5057C28.3398 56.0942 32.5273 60.5682 38.043 60.5682C42.3815 60.5682 45.7878 57.7974 46.8711 54.3026H43.2617C42.4232 56.4536 40.5326 57.5734 37.9701 57.5734C34.8294 57.5734 31.9857 55.1776 31.5951 51.3442H47.4128C47.4544 50.6515 47.4701 50.3703 47.4701 50.0369ZM31.7409 48.5005C32.4701 45.2088 35.1263 43.4536 37.9909 43.4536C41.2409 43.4536 43.9909 45.7922 44.1784 48.5005H31.7409Z" fill="#900182"/>
<path d="M54.9717 60.0421V51.0629C54.9717 46.464 57.4561 43.7869 60.805 43.7869H62.4873V40.964H60.6383C57.8675 40.964 55.7738 42.5942 54.8415 45.2296V40.964H51.7373V60.0421H54.9717Z" fill="#900182"/>
<path d="M89.5523 40.4224C86.594 40.4224 84.0159 42.0682 82.5367 45.3234C81.5471 42.089 79.3023 40.4224 75.8805 40.4224C72.8127 40.4224 70.2867 42.2557 69.3127 44.6515L69.2763 40.964H66.2502V60.0422H69.4273V50.0161C69.4273 46.1255 72.0992 43.4328 75.0211 43.4328C78.068 43.4328 79.9169 45.3599 79.9169 49.7557V60.0422H83.0992V50.0161C83.0992 46.1255 85.7711 43.4328 88.6721 43.4328C91.7398 43.4328 93.5888 45.3807 93.5888 49.7557V60.0422H96.7919V49.6984C96.7919 43.6047 94.2815 40.4224 89.5523 40.4224Z" fill="#900182"/>
<path d="M110.348 60.5837C113.754 60.5837 116.614 58.8077 117.905 55.9848V60.0421H120.989V40.9639H117.905V45.0629C116.614 42.2192 113.77 40.4431 110.327 40.4431C105.15 40.4431 101.129 44.9327 101.129 50.5056C101.129 56.115 105.129 60.5837 110.348 60.5837ZM111.056 57.5733C107.395 57.5733 104.327 54.7296 104.327 50.5056C104.327 46.391 107.353 43.4535 111.077 43.4535C114.78 43.4535 117.791 46.5577 117.791 50.5056C117.791 54.5056 114.801 57.5733 111.056 57.5733Z" fill="#900182"/>
<path d="M138.044 60.0422V57.313H135.164C133.466 57.313 131.742 56.6776 131.742 53.1203V43.7869H138.044V40.964H131.742V35.2817L128.528 35.2974V40.964H124.283V43.7869H128.528V52.9744C128.528 58.9224 131.632 60.0422 134.528 60.0422H138.044Z" fill="#900182"/>
<path d="M150.503 60.5838C156.206 60.5838 160.45 56.1151 160.45 50.5057C160.45 44.9119 156.19 40.4224 150.503 40.4224C144.836 40.4224 140.591 44.9328 140.591 50.5057C140.591 56.1151 144.851 60.5838 150.503 60.5838ZM150.539 57.5526C146.742 57.5526 143.805 54.563 143.805 50.5057C143.805 46.4849 146.742 43.4536 150.539 43.4536C154.315 43.4536 157.237 46.4849 157.237 50.5057C157.237 54.563 154.315 57.5526 150.539 57.5526Z" fill="#900182"/>
<path d="M168.231 60.0422V33.6724H165.017V60.0422H168.231Z" fill="#900182"/>
<path d="M182.708 60.5838C188.411 60.5838 192.656 56.1151 192.656 50.5057C192.656 44.9119 188.395 40.4224 182.708 40.4224C177.041 40.4224 172.796 44.9328 172.796 50.5057C172.796 56.1151 177.057 60.5838 182.708 60.5838ZM182.744 57.5526C178.947 57.5526 176.01 54.563 176.01 50.5057C176.01 46.4849 178.947 43.4536 182.744 43.4536C186.52 43.4536 189.442 46.4849 189.442 50.5057C189.442 54.563 186.52 57.5526 182.744 57.5526Z" fill="#900182"/>
<path d="M205.582 67.2244C212.259 67.2244 215.473 62.7921 215.473 57.4796V40.9639H212.389V45.0629C211.249 42.5369 208.535 40.4431 204.889 40.4431C199.577 40.4431 195.613 44.9327 195.613 50.1462C195.613 55.4014 199.613 59.6879 204.983 59.6879C208.217 59.6879 211.04 58.115 212.389 55.2192V57.5733C212.389 61.1254 210.535 64.4744 205.582 64.4744C201.426 64.4744 199.837 62.4535 199.462 60.1567H196.415C196.624 63.6306 199.165 67.2244 205.582 67.2244ZM205.54 56.8442C201.801 56.8442 198.811 53.9431 198.811 50.1462C198.811 46.3129 201.801 43.4535 205.561 43.4535C209.301 43.4535 212.275 46.5212 212.275 50.1462C212.275 53.8129 209.285 56.8442 205.54 56.8442Z" fill="#900182"/>
<path d="M223.236 37.2452C224.617 37.2452 225.46 36.3285 225.46 35.1879C225.46 34.0629 224.617 33.1462 223.252 33.1462C221.908 33.1462 221.064 34.0629 221.064 35.1879C221.064 36.3285 221.908 37.2452 223.236 37.2452ZM224.861 60.0421V40.9639H221.648V60.0421H224.861Z" fill="#900182"/>
<path d="M238.646 60.5837C242.052 60.5837 244.911 58.8077 246.203 55.9848V60.0421H249.286V40.9639H246.203V45.0629C244.911 42.2192 242.068 40.4431 238.625 40.4431C233.448 40.4431 229.427 44.9327 229.427 50.5056C229.427 56.115 233.427 60.5837 238.646 60.5837ZM239.354 57.5733C235.693 57.5733 232.625 54.7296 232.625 50.5056C232.625 46.391 235.651 43.4535 239.375 43.4535C243.078 43.4535 246.088 46.5577 246.088 50.5056C246.088 54.5056 243.099 57.5733 239.354 57.5733Z" fill="#900182"/>
<path d="M274.873 33.2609L271.993 38.5525H274.237L277.321 34.0994L274.873 33.2609ZM282.446 50.0369C282.446 44.9119 278.519 40.4223 273.019 40.4223C267.503 40.4223 263.315 44.9327 263.315 50.5057C263.315 56.0942 267.503 60.5682 273.019 60.5682C277.357 60.5682 280.763 57.7973 281.847 54.3025H278.237C277.399 56.4536 275.508 57.5734 272.946 57.5734C269.805 57.5734 266.961 55.1775 266.571 51.3442H282.388C282.43 50.6515 282.446 50.3702 282.446 50.0369ZM266.716 48.5004C267.446 45.2088 270.102 43.4536 272.966 43.4536C276.216 43.4536 278.966 45.7921 279.154 48.5004H266.716Z" fill="#900182"/>
<path d="M13.7301 93.0602C18.7093 93.0602 22.3916 90.2529 22.3916 83.6331V73.4404H19.1729V83.5394C19.1729 87.8415 17.2093 90.029 13.6937 90.029C10.1989 90.029 8.21452 87.8258 8.21452 83.5394V73.4404H5.0166V83.6331C5.0166 90.2529 8.66244 93.0602 13.7301 93.0602Z" fill="#900182"/>
<path d="M51.3436 72.8988C48.3853 72.8988 45.8071 74.5446 44.328 77.7998C43.3384 74.5655 41.0936 72.8988 37.6717 72.8988C34.604 72.8988 32.078 74.7321 31.104 77.128L31.0675 73.4405H28.0415V92.5186H31.2186V82.4926C31.2186 78.6019 33.8905 75.9092 36.8123 75.9092C39.8592 75.9092 41.7082 77.8363 41.7082 82.2321V92.5186H44.8905V82.4926C44.8905 78.6019 47.5623 75.9092 50.4634 75.9092C53.5311 75.9092 55.38 77.8571 55.38 82.2321V92.5186H58.5832V82.1748C58.5832 76.0811 56.0728 72.8988 51.3436 72.8988Z" fill="#900182"/>
<path d="M72.1392 93.0602C75.5454 93.0602 78.4048 91.2841 79.6965 88.4612V92.5185H82.7798V73.4404H79.6965V77.5393C78.4048 74.6956 75.561 72.9196 72.1183 72.9196C66.9412 72.9196 62.9204 77.4091 62.9204 82.9821C62.9204 88.5914 66.9204 93.0602 72.1392 93.0602ZM72.8475 90.0498C69.186 90.0498 66.1183 87.206 66.1183 82.9821C66.1183 78.8675 69.1444 75.93 72.8683 75.93C76.5715 75.93 79.5819 79.0341 79.5819 82.9821C79.5819 86.9821 76.5923 90.0498 72.8475 90.0498Z" fill="#900182"/>
<path d="M106.778 99.7008C113.455 99.7008 116.668 95.2685 116.668 89.956V73.4404H113.585V77.5393C112.444 75.0133 109.731 72.9196 106.085 72.9196C100.772 72.9196 96.8088 77.4091 96.8088 82.6227C96.8088 87.8779 100.809 92.1643 106.179 92.1643C109.413 92.1643 112.236 90.5914 113.585 87.6956V90.0498C113.585 93.6018 111.731 96.9508 106.778 96.9508C102.621 96.9508 101.033 94.93 100.658 92.6331H97.6109C97.8193 96.1071 100.361 99.7008 106.778 99.7008ZM106.736 89.3206C102.996 89.3206 100.007 86.4196 100.007 82.6227C100.007 78.7893 102.996 75.93 106.757 75.93C110.496 75.93 113.47 78.9977 113.47 82.6227C113.47 86.2893 110.481 89.3206 106.736 89.3206Z" fill="#900182"/>
<path d="M126.078 92.5186V83.5394C126.078 78.9404 128.562 76.2633 131.911 76.2633H133.594V73.4404H131.745C128.974 73.4404 126.88 75.0706 125.948 77.7061V73.4404H122.844V92.5186H126.078Z" fill="#900182"/>
<path d="M144.966 93.0602C148.372 93.0602 151.231 91.2841 152.523 88.4612V92.5185H155.606V73.4404H152.523V77.5393C151.231 74.6956 148.388 72.9196 144.945 72.9196C139.768 72.9196 135.747 77.4091 135.747 82.9821C135.747 88.5914 139.747 93.0602 144.966 93.0602ZM145.674 90.0498C142.013 90.0498 138.945 87.206 138.945 82.9821C138.945 78.8675 141.971 75.93 145.695 75.93C149.398 75.93 152.409 79.0341 152.409 82.9821C152.409 86.9821 149.419 90.0498 145.674 90.0498Z" fill="#900182"/>
<path d="M164.995 92.5186V82.4926C164.995 78.4144 167.896 75.9092 171.073 75.9092C174.386 75.9092 176.407 77.8363 176.407 82.2321V92.5186H179.62V82.1748C179.62 76.0811 176.964 72.8988 171.896 72.8988C168.662 72.8988 165.948 74.6748 164.865 77.128V73.4405H161.782V92.5186H164.995Z" fill="#900182"/>
<path d="M193.347 93.0602C196.811 93.0602 199.503 91.0393 200.717 88.4612V92.5185H203.805V66.1852H200.587V75.6123L200.66 77.4612C199.561 75.1643 196.941 72.8987 193.368 72.8987C187.889 72.8987 183.962 77.4091 183.962 82.9821C183.962 88.5914 187.962 93.0602 193.347 93.0602ZM193.873 90.0706C190.04 90.0706 187.16 86.9821 187.16 82.9821C187.16 78.9404 190.113 75.9091 193.873 75.9091C197.634 75.9091 200.623 79.0133 200.623 82.9821C200.623 86.9821 197.613 90.0706 193.873 90.0706Z" fill="#900182"/>
<path d="M227.498 82.5134C227.498 77.3884 223.571 72.8988 218.071 72.8988C212.556 72.8988 208.368 77.4092 208.368 82.9821C208.368 88.5707 212.556 93.0446 218.071 93.0446C222.41 93.0446 225.816 90.2738 226.899 86.779H223.29C222.451 88.9301 220.561 90.0498 217.998 90.0498C214.858 90.0498 212.014 87.654 211.623 83.8207H227.441C227.483 83.128 227.498 82.8467 227.498 82.5134ZM211.769 80.9769C212.498 77.6853 215.155 75.9301 218.019 75.9301C221.269 75.9301 224.019 78.2686 224.207 80.9769H211.769Z" fill="#900182"/>
<path d="M244.443 99.0289V90.6852L244.385 88.5341C245.734 91.305 248.557 93.0602 251.698 93.0602C257.031 93.0602 261.073 88.5914 261.073 82.9821C261.073 77.4091 257.047 72.9196 251.661 72.9196C248.354 72.9196 245.64 74.8831 244.312 77.5185V73.4404H241.229V99.0289H244.443ZM251.14 90.0706C247.474 90.0706 244.427 87.0393 244.427 82.9821C244.427 79.0341 247.417 75.9091 251.14 75.9091C254.859 75.9091 257.87 78.8675 257.87 82.9821C257.87 87.1904 254.807 90.0706 251.14 90.0706Z" fill="#900182"/>
<path d="M273.264 93.0602C276.67 93.0602 279.529 91.2841 280.821 88.4612V92.5185H283.904V73.4404H280.821V77.5393C279.529 74.6956 276.686 72.9196 273.243 72.9196C268.066 72.9196 264.045 77.4091 264.045 82.9821C264.045 88.5914 268.045 93.0602 273.264 93.0602ZM273.972 90.0498C270.311 90.0498 267.243 87.206 267.243 82.9821C267.243 78.8675 270.269 75.93 273.993 75.93C277.696 75.93 280.706 79.0341 280.706 82.9821C280.706 86.9821 277.717 90.0498 273.972 90.0498Z" fill="#900182"/>
<path d="M291.668 69.7216C293.048 69.7216 293.892 68.805 293.892 67.6643C293.892 66.5393 293.048 65.6227 291.684 65.6227C290.34 65.6227 289.496 66.5393 289.496 67.6643C289.496 68.805 290.34 69.7216 291.668 69.7216ZM293.293 92.5185V73.4404H290.079V92.5185H293.293Z" fill="#900182"/>
<path d="M300.885 92.5186L305.937 85.0758L310.968 92.5186H314.838L308.197 82.7946L314.65 73.4404H310.853L305.973 80.6227H305.958L301.093 73.4404H297.275L303.728 82.7946L297.109 92.5186H300.885Z" fill="#900182"/>
<path d="M332.12 67.0446C331.428 68.4091 330.678 68.8571 329.948 68.8571C328.902 68.8571 327.839 67.9039 326.433 67.6643C324.865 67.3466 323.667 68.206 322.954 69.8883L324.136 70.8414C324.641 69.8675 325.183 69.6279 325.724 69.6279C326.829 69.6279 328.136 70.956 329.912 70.956C331.318 70.956 332.459 69.9977 333.318 67.9977L332.12 67.0446ZM326.266 93.0602C329.672 93.0602 332.532 91.2841 333.823 88.4612V92.5185H336.907V73.4404H333.823V77.5393C332.532 74.6956 329.688 72.9196 326.245 72.9196C321.068 72.9196 317.047 77.4091 317.047 82.9821C317.047 88.5914 321.047 93.0602 326.266 93.0602ZM326.974 90.0498C323.313 90.0498 320.245 87.206 320.245 82.9821C320.245 78.8675 323.271 75.93 326.995 75.93C330.698 75.93 333.709 79.0341 333.709 82.9821C333.709 86.9821 330.719 90.0498 326.974 90.0498Z" fill="#900182"/>
<path d="M351.384 93.0603C357.087 93.0603 361.332 88.5915 361.332 82.9821C361.332 77.3884 357.071 72.8988 351.384 72.8988C345.717 72.8988 341.472 77.4092 341.472 82.9821C341.472 88.5915 345.733 93.0603 351.384 93.0603ZM351.42 90.029C347.623 90.029 344.686 87.0394 344.686 82.9821C344.686 78.9613 347.623 75.9301 351.42 75.9301C355.196 75.9301 358.118 78.9613 358.118 82.9821C358.118 87.0394 355.196 90.029 351.42 90.029Z" fill="#900182"/>
<path d="M35.0791 151.581C36.9541 151.581 38.7718 151.3 40.5374 150.727C42.2979 150.16 43.5999 149.613 44.4333 149.081L45.6624 148.248L50.8916 158.706C50.7249 158.831 50.4854 159.009 50.1833 159.227C49.876 159.436 49.1676 159.842 48.0583 160.436C46.9437 161.019 45.7562 161.535 44.4958 161.977C43.2301 162.41 41.5687 162.795 39.5166 163.144C37.4749 163.488 35.3604 163.665 33.1833 163.665C28.1676 163.665 23.4176 162.436 18.9333 159.977C14.4437 157.509 10.8291 154.118 8.0791 149.811C5.3291 145.493 3.9541 140.826 3.9541 135.811C3.9541 132.019 4.75618 128.384 6.37077 124.894C7.98014 121.41 10.126 118.425 12.8083 115.936C15.4854 113.451 18.6104 111.472 22.1833 109.998C25.7666 108.514 29.4333 107.769 33.1833 107.769C36.6676 107.769 39.8812 108.186 42.8291 109.019C45.7718 109.842 47.8499 110.665 49.0583 111.498L50.8916 112.748L45.6624 123.206C45.3551 122.946 44.8968 122.623 44.2874 122.248C43.6729 121.873 42.4541 121.389 40.6208 120.79C38.7979 120.18 36.9541 119.873 35.0791 119.873C32.1051 119.873 29.4437 120.352 27.0999 121.311C24.751 122.269 22.8916 123.535 21.5166 125.102C20.1416 126.675 19.0895 128.363 18.3708 130.165C17.6468 131.972 17.2874 133.811 17.2874 135.686C17.2874 139.785 18.8187 143.456 21.8916 146.706C24.9749 149.956 29.3708 151.581 35.0791 151.581Z" fill="#900182"/>
<path d="M53.1848 135.686C53.1848 127.884 55.8411 121.279 61.164 115.873C66.4817 110.472 72.8931 107.769 80.3931 107.769C87.9192 107.769 94.3202 110.467 99.6015 115.852C104.878 121.227 107.518 127.842 107.518 135.686C107.518 143.576 104.919 150.217 99.7265 155.602C94.5442 160.977 88.1015 163.665 80.3931 163.665C72.5025 163.665 65.9973 160.998 60.8723 155.665C55.7473 150.321 53.1848 143.66 53.1848 135.686ZM66.4556 135.686C66.4556 138.519 66.8931 141.102 67.7681 143.436C68.6431 145.769 70.1692 147.743 72.3515 149.352C74.5286 150.967 77.2109 151.769 80.3931 151.769C84.9609 151.769 88.414 150.201 90.7473 147.061C93.0806 143.925 94.2473 140.134 94.2473 135.686C94.2473 131.285 93.0598 127.509 90.6848 124.352C88.3098 121.186 84.8775 119.602 80.3931 119.602C75.9452 119.602 72.5077 121.186 70.0806 124.352C67.664 127.509 66.4556 131.285 66.4556 135.686Z" fill="#900182"/>
<path d="M125.231 129.206V162.686H112.939V108.748H125.231L146.669 142.227H146.814V108.748H159.106V162.686H146.814L125.377 129.206H125.231Z" fill="#900182"/>
<path d="M179.235 141.04V162.686H166.943V108.748H179.235V130.269H196.63V108.748H208.922V162.686H196.63V141.04H179.235Z" fill="#900182"/>
<path d="M247.616 108.748V119.54H229.054V130.269H246.846V141.04H229.054V151.894H247.616V162.686H216.762V108.748H247.616Z" fill="#900182"/>
<path d="M283.391 151.581C285.266 151.581 287.083 151.3 288.849 150.727C290.609 150.16 291.911 149.613 292.745 149.081L293.974 148.248L299.203 158.706C299.036 158.831 298.797 159.009 298.495 159.227C298.188 159.436 297.479 159.842 296.37 160.436C295.255 161.019 294.068 161.535 292.807 161.977C291.542 162.41 289.88 162.795 287.828 163.144C285.786 163.488 283.672 163.665 281.495 163.665C280.047 163.665 278.745 163.581 277.578 163.415L276.453 166.811C278.505 166.811 280.422 167.394 282.203 168.561C283.995 169.738 284.891 171.378 284.891 173.477C284.891 175.779 284.068 177.759 282.432 179.415C280.807 181.081 278.313 181.915 274.953 181.915C273.214 181.915 271.505 181.456 269.828 180.54C268.146 179.623 266.891 178.727 266.057 177.852L264.891 176.477L269.599 172.956C269.766 173.165 270.005 173.441 270.328 173.79C270.661 174.149 271.292 174.607 272.224 175.165C273.167 175.732 274.078 176.019 274.953 176.019C276.089 176.019 276.917 175.769 277.432 175.269C277.958 174.769 278.224 174.17 278.224 173.477C278.224 172.519 277.807 171.79 276.974 171.29C276.151 170.79 275.214 170.54 274.161 170.54C273.464 170.54 272.833 170.581 272.266 170.665C271.708 170.748 271.339 170.831 271.161 170.915L270.828 171.123L270.182 170.602L272.87 162.352C266.937 160.535 262.021 157.186 258.12 152.311C254.214 147.425 252.266 141.925 252.266 135.811C252.266 132.019 253.068 128.384 254.682 124.894C256.292 121.41 258.437 118.425 261.12 115.936C263.797 113.451 266.922 111.472 270.495 109.998C274.078 108.514 277.745 107.769 281.495 107.769C284.979 107.769 288.193 108.186 291.141 109.019C294.083 109.842 296.161 110.665 297.37 111.498L299.203 112.748L293.974 123.206C293.667 122.946 293.208 122.623 292.599 122.248C291.984 121.873 290.766 121.389 288.932 120.79C287.109 120.18 285.266 119.873 283.391 119.873C280.417 119.873 277.755 120.352 275.411 121.311C273.063 122.269 271.203 123.535 269.828 125.102C268.453 126.675 267.401 128.363 266.682 130.165C265.958 131.972 265.599 133.811 265.599 135.686C265.599 139.785 267.13 143.456 270.203 146.706C273.286 149.956 277.682 151.581 283.391 151.581Z" fill="#900182"/>
<path d="M331.309 108.748L353.08 162.686H339.871L335.892 151.894H315.351L311.371 162.686H298.163L319.934 108.748H331.309ZM331.705 141.102L325.684 125.415H325.559L319.538 141.102H331.705Z" fill="#900182"/>
<path d="M33.7664 185.199L55.5373 239.136H42.3289L38.3498 228.345H17.8081L13.8289 239.136H0.620605L22.3914 185.199H33.7664ZM34.1623 217.553L28.1414 201.866H28.0164L21.9956 217.553H34.1623Z" fill="#900182"/>
<path d="M106.664 185.199V195.991H87.7685V206.72H105.227V217.491H87.7685V239.136H75.4768V185.199H106.664Z" fill="#900182"/>
<path d="M110.13 212.136C110.13 204.334 112.787 197.73 118.11 192.324C123.427 186.923 129.839 184.22 137.339 184.22C144.865 184.22 151.266 186.918 156.547 192.303C161.823 197.678 164.464 204.293 164.464 212.136C164.464 220.027 161.865 226.668 156.672 232.053C151.49 237.428 145.047 240.116 137.339 240.116C129.448 240.116 122.943 237.449 117.818 232.116C112.693 226.772 110.13 220.11 110.13 212.136ZM123.401 212.136C123.401 214.97 123.839 217.553 124.714 219.886C125.589 222.22 127.115 224.194 129.297 225.803C131.474 227.418 134.156 228.22 137.339 228.22C141.906 228.22 145.36 226.652 147.693 223.511C150.026 220.376 151.193 216.584 151.193 212.136C151.193 207.735 150.005 203.959 147.63 200.803C145.255 197.636 141.823 196.053 137.339 196.053C132.891 196.053 129.453 197.636 127.026 200.803C124.61 203.959 123.401 207.735 123.401 212.136Z" fill="#900182"/>
<path d="M166.489 195.991V185.199H204.406V195.991H191.593V239.136H179.302V195.991H166.489Z" fill="#900182"/>
<path d="M206.435 212.136C206.435 204.334 209.091 197.73 214.414 192.324C219.731 186.923 226.143 184.22 233.643 184.22C241.169 184.22 247.57 186.918 252.851 192.303C258.127 197.678 260.768 204.293 260.768 212.136C260.768 220.027 258.169 226.668 252.976 232.053C247.794 237.428 241.351 240.116 233.643 240.116C225.752 240.116 219.247 237.449 214.122 232.116C208.997 226.772 206.435 220.11 206.435 212.136ZM219.705 212.136C219.705 214.97 220.143 217.553 221.018 219.886C221.893 222.22 223.419 224.194 225.601 225.803C227.778 227.418 230.461 228.22 233.643 228.22C238.211 228.22 241.664 226.652 243.997 223.511C246.33 220.376 247.497 216.584 247.497 212.136C247.497 207.735 246.31 203.959 243.935 200.803C241.56 197.636 238.127 196.053 233.643 196.053C229.195 196.053 225.757 197.636 223.33 200.803C220.914 203.959 219.705 207.735 219.705 212.136Z" fill="#900182"/>
<path d="M278.481 205.657V239.136H266.189V185.199H278.481L299.918 218.678H300.064V185.199H312.356V239.136H300.064L278.626 205.657H278.481Z" fill="#900182"/>
<path d="M347.588 185.199L369.359 239.136H356.151L352.172 228.345H331.63L327.651 239.136H314.443L336.213 185.199H347.588ZM347.984 217.553L341.963 201.866H341.838L335.818 217.553H347.984Z" fill="#900182"/>
<path d="M23.23 286.694L14.6883 266.163H11.131L2.58936 286.694H6.55811L8.18831 282.725H17.631L19.2612 286.694H23.23ZM12.7716 271.502L12.8914 271.007H12.9383L13.0321 271.502L16.3498 279.59H9.46957L12.7716 271.502Z" fill="#900182"/>
<path d="M52.0456 270.715C49.8268 270.715 47.9414 271.835 46.6133 274.215C45.7539 271.939 44.0352 270.715 41.4414 270.715C39.1445 270.715 37.2904 271.955 36.4935 273.601L36.4466 271.184H33.0352V286.694H36.6445V278.772C36.6445 275.981 38.4206 274.08 40.3841 274.08C42.3737 274.08 43.6445 275.351 43.6445 278.413V286.694H47.2487V278.772C47.2487 275.981 49.0456 274.08 50.9883 274.08C52.9987 274.08 54.2643 275.351 54.2643 278.413V286.694H57.8685V278.335C57.8685 273.465 55.9362 270.715 52.0456 270.715Z" fill="#900182"/>
<path d="M71.9611 269.345L74.4976 265.741L71.7944 264.788L69.5184 269.345H71.9611ZM68.2215 287.163C70.7424 287.163 72.7944 286.017 73.8049 284.085V286.694H77.2736V271.184H73.8049V273.809C72.8049 271.882 70.7424 270.715 68.2059 270.715C64.0549 270.715 60.9194 274.413 60.9194 278.939C60.9194 283.496 64.0288 287.163 68.2215 287.163ZM69.0965 283.783C66.6382 283.783 64.5392 281.955 64.5392 278.939C64.5392 276.028 66.5913 274.095 69.0965 274.095C71.6278 274.095 73.6538 276.241 73.6538 278.939C73.6538 281.684 71.6434 283.783 69.0965 283.783Z" fill="#900182"/>
<path d="M96.7863 291.991V271.184H93.3175V273.793C92.4113 272.257 90.5259 270.715 87.9894 270.715C83.4634 270.715 80.4478 274.413 80.4478 278.939C80.4478 283.496 83.5415 287.163 87.9425 287.163C90.5415 287.163 92.3957 285.715 93.1978 284.158L93.1196 285.731V291.991H96.7863ZM88.6092 283.798C85.9373 283.798 84.0363 281.684 84.0363 278.939C84.0363 276.116 86.0311 274.095 88.6092 274.095C91.1717 274.095 93.1821 276.226 93.1821 278.939C93.1821 281.684 91.1561 283.798 88.6092 283.798Z" fill="#900182"/>
<path d="M108.019 287.163C112.118 287.163 115.29 284.991 115.29 279.47V271.184H111.654V279.361C111.654 282.199 110.446 283.767 108.003 283.767C105.571 283.767 104.337 282.231 104.337 279.361V271.184H100.717V279.47C100.717 284.991 103.868 287.163 108.019 287.163Z" fill="#900182"/>
<path d="M121.028 268.772C122.507 268.772 123.335 267.851 123.335 266.673C123.335 265.543 122.507 264.59 121.043 264.59C119.611 264.59 118.778 265.543 118.778 266.673C118.778 267.835 119.627 268.772 121.028 268.772ZM122.882 286.694V271.184H119.231V286.694H122.882Z" fill="#900182"/>
<path d="M130.799 286.694V278.772C130.799 275.741 132.763 274.08 134.903 274.08C137.106 274.08 138.497 275.335 138.497 278.413V286.694H142.148V278.335C142.148 273.465 140.08 270.715 135.914 270.715C133.533 270.715 131.507 271.908 130.622 273.601V271.184H127.148V286.694H130.799Z" fill="#900182"/>
<path d="M152.502 287.163C155.023 287.163 157.075 286.017 158.086 284.085V286.694H161.554V271.184H158.086V273.809C157.086 271.882 155.023 270.715 152.487 270.715C148.336 270.715 145.2 274.413 145.2 278.939C145.2 283.496 148.31 287.163 152.502 287.163ZM153.377 283.783C150.919 283.783 148.82 281.955 148.82 278.939C148.82 276.028 150.872 274.095 153.377 274.095C155.909 274.095 157.935 276.241 157.935 278.939C157.935 281.684 155.924 283.783 153.377 283.783Z" fill="#900182"/>
<path d="M177.415 286.694V278.637H186.316V275.47H177.415V269.543H187.717V266.179H173.654V286.694H177.415Z" fill="#900182"/>
<path d="M197.771 287.163C202.552 287.163 205.979 283.512 205.979 278.939C205.979 274.397 202.552 270.715 197.787 270.715C193.037 270.715 189.625 274.413 189.625 278.939C189.625 283.496 193.047 287.163 197.771 287.163ZM197.802 283.767C195.193 283.767 193.245 281.746 193.245 278.939C193.245 276.147 195.193 274.095 197.802 274.095C200.412 274.095 202.36 276.147 202.36 278.939C202.36 281.746 200.412 283.767 197.802 283.767Z" fill="#900182"/>
<path d="M218.688 286.694V283.663H216.287C215.126 283.663 214.042 283.132 214.042 280.96V274.324H218.688V271.184H214.042V266.616L210.391 266.642V271.184H207.178V274.324H210.391V280.793C210.391 285.908 213.199 286.694 215.537 286.694H218.688Z" fill="#900182"/>
<path d="M228.684 287.163C233.466 287.163 236.893 283.512 236.893 278.939C236.893 274.397 233.466 270.715 228.7 270.715C223.95 270.715 220.539 274.413 220.539 278.939C220.539 283.496 223.96 287.163 228.684 287.163ZM228.716 283.767C226.106 283.767 224.158 281.746 224.158 278.939C224.158 276.147 226.106 274.095 228.716 274.095C231.325 274.095 233.273 276.147 233.273 278.939C233.273 281.746 231.325 283.767 228.716 283.767Z" fill="#900182"/>
<path d="M243.716 286.694V278.772C243.716 275.741 245.68 274.08 247.82 274.08C250.024 274.08 251.414 275.335 251.414 278.413V286.694H255.065V278.335C255.065 273.465 252.997 270.715 248.831 270.715C246.451 270.715 244.425 271.908 243.539 273.601V271.184H240.065V286.694H243.716Z" fill="#900182"/>
<path d="M265.42 287.163C267.94 287.163 269.992 286.017 271.003 284.085V286.694H274.472V271.184H271.003V273.809C270.003 271.882 267.94 270.715 265.404 270.715C261.253 270.715 258.117 274.413 258.117 278.939C258.117 283.496 261.227 287.163 265.42 287.163ZM266.295 283.783C263.836 283.783 261.737 281.955 261.737 278.939C261.737 276.028 263.789 274.095 266.295 274.095C268.826 274.095 270.852 276.241 270.852 278.939C270.852 281.684 268.841 283.783 266.295 283.783Z" fill="#900182"/>
<path d="M294.269 264.788L291.988 269.345H294.431L296.967 265.741L294.269 264.788ZM301.025 278.668C301.025 274.397 297.889 270.715 293.212 270.715C288.551 270.715 285.17 274.413 285.17 278.939C285.17 283.465 288.551 287.163 293.212 287.163C297.071 287.163 299.832 284.611 300.618 281.819H296.634C296.108 283.132 294.978 283.903 293.134 283.903C290.993 283.903 289.212 282.439 288.837 279.908H300.952C301.009 279.33 301.025 279.059 301.025 278.668ZM288.988 277.085C289.603 274.897 291.353 273.903 293.196 273.903C295.337 273.903 297.15 275.35 297.301 277.085H288.988Z" fill="#900182"/>
<path d="M318.487 287.163C322.586 287.163 325.758 284.991 325.758 279.47V271.184H322.122V279.361C322.122 282.199 320.914 283.767 318.471 283.767C316.039 283.767 314.805 282.231 314.805 279.361V271.184H311.185V279.47C311.185 284.991 314.336 287.163 318.487 287.163Z" fill="#900182"/>
<path d="M348.71 270.715C346.491 270.715 344.605 271.835 343.277 274.215C342.418 271.939 340.699 270.715 338.105 270.715C335.809 270.715 333.954 271.955 333.158 273.601L333.111 271.184H329.699V286.694H333.309V278.772C333.309 275.981 335.085 274.08 337.048 274.08C339.038 274.08 340.309 275.351 340.309 278.413V286.694H343.913V278.772C343.913 275.981 345.71 274.08 347.652 274.08C349.663 274.08 350.928 275.351 350.928 278.413V286.694H354.533V278.335C354.533 273.465 352.6 270.715 348.71 270.715Z" fill="#900182"/>
<path d="M371.791 287.163C375.53 287.163 378.306 285.502 378.306 282.095C378.306 278.804 375.806 277.866 372.593 277.387C369.921 276.965 369.348 276.585 369.348 275.423C369.348 274.491 370.041 273.705 371.608 273.705C373.301 273.705 374.207 274.517 374.28 275.668L377.858 275.694C377.858 272.741 375.338 270.715 371.593 270.715C367.806 270.715 365.754 272.647 365.754 275.502C365.754 278.715 368.322 279.908 371.306 280.298C373.421 280.616 374.582 280.991 374.582 282.304C374.582 283.481 373.707 284.267 371.822 284.267C369.739 284.267 368.681 283.194 368.624 281.778L365.124 281.762C365.124 284.491 367.233 287.163 371.791 287.163Z" fill="#900182"/>
<path d="M383.114 268.772C384.593 268.772 385.421 267.851 385.421 266.673C385.421 265.543 384.593 264.59 383.13 264.59C381.697 264.59 380.864 265.543 380.864 266.673C380.864 267.835 381.713 268.772 383.114 268.772ZM384.968 286.694V271.184H381.317V286.694H384.968Z" fill="#900182"/>
<path d="M394.818 287.163C398.557 287.163 401.333 285.502 401.333 282.095C401.333 278.804 398.833 277.866 395.62 277.387C392.948 276.965 392.375 276.585 392.375 275.423C392.375 274.491 393.068 273.705 394.635 273.705C396.328 273.705 397.234 274.517 397.307 275.668L400.885 275.694C400.885 272.741 398.364 270.715 394.62 270.715C390.833 270.715 388.781 272.647 388.781 275.502C388.781 278.715 391.349 279.908 394.333 280.298C396.448 280.616 397.609 280.991 397.609 282.304C397.609 283.481 396.734 284.267 394.849 284.267C392.765 284.267 391.708 283.194 391.651 281.778L388.151 281.762C388.151 284.491 390.26 287.163 394.818 287.163Z" fill="#900182"/>
<path d="M413.881 286.694V283.663H411.479C410.318 283.663 409.235 283.132 409.235 280.96V274.324H413.881V271.184H409.235V266.616L405.584 266.642V271.184H402.37V274.324H405.584V280.793C405.584 285.908 408.391 286.694 410.729 286.694H413.881Z" fill="#900182"/>
<path d="M431.585 278.668C431.585 274.397 428.45 270.715 423.773 270.715C419.111 270.715 415.731 274.413 415.731 278.939C415.731 283.465 419.111 287.163 423.773 287.163C427.632 287.163 430.392 284.611 431.179 281.819H427.194C426.668 283.132 425.538 283.903 423.694 283.903C421.554 283.903 419.773 282.439 419.398 279.908H431.512C431.569 279.33 431.585 279.059 431.585 278.668ZM419.549 277.085C420.163 274.897 421.913 273.903 423.757 273.903C425.898 273.903 427.71 275.351 427.861 277.085H419.549Z" fill="#900182"/>
<path d="M453.559 270.715C451.34 270.715 449.455 271.835 448.127 274.215C447.268 271.939 445.549 270.715 442.955 270.715C440.658 270.715 438.804 271.955 438.007 273.601L437.96 271.184H434.549V286.694H438.158V278.772C438.158 275.981 439.934 274.08 441.898 274.08C443.887 274.08 445.158 275.351 445.158 278.413V286.694H448.762V278.772C448.762 275.981 450.559 274.08 452.502 274.08C454.512 274.08 455.778 275.351 455.778 278.413V286.694H459.382V278.335C459.382 273.465 457.45 270.715 453.559 270.715Z" fill="#900182"/>
<path d="M469.735 287.163C472.256 287.163 474.308 286.017 475.319 284.085V286.694H478.787V271.184H475.319V273.809C474.319 271.882 472.256 270.715 469.72 270.715C465.569 270.715 462.433 274.413 462.433 278.939C462.433 283.496 465.542 287.163 469.735 287.163ZM470.61 283.783C468.152 283.783 466.053 281.955 466.053 278.939C466.053 276.028 468.105 274.095 470.61 274.095C473.141 274.095 475.167 276.241 475.167 278.939C475.167 281.684 473.157 283.783 470.61 283.783Z" fill="#900182"/>
<path d="M496.981 287.163C499.58 287.163 501.434 285.715 502.356 284.085V286.694H505.825V265.455H502.189V272.106L502.262 273.72C501.45 272.257 499.564 270.715 497.028 270.715C492.502 270.715 489.486 274.413 489.486 278.939C489.486 283.496 492.58 287.163 496.981 287.163ZM497.648 283.798C494.976 283.798 493.075 281.684 493.075 278.939C493.075 276.116 495.069 274.095 497.648 274.095C500.21 274.095 502.22 276.225 502.22 278.939C502.22 281.684 500.194 283.798 497.648 283.798Z" fill="#900182"/>
<path d="M524.839 278.668C524.839 274.397 521.703 270.715 517.026 270.715C512.365 270.715 508.984 274.413 508.984 278.939C508.984 283.465 512.365 287.163 517.026 287.163C520.885 287.163 523.646 284.611 524.432 281.819H520.448C519.922 283.132 518.792 283.903 516.948 283.903C514.807 283.903 513.026 282.439 512.651 279.908H524.766C524.823 279.33 524.839 279.059 524.839 278.668ZM512.802 277.085C513.417 274.897 515.167 273.903 517.01 273.903C519.151 273.903 520.964 275.351 521.115 277.085H512.802Z" fill="#900182"/>
<path d="M538.978 286.694V265.439H535.327V286.694H538.978Z" fill="#900182"/>
<path d="M549.447 287.163C551.968 287.163 554.02 286.017 555.03 284.085V286.694H558.499V271.184H555.03V273.809C554.03 271.882 551.968 270.715 549.431 270.715C545.28 270.715 542.145 274.413 542.145 278.939C542.145 283.496 545.254 287.163 549.447 287.163ZM550.322 283.783C547.864 283.783 545.765 281.955 545.765 278.939C545.765 276.028 547.817 274.095 550.322 274.095C552.853 274.095 554.879 276.241 554.879 278.939C554.879 281.684 552.869 283.783 550.322 283.783Z" fill="#900182"/>
<path d="M568.355 287.163C572.095 287.163 574.871 285.502 574.871 282.095C574.871 278.804 572.371 277.866 569.157 277.387C566.485 276.965 565.912 276.585 565.912 275.423C565.912 274.491 566.605 273.705 568.173 273.705C569.866 273.705 570.772 274.517 570.845 275.668L574.423 275.694C574.423 272.741 571.902 270.715 568.157 270.715C564.371 270.715 562.319 272.647 562.319 275.502C562.319 278.715 564.886 279.908 567.871 280.298C569.985 280.616 571.147 280.991 571.147 282.304C571.147 283.481 570.272 284.267 568.386 284.267C566.303 284.267 565.246 283.194 565.188 281.778L561.688 281.762C561.688 284.491 563.798 287.163 568.355 287.163Z" fill="#900182"/>
<path d="M592.637 278.668C592.637 274.397 589.502 270.715 584.825 270.715C580.163 270.715 576.783 274.413 576.783 278.939C576.783 283.465 580.163 287.163 584.825 287.163C588.684 287.163 591.444 284.611 592.231 281.819H588.247C587.72 283.132 586.59 283.903 584.747 283.903C582.606 283.903 580.825 282.439 580.45 279.908H592.564C592.622 279.33 592.637 279.059 592.637 278.668ZM580.601 277.085C581.215 274.897 582.965 273.903 584.809 273.903C586.95 273.903 588.762 275.351 588.913 277.085H580.601Z" fill="#900182"/>
<path d="M599.252 286.694V279.481C599.252 276.179 600.96 274.324 603.46 274.324H604.924V271.184H603.267C601.246 271.184 599.825 272.288 599.101 273.991V271.184H595.601V286.694H599.252Z" fill="#900182"/>
<path d="M23.6051 299.617C21.3864 299.617 19.501 300.737 18.1729 303.117C17.3135 300.841 15.5947 299.617 13.001 299.617C10.7041 299.617 8.84994 300.857 8.05306 302.503L8.00618 300.086H4.59473V315.596H8.2041V307.674C8.2041 304.883 9.98014 302.982 11.9437 302.982C13.9333 302.982 15.2041 304.253 15.2041 307.315V315.596H18.8083V307.674C18.8083 304.883 20.6051 302.982 22.5479 302.982C24.5583 302.982 25.8239 304.253 25.8239 307.315V315.596H29.4281V307.237C29.4281 302.367 27.4958 299.617 23.6051 299.617Z" fill="#900182"/>
<path d="M41.578 293.69L39.2967 298.247H41.7394L44.2759 294.643L41.578 293.69ZM48.3332 307.57C48.3332 303.3 45.1978 299.617 40.5207 299.617C35.8592 299.617 32.479 303.315 32.479 307.841C32.479 312.367 35.8592 316.065 40.5207 316.065C44.38 316.065 47.1405 313.513 47.9269 310.721H43.9425C43.4165 312.034 42.2863 312.805 40.4425 312.805C38.3019 312.805 36.5207 311.341 36.1457 308.81H48.2603C48.3175 308.232 48.3332 307.961 48.3332 307.57ZM36.2967 305.987C36.9113 303.8 38.6613 302.805 40.505 302.805C42.6457 302.805 44.4582 304.253 44.6092 305.987H36.2967Z" fill="#900182"/>
<path d="M57.6925 316.065C60.2915 316.065 62.1457 314.617 63.0675 312.987V315.596H66.5363V294.357H62.9009V301.008L62.9738 302.622C62.1613 301.159 60.2759 299.617 57.7394 299.617C53.2134 299.617 50.1978 303.315 50.1978 307.841C50.1978 312.398 53.2915 316.065 57.6925 316.065ZM58.3592 312.701C55.6873 312.701 53.7863 310.586 53.7863 307.841C53.7863 305.018 55.7811 302.997 58.3592 302.997C60.9217 302.997 62.9321 305.128 62.9321 307.841C62.9321 310.586 60.9061 312.701 58.3592 312.701Z" fill="#900182"/>
<path d="M72.5918 297.674C74.071 297.674 74.8991 296.753 74.8991 295.576C74.8991 294.445 74.071 293.492 72.6074 293.492C71.1751 293.492 70.3418 294.445 70.3418 295.576C70.3418 296.737 71.1908 297.674 72.5918 297.674ZM74.446 315.596V300.086H70.7949V315.596H74.446Z" fill="#900182"/>
<path d="M85.6232 316.065C89.6076 316.065 92.5347 313.513 93.3315 309.924H89.6232C88.9409 311.857 87.4045 312.685 85.6388 312.685C83.4045 312.685 81.2326 310.904 81.2326 307.841C81.2326 304.794 83.3888 303.013 85.6388 303.013C87.4045 303.013 88.9253 303.846 89.6232 305.565H93.3472C92.4722 302.154 89.6232 299.617 85.6232 299.617C80.993 299.617 77.6128 303.331 77.6128 307.841C77.6128 312.367 80.993 316.065 85.6232 316.065Z" fill="#900182"/>
<path d="M103.326 316.065C108.108 316.065 111.535 312.414 111.535 307.841C111.535 303.299 108.108 299.617 103.342 299.617C98.5921 299.617 95.1807 303.315 95.1807 307.841C95.1807 312.398 98.6025 316.065 103.326 316.065ZM103.358 312.669C100.748 312.669 98.8005 310.648 98.8005 307.841C98.8005 305.049 100.748 302.997 103.358 302.997C105.967 302.997 107.915 305.049 107.915 307.841C107.915 310.648 105.967 312.669 103.358 312.669Z" fill="#900182"/>
<path d="M137.471 320.893V300.086H134.003V302.695C133.096 301.159 131.211 299.617 128.674 299.617C124.148 299.617 121.133 303.315 121.133 307.841C121.133 312.398 124.227 316.065 128.628 316.065C131.227 316.065 133.081 314.617 133.883 313.06L133.805 314.633V320.893H137.471ZM129.294 312.701C126.622 312.701 124.721 310.586 124.721 307.841C124.721 305.018 126.716 302.997 129.294 302.997C131.857 302.997 133.867 305.128 133.867 307.841C133.867 310.586 131.841 312.701 129.294 312.701Z" fill="#900182"/>
<path d="M148.704 316.065C152.803 316.065 155.975 313.893 155.975 308.372V300.086H152.339V308.263C152.339 311.102 151.131 312.669 148.688 312.669C146.256 312.669 145.022 311.133 145.022 308.263V300.086H141.402V308.372C141.402 313.893 144.553 316.065 148.704 316.065Z" fill="#900182"/>
<path d="M174.671 307.57C174.671 303.299 171.536 299.617 166.859 299.617C162.197 299.617 158.817 303.315 158.817 307.841C158.817 312.367 162.197 316.065 166.859 316.065C170.718 316.065 173.479 313.513 174.265 310.721H170.281C169.755 312.034 168.624 312.805 166.781 312.805C164.64 312.805 162.859 311.341 162.484 308.81H174.598C174.656 308.232 174.671 307.961 174.671 307.57ZM162.635 305.987C163.249 303.799 164.999 302.805 166.843 302.805C168.984 302.805 170.796 304.253 170.947 305.987H162.635Z" fill="#900182"/>
<path d="M193.16 293.69L190.878 298.247H193.321L195.858 294.643L193.16 293.69ZM199.915 307.57C199.915 303.3 196.78 299.617 192.102 299.617C187.441 299.617 184.061 303.315 184.061 307.841C184.061 312.367 187.441 316.065 192.102 316.065C195.962 316.065 198.722 313.513 199.509 310.721H195.524C194.998 312.034 193.868 312.805 192.024 312.805C189.884 312.805 188.102 311.341 187.727 308.81H199.842C199.899 308.232 199.915 307.961 199.915 307.57ZM187.878 305.987C188.493 303.8 190.243 302.805 192.087 302.805C194.227 302.805 196.04 304.253 196.191 305.987H187.878Z" fill="#900182"/>
<path d="M217.377 316.065C221.476 316.065 224.648 313.893 224.648 308.372V300.086H221.013V308.263C221.013 311.102 219.804 312.669 217.362 312.669C214.929 312.669 213.695 311.133 213.695 308.263V300.086H210.075V308.372C210.075 313.893 213.226 316.065 217.377 316.065Z" fill="#900182"/>
<path d="M234.173 316.065C237.912 316.065 240.688 314.404 240.688 310.997C240.688 307.706 238.188 306.768 234.975 306.289C232.303 305.867 231.73 305.487 231.73 304.326C231.73 303.393 232.423 302.607 233.99 302.607C235.683 302.607 236.589 303.419 236.662 304.57L240.24 304.596C240.24 301.643 237.72 299.617 233.975 299.617C230.188 299.617 228.136 301.549 228.136 304.404C228.136 307.617 230.704 308.81 233.688 309.201C235.803 309.518 236.964 309.893 236.964 311.206C236.964 312.383 236.089 313.169 234.204 313.169C232.121 313.169 231.063 312.096 231.006 310.68L227.506 310.664C227.506 313.393 229.615 316.065 234.173 316.065Z" fill="#900182"/>
<path d="M249.902 316.065C252.423 316.065 254.475 314.919 255.486 312.987V315.596H258.955V300.086H255.486V302.711C254.486 300.784 252.423 299.617 249.887 299.617C245.736 299.617 242.6 303.315 242.6 307.841C242.6 312.398 245.71 316.065 249.902 316.065ZM250.777 312.685C248.319 312.685 246.22 310.857 246.22 307.841C246.22 304.93 248.272 302.997 250.777 302.997C253.309 302.997 255.335 305.143 255.335 307.841C255.335 310.586 253.324 312.685 250.777 312.685Z" fill="#900182"/>
<path d="M269.623 316.065C272.222 316.065 274.077 314.617 274.998 312.987V315.596H278.467V294.357H274.832V301.008L274.905 302.622C274.092 301.159 272.207 299.617 269.67 299.617C265.144 299.617 262.129 303.315 262.129 307.841C262.129 312.398 265.222 316.065 269.623 316.065ZM270.29 312.701C267.618 312.701 265.717 310.586 265.717 307.841C265.717 305.018 267.712 302.997 270.29 302.997C272.853 302.997 274.863 305.128 274.863 307.841C274.863 310.586 272.837 312.701 270.29 312.701Z" fill="#900182"/>
<path d="M289.773 316.065C294.554 316.065 297.981 312.414 297.981 307.841C297.981 303.299 294.554 299.617 289.788 299.617C285.038 299.617 281.627 303.315 281.627 307.841C281.627 312.398 285.049 316.065 289.773 316.065ZM289.804 312.669C287.194 312.669 285.247 310.648 285.247 307.841C285.247 305.049 287.194 302.997 289.804 302.997C292.413 302.997 294.361 305.049 294.361 307.841C294.361 310.648 292.413 312.669 289.804 312.669Z" fill="#900182"/>
<path d="M312.329 320.893V314.888L312.256 313.091C313.282 314.888 315.256 316.065 317.522 316.065C321.85 316.065 325.032 312.398 325.032 307.841C325.032 303.315 321.881 299.633 317.475 299.633C315.24 299.633 313.267 300.826 312.152 302.695V300.086H308.678V320.893H312.329ZM316.855 312.701C314.381 312.701 312.287 310.68 312.287 307.841C312.287 305.128 314.324 302.997 316.839 302.997C319.36 302.997 321.412 304.93 321.412 307.841C321.412 310.846 319.313 312.701 316.855 312.701Z" fill="#900182"/>
<path d="M334.41 316.065C336.93 316.065 338.982 314.919 339.993 312.987V315.596H343.462V300.086H339.993V302.711C338.993 300.784 336.93 299.617 334.394 299.617C330.243 299.617 327.107 303.315 327.107 307.841C327.107 312.398 330.217 316.065 334.41 316.065ZM335.285 312.685C332.826 312.685 330.727 310.857 330.727 307.841C330.727 304.93 332.779 302.997 335.285 302.997C337.816 302.997 339.842 305.143 339.842 307.841C339.842 310.586 337.831 312.685 335.285 312.685Z" fill="#900182"/>
<path d="M351.386 315.596V308.383C351.386 305.081 353.094 303.227 355.594 303.227H357.058V300.086H355.401C353.38 300.086 351.959 301.19 351.235 302.893V300.086H347.735V315.596H351.386Z" fill="#900182"/>
<path d="M365.866 316.065C368.387 316.065 370.439 314.919 371.449 312.987V315.596H374.918V300.086H371.449V302.711C370.449 300.784 368.387 299.617 365.85 299.617C361.699 299.617 358.564 303.315 358.564 307.841C358.564 312.398 361.673 316.065 365.866 316.065ZM366.741 312.685C364.282 312.685 362.184 310.857 362.184 307.841C362.184 304.93 364.236 302.997 366.741 302.997C369.272 302.997 371.298 305.143 371.298 307.841C371.298 310.586 369.288 312.685 366.741 312.685Z" fill="#900182"/>
<path d="M393.69 316.065C397.789 316.065 400.961 313.893 400.961 308.372V300.086H397.325V308.263C397.325 311.102 396.117 312.669 393.674 312.669C391.242 312.669 390.007 311.133 390.007 308.263V300.086H386.388V308.372C386.388 313.893 389.539 316.065 393.69 316.065Z" fill="#900182"/>
<path d="M423.912 299.617C421.694 299.617 419.808 300.737 418.48 303.117C417.621 300.841 415.902 299.617 413.308 299.617C411.011 299.617 409.157 300.857 408.36 302.503L408.313 300.086H404.902V315.596H408.511V307.674C408.511 304.883 410.287 302.982 412.251 302.982C414.24 302.982 415.511 304.253 415.511 307.315V315.596H419.115V307.674C419.115 304.883 420.912 302.982 422.855 302.982C424.865 302.982 426.131 304.253 426.131 307.315V315.596H429.735V307.237C429.735 302.367 427.803 299.617 423.912 299.617Z" fill="#900182"/>
<path d="M440.088 316.065C442.609 316.065 444.661 314.919 445.672 312.987V315.596H449.141V300.086H445.672V302.711C444.672 300.784 442.609 299.617 440.073 299.617C435.922 299.617 432.786 303.315 432.786 307.841C432.786 312.398 435.896 316.065 440.088 316.065ZM440.963 312.685C438.505 312.685 436.406 310.857 436.406 307.841C436.406 304.93 438.458 302.997 440.963 302.997C443.495 302.997 445.521 305.143 445.521 307.841C445.521 310.586 443.51 312.685 440.963 312.685Z" fill="#900182"/>
<path d="M467.141 316.065C469.662 316.065 471.714 314.919 472.725 312.987V315.596H476.194V300.086H472.725V302.711C471.725 300.784 469.662 299.617 467.126 299.617C462.975 299.617 459.839 303.315 459.839 307.841C459.839 312.398 462.949 316.065 467.141 316.065ZM468.016 312.685C465.558 312.685 463.459 310.857 463.459 307.841C463.459 304.93 465.511 302.997 468.016 302.997C470.548 302.997 472.574 305.143 472.574 307.841C472.574 310.586 470.563 312.685 468.016 312.685Z" fill="#900182"/>
<path d="M499.477 299.617C497.258 299.617 495.373 300.737 494.045 303.117C493.185 300.841 491.467 299.617 488.873 299.617C486.576 299.617 484.722 300.857 483.925 302.503L483.878 300.086H480.467V315.596H484.076V307.674C484.076 304.883 485.852 302.982 487.816 302.982C489.805 302.982 491.076 304.253 491.076 307.315V315.596H494.68V307.674C494.68 304.883 496.477 302.982 498.42 302.982C500.43 302.982 501.696 304.253 501.696 307.315V315.596H505.3V307.237C505.3 302.367 503.368 299.617 499.477 299.617Z" fill="#900182"/>
<path d="M513.101 320.893V314.888L513.028 313.091C514.054 314.888 516.028 316.065 518.294 316.065C522.622 316.065 525.804 312.398 525.804 307.841C525.804 303.315 522.653 299.633 518.247 299.633C516.012 299.633 514.038 300.826 512.924 302.695V300.086H509.45V320.893H513.101ZM517.627 312.701C515.153 312.701 513.059 310.68 513.059 307.841C513.059 305.128 515.096 302.997 517.611 302.997C520.132 302.997 522.184 304.93 522.184 307.841C522.184 310.846 520.085 312.701 517.627 312.701Z" fill="#900182"/>
<path d="M532.629 315.596V294.341H528.978V315.596H532.629Z" fill="#900182"/>
<path d="M543.098 316.065C545.619 316.065 547.671 314.919 548.682 312.987V315.596H552.15V300.086H548.682V302.711C547.682 300.784 545.619 299.617 543.083 299.617C538.932 299.617 535.796 303.315 535.796 307.841C535.796 312.398 538.906 316.065 543.098 316.065ZM543.973 312.685C541.515 312.685 539.416 310.857 539.416 307.841C539.416 304.93 541.468 302.997 543.973 302.997C546.504 302.997 548.531 305.143 548.531 307.841C548.531 310.586 546.52 312.685 543.973 312.685Z" fill="#900182"/>
<path d="M12.1831 344.499L18.4019 328.988H14.4956L10.8862 338.374L10.4956 339.988L10.0894 338.358L6.47998 328.988H2.60498L8.79248 344.499H12.1831Z" fill="#900182"/>
<path d="M26.8729 344.967C29.3937 344.967 31.4458 343.821 32.4562 341.889V344.499H35.925V328.988H32.4562V331.613C31.4562 329.686 29.3937 328.519 26.8573 328.519C22.7062 328.519 19.5708 332.217 19.5708 336.743C19.5708 341.301 22.6802 344.967 26.8729 344.967ZM27.7479 341.587C25.2896 341.587 23.1906 339.759 23.1906 336.743C23.1906 333.832 25.2427 331.9 27.7479 331.9C30.2791 331.9 32.3052 334.045 32.3052 336.743C32.3052 339.488 30.2948 341.587 27.7479 341.587Z" fill="#900182"/>
<path d="M43.849 344.499V337.285C43.849 333.983 45.5574 332.129 48.0574 332.129H49.5209V328.988H47.8647C45.8438 328.988 44.422 330.092 43.698 331.795V328.988H40.198V344.499H43.849Z" fill="#900182"/>
<path d="M53.9229 326.577C55.402 326.577 56.2301 325.655 56.2301 324.478C56.2301 323.348 55.402 322.394 53.9385 322.394C52.5062 322.394 51.6729 323.348 51.6729 324.478C51.6729 325.639 52.5218 326.577 53.9229 326.577ZM55.777 344.499V328.988H52.126V344.499H55.777Z" fill="#900182"/>
<path d="M74.798 336.473C74.798 332.202 71.6626 328.519 66.9855 328.519C62.3241 328.519 58.9438 332.217 58.9438 336.743C58.9438 341.269 62.3241 344.967 66.9855 344.967C70.8449 344.967 73.6053 342.415 74.3918 339.624H70.4074C69.8813 340.936 68.7511 341.707 66.9074 341.707C64.7668 341.707 62.9855 340.243 62.6105 337.712H74.7251C74.7824 337.134 74.798 336.863 74.798 336.473ZM62.7616 334.889C63.3761 332.702 65.1261 331.707 66.9699 331.707C69.1105 331.707 70.923 333.155 71.0741 334.889H62.7616Z" fill="#900182"/>
<path d="M84.1574 344.967C86.7563 344.967 88.6105 343.519 89.5324 341.889V344.498H93.0011V323.259H89.3657V329.91L89.4386 331.525C88.6261 330.061 86.7407 328.519 84.2043 328.519C79.6782 328.519 76.6626 332.217 76.6626 336.743C76.6626 341.301 79.7563 344.967 84.1574 344.967ZM84.8241 341.603C82.1522 341.603 80.2511 339.488 80.2511 336.743C80.2511 333.92 82.2459 331.9 84.8241 331.9C87.3866 331.9 89.397 334.03 89.397 336.743C89.397 339.488 87.3709 341.603 84.8241 341.603Z" fill="#900182"/>
<path d="M103.463 344.967C105.984 344.967 108.036 343.821 109.046 341.889V344.499H112.515V328.988H109.046V331.613C108.046 329.686 105.984 328.519 103.447 328.519C99.2963 328.519 96.1609 332.217 96.1609 336.743C96.1609 341.301 99.2703 344.967 103.463 344.967ZM104.338 341.587C101.88 341.587 99.7807 339.759 99.7807 336.743C99.7807 333.832 101.833 331.9 104.338 331.9C106.869 331.9 108.895 334.045 108.895 336.743C108.895 339.488 106.885 341.587 104.338 341.587Z" fill="#900182"/>
<path d="M123.184 344.967C125.783 344.967 127.637 343.519 128.559 341.889V344.498H132.028V323.259H128.392V329.91L128.465 331.525C127.653 330.061 125.767 328.519 123.231 328.519C118.705 328.519 115.689 332.217 115.689 336.743C115.689 341.301 118.783 344.967 123.184 344.967ZM123.851 341.603C121.179 341.603 119.278 339.488 119.278 336.743C119.278 333.92 121.273 331.9 123.851 331.9C126.413 331.9 128.424 334.03 128.424 336.743C128.424 339.488 126.398 341.603 123.851 341.603Z" fill="#900182"/>
<path d="M151.041 336.473C151.041 332.202 147.906 328.519 143.229 328.519C138.567 328.519 135.187 332.217 135.187 336.743C135.187 341.269 138.567 344.967 143.229 344.967C147.088 344.967 149.849 342.415 150.635 339.624H146.651C146.125 340.936 144.995 341.707 143.151 341.707C141.01 341.707 139.229 340.243 138.854 337.712H150.969C151.026 337.134 151.041 336.863 151.041 336.473ZM139.005 334.889C139.62 332.702 141.37 331.707 143.213 331.707C145.354 331.707 147.166 333.155 147.317 334.889H139.005Z" fill="#900182"/>
<path d="M167.925 344.967C170.524 344.967 172.379 343.519 173.3 341.889V344.498H176.769V323.259H173.134V329.91L173.207 331.525C172.394 330.061 170.509 328.519 167.972 328.519C163.446 328.519 160.431 332.217 160.431 336.743C160.431 341.301 163.524 344.967 167.925 344.967ZM168.592 341.603C165.92 341.603 164.019 339.488 164.019 336.743C164.019 333.92 166.014 331.9 168.592 331.9C171.155 331.9 173.165 334.03 173.165 336.743C173.165 339.488 171.139 341.603 168.592 341.603Z" fill="#900182"/>
<path d="M195.783 336.473C195.783 332.202 192.648 328.519 187.971 328.519C183.309 328.519 179.929 332.217 179.929 336.743C179.929 341.269 183.309 344.967 187.971 344.967C191.83 344.967 194.59 342.415 195.377 339.624H191.392C190.866 340.936 189.736 341.707 187.892 341.707C185.752 341.707 183.971 340.243 183.596 337.712H195.71C195.767 337.134 195.783 336.863 195.783 336.473ZM183.747 334.889C184.361 332.702 186.111 331.707 187.955 331.707C190.096 331.707 191.908 333.155 192.059 334.889H183.747Z" fill="#900182"/>
<path d="M215.808 344.499V341.467H213.407C212.245 341.467 211.162 340.936 211.162 338.764V332.129H215.808V328.988H211.162V324.42L207.511 324.446V328.988H204.297V332.129H207.511V338.597C207.511 343.712 210.318 344.499 212.657 344.499H215.808Z" fill="#900182"/>
<path d="M222.408 344.499V337.285C222.408 333.983 224.117 332.129 226.617 332.129H228.08V328.988H226.424C224.403 328.988 222.981 330.092 222.257 331.795V328.988H218.757V344.499H222.408Z" fill="#900182"/>
<path d="M236.889 344.967C239.409 344.967 241.461 343.821 242.472 341.889V344.499H245.941V328.988H242.472V331.613C241.472 329.686 239.409 328.519 236.873 328.519C232.722 328.519 229.586 332.217 229.586 336.743C229.586 341.301 232.696 344.967 236.889 344.967ZM237.764 341.587C235.305 341.587 233.206 339.759 233.206 336.743C233.206 333.832 235.258 331.9 237.764 331.9C240.295 331.9 242.321 334.045 242.321 336.743C242.321 339.488 240.31 341.587 237.764 341.587Z" fill="#900182"/>
<path d="M259.75 344.499V341.467H257.349C256.188 341.467 255.104 340.936 255.104 338.764V332.129H259.75V328.988H255.104V324.42L251.453 324.446V328.988H248.24V332.129H251.453V338.597C251.453 343.712 254.261 344.499 256.599 344.499H259.75Z" fill="#900182"/>
<path d="M268.903 344.967C271.424 344.967 273.476 343.821 274.486 341.889V344.499H277.955V328.988H274.486V331.613C273.486 329.686 271.424 328.519 268.887 328.519C264.736 328.519 261.601 332.217 261.601 336.743C261.601 341.301 264.71 344.967 268.903 344.967ZM269.778 341.587C267.32 341.587 265.221 339.759 265.221 336.743C265.221 333.832 267.273 331.9 269.778 331.9C272.309 331.9 274.335 334.045 274.335 336.743C274.335 339.488 272.325 341.587 269.778 341.587Z" fill="#900182"/>
<path d="M301.238 328.519C299.02 328.519 297.134 329.639 295.806 332.019C294.947 329.743 293.228 328.519 290.634 328.519C288.337 328.519 286.483 329.759 285.686 331.405L285.639 328.988H282.228V344.499H285.837V336.577C285.837 333.785 287.613 331.884 289.577 331.884C291.567 331.884 292.837 333.155 292.837 336.217V344.499H296.442V336.577C296.442 333.785 298.238 331.884 300.181 331.884C302.192 331.884 303.457 333.155 303.457 336.217V344.499H307.061V336.139C307.061 331.269 305.129 328.519 301.238 328.519Z" fill="#900182"/>
<path d="M325.966 336.473C325.966 332.202 322.831 328.519 318.154 328.519C313.493 328.519 310.112 332.217 310.112 336.743C310.112 341.269 313.493 344.967 318.154 344.967C322.013 344.967 324.774 342.415 325.56 339.624H321.576C321.05 340.936 319.92 341.707 318.076 341.707C315.935 341.707 314.154 340.243 313.779 337.712H325.894C325.951 337.134 325.966 336.863 325.966 336.473ZM313.93 334.889C314.545 332.702 316.295 331.707 318.138 331.707C320.279 331.707 322.091 333.155 322.243 334.889H313.93Z" fill="#900182"/>
<path d="M332.581 344.499V336.577C332.581 333.545 334.545 331.884 336.685 331.884C338.889 331.884 340.279 333.139 340.279 336.217V344.499H343.93V336.139C343.93 331.269 341.862 328.519 337.696 328.519C335.316 328.519 333.29 329.712 332.404 331.405V328.988H328.93V344.499H332.581Z" fill="#900182"/>
<path d="M357.618 344.499V341.467H355.217C354.055 341.467 352.972 340.936 352.972 338.764V332.129H357.618V328.988H352.972V324.42L349.321 324.446V328.988H346.107V332.129H349.321V338.597C349.321 343.712 352.128 344.499 354.467 344.499H357.618Z" fill="#900182"/>
<path d="M367.614 344.967C372.396 344.967 375.823 341.316 375.823 336.743C375.823 332.202 372.396 328.519 367.63 328.519C362.88 328.519 359.469 332.217 359.469 336.743C359.469 341.301 362.89 344.967 367.614 344.967ZM367.646 341.571C365.036 341.571 363.088 339.551 363.088 336.743C363.088 333.952 365.036 331.9 367.646 331.9C370.255 331.9 372.203 333.952 372.203 336.743C372.203 339.551 370.255 341.571 367.646 341.571Z" fill="#900182"/>
<path d="M384.578 344.967C388.318 344.967 391.094 343.306 391.094 339.9C391.094 336.608 388.594 335.67 385.38 335.191C382.708 334.769 382.136 334.389 382.136 333.228C382.136 332.295 382.828 331.509 384.396 331.509C386.089 331.509 386.995 332.321 387.068 333.473L390.646 333.499C390.646 330.545 388.125 328.519 384.38 328.519C380.594 328.519 378.542 330.452 378.542 333.306C378.542 336.519 381.11 337.712 384.094 338.103C386.208 338.42 387.37 338.795 387.37 340.108C387.37 341.285 386.495 342.071 384.61 342.071C382.526 342.071 381.469 340.999 381.412 339.582L377.912 339.566C377.912 342.295 380.021 344.967 384.578 344.967Z" fill="#900182"/>
<path d="M416.385 336.473C416.385 332.202 413.25 328.519 408.572 328.519C403.911 328.519 400.531 332.217 400.531 336.743C400.531 341.269 403.911 344.967 408.572 344.967C412.432 344.967 415.192 342.415 415.979 339.624H411.994C411.468 340.936 410.338 341.707 408.494 341.707C406.354 341.707 404.572 340.243 404.197 337.712H416.312C416.369 337.134 416.385 336.863 416.385 336.473ZM404.348 334.889C404.963 332.702 406.713 331.707 408.557 331.707C410.697 331.707 412.51 333.155 412.661 334.889H404.348Z" fill="#900182"/>
<path d="M424.932 344.967C428.671 344.967 431.447 343.306 431.447 339.9C431.447 336.608 428.947 335.67 425.734 335.191C423.062 334.769 422.489 334.389 422.489 333.228C422.489 332.295 423.182 331.509 424.75 331.509C426.442 331.509 427.348 332.321 427.421 333.473L431 333.499C431 330.545 428.479 328.519 424.734 328.519C420.947 328.519 418.895 330.452 418.895 333.306C418.895 336.519 421.463 337.712 424.447 338.103C426.562 338.42 427.723 338.795 427.723 340.108C427.723 341.285 426.848 342.071 424.963 342.071C422.88 342.071 421.822 340.999 421.765 339.582L418.265 339.566C418.265 342.295 420.375 344.967 424.932 344.967Z" fill="#900182"/>
<path d="M443.995 344.499V341.467H441.594C440.432 341.467 439.349 340.936 439.349 338.764V332.129H443.995V328.988H439.349V324.42L435.698 324.446V328.988H432.484V332.129H435.698V338.597C435.698 343.712 438.505 344.499 440.844 344.499H443.995Z" fill="#900182"/>
<path d="M454.944 322.592L452.663 327.15H455.106L457.642 323.545L454.944 322.592ZM461.699 336.472C461.699 332.202 458.564 328.519 453.887 328.519C449.225 328.519 445.845 332.217 445.845 336.743C445.845 341.269 449.225 344.967 453.887 344.967C457.746 344.967 460.507 342.415 461.293 339.624H457.309C456.783 340.936 455.653 341.707 453.809 341.707C451.668 341.707 449.887 340.243 449.512 337.712H461.626C461.684 337.134 461.699 336.863 461.699 336.472ZM449.663 334.889C450.278 332.702 452.028 331.707 453.871 331.707C456.012 331.707 457.824 333.155 457.975 334.889H449.663Z" fill="#900182"/>
<path d="M474.199 344.499V341.467H471.798C470.637 341.467 469.554 340.936 469.554 338.764V332.129H474.199V328.988H469.554V324.42L465.903 324.446V328.988H462.689V332.129H465.903V338.597C465.903 343.712 468.71 344.499 471.048 344.499H474.199Z" fill="#900182"/>
<path d="M478.946 326.577C480.425 326.577 481.253 325.655 481.253 324.478C481.253 323.348 480.425 322.394 478.961 322.394C477.529 322.394 476.696 323.348 476.696 324.478C476.696 325.639 477.545 326.577 478.946 326.577ZM480.8 344.499V328.988H477.149V344.499H480.8Z" fill="#900182"/>
<path d="M491.977 344.967C495.962 344.967 498.889 342.415 499.686 338.827H495.977C495.295 340.759 493.759 341.587 491.993 341.587C489.759 341.587 487.587 339.806 487.587 336.743C487.587 333.696 489.743 331.915 491.993 331.915C493.759 331.915 495.28 332.749 495.977 334.467H499.701C498.826 331.056 495.977 328.519 491.977 328.519C487.347 328.519 483.967 332.233 483.967 336.743C483.967 341.269 487.347 344.967 491.977 344.967Z" fill="#900182"/>
<path d="M509.681 344.967C514.462 344.967 517.889 341.316 517.889 336.743C517.889 332.202 514.462 328.519 509.696 328.519C504.946 328.519 501.535 332.217 501.535 336.743C501.535 341.301 504.957 344.967 509.681 344.967ZM509.712 341.571C507.103 341.571 505.155 339.551 505.155 336.743C505.155 333.952 507.103 331.9 509.712 331.9C512.321 331.9 514.269 333.952 514.269 336.743C514.269 339.551 512.321 341.571 509.712 341.571Z" fill="#900182"/>
<path d="M526.645 344.967C530.384 344.967 533.16 343.306 533.16 339.9C533.16 336.608 530.66 335.67 527.447 335.191C524.775 334.769 524.202 334.389 524.202 333.228C524.202 332.295 524.895 331.509 526.462 331.509C528.155 331.509 529.061 332.321 529.134 333.473L532.712 333.499C532.712 330.545 530.192 328.519 526.447 328.519C522.66 328.519 520.608 330.452 520.608 333.306C520.608 336.519 523.176 337.712 526.16 338.103C528.275 338.42 529.436 338.795 529.436 340.108C529.436 341.285 528.561 342.071 526.676 342.071C524.593 342.071 523.535 340.999 523.478 339.582L519.978 339.566C519.978 342.295 522.087 344.967 526.645 344.967Z" fill="#900182"/>
<path d="M558.451 336.473C558.451 332.202 555.316 328.519 550.639 328.519C545.977 328.519 542.597 332.217 542.597 336.743C542.597 341.269 545.977 344.967 550.639 344.967C554.498 344.967 557.259 342.415 558.045 339.624H554.061C553.535 340.936 552.404 341.707 550.561 341.707C548.42 341.707 546.639 340.243 546.264 337.712H558.378C558.436 337.134 558.451 336.863 558.451 336.473ZM546.415 334.889C547.029 332.702 548.779 331.707 550.623 331.707C552.764 331.707 554.576 333.155 554.727 334.889H546.415Z" fill="#900182"/>
<path d="M23.6051 357.422C21.3864 357.422 19.501 358.541 18.1729 360.922C17.3135 358.645 15.5947 357.422 13.001 357.422C10.7041 357.422 8.84994 358.661 8.05306 360.307L8.00618 357.89H4.59473V373.401H8.2041V365.479C8.2041 362.687 9.98014 360.786 11.9437 360.786C13.9333 360.786 15.2041 362.057 15.2041 365.119V373.401H18.8083V365.479C18.8083 362.687 20.6051 360.786 22.5479 360.786C24.5583 360.786 25.8239 362.057 25.8239 365.119V373.401H29.4281V365.041C29.4281 360.172 27.4958 357.422 23.6051 357.422Z" fill="#900182"/>
<path d="M41.578 351.494L39.2967 356.052H41.7394L44.2759 352.448L41.578 351.494ZM48.3332 365.375C48.3332 361.104 45.1978 357.421 40.5207 357.421C35.8592 357.421 32.479 361.119 32.479 365.645C32.479 370.171 35.8592 373.869 40.5207 373.869C44.38 373.869 47.1405 371.317 47.9269 368.526H43.9425C43.4165 369.838 42.2863 370.609 40.4425 370.609C38.3019 370.609 36.5207 369.145 36.1457 366.614H48.2603C48.3175 366.036 48.3332 365.765 48.3332 365.375ZM36.2967 363.791C36.9113 361.604 38.6613 360.609 40.505 360.609C42.6457 360.609 44.4582 362.057 44.6092 363.791H36.2967Z" fill="#900182"/>
<path d="M57.6925 373.869C60.2915 373.869 62.1457 372.422 63.0675 370.791V373.401H66.5363V352.161H62.9009V358.812L62.9738 360.427C62.1613 358.963 60.2759 357.422 57.7394 357.422C53.2134 357.422 50.1978 361.119 50.1978 365.646C50.1978 370.203 53.2915 373.869 57.6925 373.869ZM58.3592 370.505C55.6873 370.505 53.7863 368.39 53.7863 365.646C53.7863 362.823 55.7811 360.802 58.3592 360.802C60.9217 360.802 62.9321 362.932 62.9321 365.646C62.9321 368.39 60.9061 370.505 58.3592 370.505Z" fill="#900182"/>
<path d="M72.5918 355.479C74.071 355.479 74.8991 354.557 74.8991 353.38C74.8991 352.25 74.071 351.297 72.6074 351.297C71.1751 351.297 70.3418 352.25 70.3418 353.38C70.3418 354.541 71.1908 355.479 72.5918 355.479ZM74.446 373.401V357.89H70.7949V373.401H74.446Z" fill="#900182"/>
<path d="M85.6232 373.869C89.6076 373.869 92.5347 371.317 93.3315 367.729H89.6232C88.9409 369.661 87.4045 370.489 85.6388 370.489C83.4045 370.489 81.2326 368.708 81.2326 365.645C81.2326 362.599 83.3888 360.817 85.6388 360.817C87.4045 360.817 88.9253 361.651 89.6232 363.369H93.3472C92.4722 359.958 89.6232 357.422 85.6232 357.422C80.993 357.422 77.6128 361.135 77.6128 365.645C77.6128 370.172 80.993 373.869 85.6232 373.869Z" fill="#900182"/>
<path d="M103.326 373.869C108.108 373.869 111.535 370.218 111.535 365.645C111.535 361.104 108.108 357.422 103.342 357.422C98.5921 357.422 95.1807 361.119 95.1807 365.645C95.1807 370.203 98.6025 373.869 103.326 373.869ZM103.358 370.474C100.748 370.474 98.8005 368.453 98.8005 365.645C98.8005 362.854 100.748 360.802 103.358 360.802C105.967 360.802 107.915 362.854 107.915 365.645C107.915 368.453 105.967 370.474 103.358 370.474Z" fill="#900182"/>
<path d="M120.29 373.869C124.03 373.869 126.806 372.208 126.806 368.802C126.806 365.51 124.306 364.573 121.093 364.093C118.421 363.672 117.848 363.291 117.848 362.13C117.848 361.198 118.54 360.411 120.108 360.411C121.801 360.411 122.707 361.224 122.78 362.375L126.358 362.401C126.358 359.448 123.837 357.422 120.093 357.422C116.306 357.422 114.254 359.354 114.254 362.208C114.254 365.422 116.822 366.614 119.806 367.005C121.921 367.323 123.082 367.698 123.082 369.01C123.082 370.187 122.207 370.974 120.322 370.974C118.238 370.974 117.181 369.901 117.124 368.484L113.624 368.468C113.624 371.198 115.733 373.869 120.29 373.869Z" fill="#900182"/>
<path d="M131.734 373.776C133.031 373.776 133.89 372.89 133.89 371.77C133.89 370.687 133.031 369.765 131.749 369.765C130.452 369.765 129.609 370.687 129.609 371.77C129.609 372.875 130.468 373.776 131.734 373.776Z" fill="#900182"/>
<path d="M13.4957 409.21L16.3186 405.601L13.6207 404.653L10.8707 409.21H13.4957ZM19.0946 431.205V427.84H8.65715V422.366H17.5582V419.195H8.65715V414.054H18.9592V410.689H4.89673V431.205H19.0946Z" fill="#CB962E"/>
<path d="M36.7066 431.674C40.8056 431.674 43.9775 429.502 43.9775 423.981V415.695H40.342V423.872C40.342 426.71 39.1337 428.278 36.691 428.278C34.2587 428.278 33.0243 426.741 33.0243 423.872V415.695H29.4045V423.981C29.4045 429.502 32.5556 431.674 36.7066 431.674Z" fill="#CB962E"/>
<path d="M66.9291 415.226C64.7104 415.226 62.825 416.346 61.4968 418.726C60.6375 416.45 58.9187 415.226 56.325 415.226C54.0281 415.226 52.1739 416.465 51.377 418.111L51.3302 415.695H47.9187V431.205H51.5281V423.283C51.5281 420.491 53.3041 418.59 55.2677 418.59C57.2572 418.59 58.5281 419.861 58.5281 422.924V431.205H62.1322V423.283C62.1322 420.491 63.9291 418.59 65.8718 418.59C67.8822 418.59 69.1479 419.861 69.1479 422.924V431.205H72.752V422.846C72.752 417.976 70.8197 415.226 66.9291 415.226Z" fill="#CB962E"/>
<path d="M83.1053 431.674C85.6261 431.674 87.6782 430.528 88.6886 428.596V431.205H92.1574V415.695H88.6886V418.32C87.6886 416.392 85.6261 415.226 83.0897 415.226C78.9386 415.226 75.8032 418.924 75.8032 423.45C75.8032 428.007 78.9126 431.674 83.1053 431.674ZM83.9803 428.293C81.522 428.293 79.423 426.465 79.423 423.45C79.423 420.538 81.4751 418.606 83.9803 418.606C86.5116 418.606 88.5376 420.752 88.5376 423.45C88.5376 426.195 86.5272 428.293 83.9803 428.293Z" fill="#CB962E"/>
<path d="M110.351 431.674C112.95 431.674 114.804 430.226 115.726 428.596V431.205H119.195V409.965H115.559V416.616L115.632 418.231C114.82 416.767 112.934 415.226 110.398 415.226C105.872 415.226 102.856 418.924 102.856 423.45C102.856 428.007 105.95 431.674 110.351 431.674ZM111.018 428.309C108.346 428.309 106.445 426.195 106.445 423.45C106.445 420.627 108.44 418.606 111.018 418.606C113.58 418.606 115.591 420.736 115.591 423.45C115.591 426.195 113.565 428.309 111.018 428.309Z" fill="#CB962E"/>
<path d="M129.657 431.674C132.177 431.674 134.229 430.528 135.24 428.596V431.205H138.709V415.695H135.24V418.32C134.24 416.392 132.177 415.226 129.641 415.226C125.49 415.226 122.354 418.924 122.354 423.45C122.354 428.007 125.464 431.674 129.657 431.674ZM130.532 428.293C128.073 428.293 125.974 426.465 125.974 423.45C125.974 420.538 128.026 418.606 130.532 418.606C133.063 418.606 135.089 420.752 135.089 423.45C135.089 426.195 133.078 428.293 130.532 428.293Z" fill="#CB962E"/>
<path d="M148.565 431.674C152.304 431.674 155.08 430.012 155.08 426.606C155.08 423.314 152.58 422.377 149.367 421.898C146.695 421.476 146.122 421.096 146.122 419.934C146.122 419.002 146.815 418.215 148.383 418.215C150.075 418.215 150.982 419.028 151.054 420.179L154.633 420.205C154.633 417.252 152.112 415.226 148.367 415.226C144.58 415.226 142.528 417.158 142.528 420.012C142.528 423.226 145.096 424.418 148.08 424.809C150.195 425.127 151.357 425.502 151.357 426.814C151.357 427.991 150.482 428.778 148.596 428.778C146.513 428.778 145.455 427.705 145.398 426.288L141.898 426.273C141.898 429.002 144.008 431.674 148.565 431.674Z" fill="#CB962E"/>
<path d="M175.153 431.205V428.174H172.752C171.59 428.174 170.507 427.642 170.507 425.471V418.835H175.153V415.695H170.507V411.127L166.856 411.153V415.695H163.642V418.835H166.856V425.304C166.856 430.418 169.663 431.205 172.002 431.205H175.153Z" fill="#CB962E"/>
<path d="M192.858 423.179C192.858 418.908 189.722 415.226 185.045 415.226C180.384 415.226 177.003 418.924 177.003 423.45C177.003 427.976 180.384 431.674 185.045 431.674C188.904 431.674 191.665 429.122 192.451 426.33H188.467C187.941 427.642 186.811 428.413 184.967 428.413C182.826 428.413 181.045 426.95 180.67 424.418H192.785C192.842 423.84 192.858 423.57 192.858 423.179ZM180.821 421.596C181.436 419.408 183.186 418.413 185.029 418.413C187.17 418.413 188.983 419.861 189.134 421.596H180.821Z" fill="#CB962E"/>
<path d="M202.733 431.674C206.717 431.674 209.644 429.122 210.441 425.533H206.733C206.05 427.465 204.514 428.293 202.748 428.293C200.514 428.293 198.342 426.512 198.342 423.45C198.342 420.403 200.498 418.622 202.748 418.622C204.514 418.622 206.035 419.455 206.733 421.174H210.457C209.582 417.762 206.733 415.226 202.733 415.226C198.102 415.226 194.722 418.939 194.722 423.45C194.722 427.976 198.102 431.674 202.733 431.674Z" fill="#CB962E"/>
<path d="M217.04 431.205V423.283C217.04 420.252 219.003 418.59 221.144 418.59C223.347 418.59 224.738 419.846 224.738 422.924V431.205H228.389V422.846C228.389 417.976 226.321 415.226 222.155 415.226C219.774 415.226 217.748 416.418 216.863 418.111V415.695H213.389V431.205H217.04Z" fill="#CB962E"/>
<path d="M239.587 431.674C244.368 431.674 247.796 428.023 247.796 423.45C247.796 418.908 244.368 415.226 239.603 415.226C234.853 415.226 231.441 418.924 231.441 423.45C231.441 428.007 234.863 431.674 239.587 431.674ZM239.618 428.278C237.009 428.278 235.061 426.257 235.061 423.45C235.061 420.658 237.009 418.606 239.618 418.606C242.228 418.606 244.176 420.658 244.176 423.45C244.176 426.257 242.228 428.278 239.618 428.278Z" fill="#CB962E"/>
<path d="M254.619 431.205V409.95H250.968V431.205H254.619Z" fill="#CB962E"/>
<path d="M265.931 431.674C270.713 431.674 274.14 428.023 274.14 423.45C274.14 418.908 270.713 415.226 265.947 415.226C261.197 415.226 257.786 418.924 257.786 423.45C257.786 428.007 261.208 431.674 265.931 431.674ZM265.963 428.278C263.353 428.278 261.405 426.257 261.405 423.45C261.405 420.658 263.353 418.606 265.963 418.606C268.572 418.606 270.52 420.658 270.52 423.45C270.52 426.257 268.572 428.278 265.963 428.278Z" fill="#CB962E"/>
<path d="M284.421 437.09C289.687 437.09 292.567 433.783 292.567 429.424V415.695H289.099V418.335C288.281 416.736 286.364 415.226 283.588 415.226C279.276 415.226 276.213 418.924 276.213 423.132C276.213 427.356 279.307 430.83 283.708 430.83C286.02 430.83 288.026 429.924 289.083 427.887V429.471C289.083 431.898 287.786 434.012 284.406 434.012C281.645 434.012 280.604 432.82 280.286 431.189H276.849C276.953 434.132 279.125 437.09 284.421 437.09ZM284.39 427.658C281.823 427.658 279.833 425.741 279.833 423.116C279.833 420.45 281.823 418.606 284.39 418.606C286.953 418.606 288.948 420.705 288.948 423.116C288.948 425.59 286.937 427.658 284.39 427.658Z" fill="#CB962E"/>
<path d="M298.637 413.283C300.116 413.283 300.944 412.361 300.944 411.184C300.944 410.054 300.116 409.101 298.653 409.101C297.221 409.101 296.387 410.054 296.387 411.184C296.387 412.346 297.236 413.283 298.637 413.283ZM300.491 431.205V415.695H296.84V431.205H300.491Z" fill="#CB962E"/>
<path d="M310.96 431.674C313.481 431.674 315.533 430.528 316.544 428.596V431.205H320.012V415.695H316.544V418.32C315.544 416.392 313.481 415.226 310.945 415.226C306.794 415.226 303.658 418.924 303.658 423.45C303.658 428.007 306.768 431.674 310.96 431.674ZM311.835 428.293C309.377 428.293 307.278 426.465 307.278 423.45C307.278 420.538 309.33 418.606 311.835 418.606C314.367 418.606 316.393 420.752 316.393 423.45C316.393 426.195 314.382 428.293 311.835 428.293Z" fill="#CB962E"/>
<path d="M329.869 431.674C333.608 431.674 336.384 430.012 336.384 426.606C336.384 423.314 333.884 422.377 330.671 421.898C327.999 421.476 327.426 421.096 327.426 419.934C327.426 419.002 328.119 418.215 329.687 418.215C331.379 418.215 332.285 419.028 332.358 420.179L335.937 420.205C335.937 417.252 333.416 415.226 329.671 415.226C325.884 415.226 323.832 417.158 323.832 420.012C323.832 423.226 326.4 424.418 329.384 424.809C331.499 425.127 332.66 425.502 332.66 426.814C332.66 427.991 331.785 428.778 329.9 428.778C327.817 428.778 326.759 427.705 326.702 426.288L323.202 426.273C323.202 429.002 325.312 431.674 329.869 431.674Z" fill="#CB962E"/>
<path d="M353.316 431.674C355.915 431.674 357.769 430.226 358.691 428.596V431.205H362.16V409.965H358.524V416.616L358.597 418.231C357.785 416.767 355.899 415.226 353.363 415.226C348.837 415.226 345.821 418.924 345.821 423.45C345.821 428.007 348.915 431.674 353.316 431.674ZM353.983 428.309C351.311 428.309 349.41 426.195 349.41 423.45C349.41 420.627 351.405 418.606 353.983 418.606C356.545 418.606 358.556 420.736 358.556 423.45C358.556 426.195 356.53 428.309 353.983 428.309Z" fill="#CB962E"/>
<path d="M381.174 423.179C381.174 418.908 378.038 415.226 373.361 415.226C368.7 415.226 365.319 418.924 365.319 423.45C365.319 427.976 368.7 431.674 373.361 431.674C377.22 431.674 379.981 429.122 380.767 426.33H376.783C376.257 427.642 375.127 428.413 373.283 428.413C371.142 428.413 369.361 426.95 368.986 424.418H381.101C381.158 423.84 381.174 423.57 381.174 423.179ZM369.137 421.596C369.752 419.408 371.502 418.413 373.345 418.413C375.486 418.413 377.299 419.861 377.45 421.596H369.137Z" fill="#CB962E"/>
<path d="M395.313 431.205V409.95H391.662V431.205H395.313Z" fill="#CB962E"/>
<path d="M405.782 431.674C408.303 431.674 410.355 430.528 411.365 428.596V431.205H414.834V415.695H411.365V418.32C410.365 416.392 408.303 415.226 405.766 415.226C401.615 415.226 398.48 418.924 398.48 423.45C398.48 428.007 401.589 431.674 405.782 431.674ZM406.657 428.293C404.198 428.293 402.1 426.465 402.1 423.45C402.1 420.538 404.152 418.606 406.657 418.606C409.188 418.606 411.214 420.752 411.214 423.45C411.214 426.195 409.204 428.293 406.657 428.293Z" fill="#CB962E"/>
<path d="M424.69 431.674C428.43 431.674 431.206 430.012 431.206 426.606C431.206 423.314 428.706 422.377 425.492 421.898C422.821 421.476 422.248 421.096 422.248 419.934C422.248 419.002 422.94 418.215 424.508 418.215C426.201 418.215 427.107 419.028 427.18 420.179L430.758 420.205C430.758 417.252 428.237 415.226 424.492 415.226C420.706 415.226 418.654 417.158 418.654 420.012C418.654 423.226 421.222 424.418 424.206 424.809C426.321 425.127 427.482 425.502 427.482 426.814C427.482 427.991 426.607 428.778 424.722 428.778C422.638 428.778 421.581 427.705 421.524 426.288L418.024 426.273C418.024 429.002 420.133 431.674 424.69 431.674Z" fill="#CB962E"/>
<path d="M448.972 423.179C448.972 418.908 445.837 415.226 441.16 415.226C436.498 415.226 433.118 418.924 433.118 423.45C433.118 427.976 436.498 431.674 441.16 431.674C445.019 431.674 447.78 429.122 448.566 426.33H444.582C444.056 427.642 442.925 428.413 441.082 428.413C438.941 428.413 437.16 426.95 436.785 424.418H448.899C448.957 423.84 448.972 423.57 448.972 423.179ZM436.936 421.596C437.55 419.408 439.3 418.413 441.144 418.413C443.285 418.413 445.097 419.861 445.248 421.596H436.936Z" fill="#CB962E"/>
<path d="M455.587 431.205V423.991C455.587 420.689 457.295 418.835 459.795 418.835H461.259V415.695H459.602C457.582 415.695 456.16 416.799 455.436 418.502V415.695H451.936V431.205H455.587Z" fill="#CB962E"/>
<path d="M490.399 415.226C488.18 415.226 486.295 416.346 484.967 418.726C484.107 416.45 482.389 415.226 479.795 415.226C477.498 415.226 475.644 416.465 474.847 418.111L474.8 415.695H471.389V431.205H474.998V423.283C474.998 420.491 476.774 418.59 478.738 418.59C480.727 418.59 481.998 419.861 481.998 422.924V431.205H485.602V423.283C485.602 420.491 487.399 418.59 489.342 418.59C491.352 418.59 492.618 419.861 492.618 422.924V431.205H496.222V422.846C496.222 417.976 494.29 415.226 490.399 415.226Z" fill="#CB962E"/>
<path d="M506.575 431.674C509.096 431.674 511.148 430.528 512.158 428.596V431.205H515.627V415.695H512.158V418.32C511.158 416.392 509.096 415.226 506.559 415.226C502.408 415.226 499.273 418.924 499.273 423.45C499.273 428.007 502.382 431.674 506.575 431.674ZM507.45 428.293C504.992 428.293 502.893 426.465 502.893 423.45C502.893 420.538 504.945 418.606 507.45 418.606C509.981 418.606 512.007 420.752 512.007 423.45C512.007 426.195 509.997 428.293 507.45 428.293Z" fill="#CB962E"/>
<path d="M521.697 413.283C523.176 413.283 524.004 412.361 524.004 411.184C524.004 410.054 523.176 409.101 521.713 409.101C520.28 409.101 519.447 410.054 519.447 411.184C519.447 412.346 520.296 413.283 521.697 413.283ZM523.551 431.205V415.695H519.9V431.205H523.551Z" fill="#CB962E"/>
<path d="M533.4 431.674C537.14 431.674 539.916 430.012 539.916 426.606C539.916 423.314 537.416 422.377 534.202 421.898C531.531 421.476 530.958 421.096 530.958 419.934C530.958 419.002 531.65 418.215 533.218 418.215C534.911 418.215 535.817 419.028 535.89 420.179L539.468 420.205C539.468 417.252 536.947 415.226 533.202 415.226C529.416 415.226 527.364 417.158 527.364 420.012C527.364 423.226 529.932 424.418 532.916 424.809C535.031 425.127 536.192 425.502 536.192 426.814C536.192 427.991 535.317 428.778 533.432 428.778C531.348 428.778 530.291 427.705 530.234 426.288L526.734 426.273C526.734 429.002 528.843 431.674 533.4 431.674Z" fill="#CB962E"/>
<path d="M10.7977 460.576C13.3185 460.576 15.3706 459.43 16.381 457.498V460.107H19.8498V444.597H16.381V447.222C15.381 445.295 13.3185 444.128 10.7821 444.128C6.63102 444.128 3.49561 447.826 3.49561 452.352C3.49561 456.909 6.60498 460.576 10.7977 460.576ZM11.6727 457.196C9.21436 457.196 7.1154 455.368 7.1154 452.352C7.1154 449.44 9.16748 447.508 11.6727 447.508C14.2039 447.508 16.23 449.654 16.23 452.352C16.23 455.097 14.2196 457.196 11.6727 457.196Z" fill="#CB962E"/>
<path d="M31.7114 460.107L37.9302 444.597H34.0239L30.4146 453.982L30.0239 455.597L29.6177 453.967L26.0083 444.597H22.1333L28.3208 460.107H31.7114Z" fill="#CB962E"/>
<path d="M46.4012 460.576C48.922 460.576 50.9741 459.43 51.9845 457.498V460.107H55.4533V444.597H51.9845V447.222C50.9845 445.295 48.922 444.128 46.3856 444.128C42.2345 444.128 39.0991 447.826 39.0991 452.352C39.0991 456.909 42.2085 460.576 46.4012 460.576ZM47.2762 457.196C44.8179 457.196 42.7189 455.368 42.7189 452.352C42.7189 449.44 44.771 447.508 47.2762 447.508C49.8075 447.508 51.8335 449.654 51.8335 452.352C51.8335 455.097 49.8231 457.196 47.2762 457.196Z" fill="#CB962E"/>
<path d="M63.3774 460.107V452.185C63.3774 449.154 65.3409 447.493 67.4815 447.493C69.6847 447.493 71.0753 448.748 71.0753 451.826V460.107H74.7263V451.748C74.7263 446.878 72.6586 444.128 68.4919 444.128C66.1117 444.128 64.0857 445.321 63.2003 447.013V444.597H59.7263V460.107H63.3774Z" fill="#CB962E"/>
<path d="M85.8046 457.196C83.5702 457.196 81.3984 455.414 81.3984 452.352C81.3984 449.305 83.5546 447.524 85.8046 447.524C87.5702 447.524 89.0911 448.357 89.789 450.076H93.5129C92.6379 446.664 89.789 444.128 85.789 444.128C81.1588 444.128 77.7786 447.842 77.7786 452.352C77.7786 456.545 80.69 460.034 84.8098 460.513L84.2525 462.383C84.9869 462.399 86.1067 462.519 86.1067 463.321C86.1067 464.029 85.4244 464.227 85.065 464.227C84.4921 464.227 84.1275 464.045 83.664 463.774L82.9504 465.373C83.5702 465.842 84.4296 466.097 85.1692 466.097C86.6952 466.097 88.0806 465.175 88.0806 463.456C88.0806 462.248 86.9817 461.524 85.8931 461.315L86.2421 460.56C89.9973 460.378 92.7265 457.888 93.4973 454.435H89.789C89.1067 456.368 87.5702 457.196 85.8046 457.196Z" fill="#CB962E"/>
<path d="M102.649 460.576C105.169 460.576 107.221 459.43 108.232 457.498V460.107H111.701V444.597H108.232V447.222C107.232 445.295 105.169 444.128 102.633 444.128C98.4819 444.128 95.3464 447.826 95.3464 452.352C95.3464 456.909 98.4558 460.576 102.649 460.576ZM103.524 457.196C101.065 457.196 98.9662 455.368 98.9662 452.352C98.9662 449.44 101.018 447.508 103.524 447.508C106.055 447.508 108.081 449.654 108.081 452.352C108.081 455.097 106.07 457.196 103.524 457.196Z" fill="#CB962E"/>
<path d="M122.37 460.576C124.969 460.576 126.823 459.128 127.745 457.498V460.107H131.213V438.868H127.578V445.519L127.651 447.133C126.838 445.67 124.953 444.128 122.416 444.128C117.89 444.128 114.875 447.826 114.875 452.352C114.875 456.909 117.969 460.576 122.37 460.576ZM123.036 457.211C120.364 457.211 118.463 455.097 118.463 452.352C118.463 449.529 120.458 447.508 123.036 447.508C125.599 447.508 127.609 449.638 127.609 452.352C127.609 455.097 125.583 457.211 123.036 457.211Z" fill="#CB962E"/>
<path d="M141.675 460.576C144.196 460.576 146.248 459.43 147.258 457.498V460.107H150.727V444.597H147.258V447.222C146.258 445.295 144.196 444.128 141.66 444.128C137.508 444.128 134.373 447.826 134.373 452.352C134.373 456.909 137.482 460.576 141.675 460.576ZM142.55 457.196C140.092 457.196 137.993 455.368 137.993 452.352C137.993 449.44 140.045 447.508 142.55 447.508C145.081 447.508 147.107 449.654 147.107 452.352C147.107 455.097 145.097 457.196 142.55 457.196Z" fill="#CB962E"/>
<path d="M160.583 460.576C164.323 460.576 167.099 458.914 167.099 455.508C167.099 452.217 164.599 451.279 161.385 450.8C158.714 450.378 158.141 449.998 158.141 448.836C158.141 447.904 158.833 447.118 160.401 447.118C162.094 447.118 163 447.93 163.073 449.081L166.651 449.107C166.651 446.154 164.13 444.128 160.385 444.128C156.599 444.128 154.547 446.06 154.547 448.914C154.547 452.128 157.115 453.321 160.099 453.711C162.214 454.029 163.375 454.404 163.375 455.717C163.375 456.894 162.5 457.68 160.615 457.68C158.531 457.68 157.474 456.607 157.417 455.19L153.917 455.175C153.917 457.904 156.026 460.576 160.583 460.576Z" fill="#CB962E"/>
<path d="M184.031 460.576C186.63 460.576 188.484 459.128 189.406 457.498V460.107H192.874V438.868H189.239V445.519L189.312 447.133C188.499 445.67 186.614 444.128 184.078 444.128C179.552 444.128 176.536 447.826 176.536 452.352C176.536 456.909 179.63 460.576 184.031 460.576ZM184.697 457.211C182.025 457.211 180.124 455.097 180.124 452.352C180.124 449.529 182.119 447.508 184.697 447.508C187.26 447.508 189.27 449.638 189.27 452.352C189.27 455.097 187.244 457.211 184.697 457.211Z" fill="#CB962E"/>
<path d="M198.93 442.185C200.409 442.185 201.237 441.263 201.237 440.086C201.237 438.956 200.409 438.003 198.946 438.003C197.513 438.003 196.68 438.956 196.68 440.086C196.68 441.248 197.529 442.185 198.93 442.185ZM200.784 460.107V444.597H197.133V460.107H200.784Z" fill="#CB962E"/>
<path d="M210.633 460.576C214.373 460.576 217.149 458.914 217.149 455.508C217.149 452.217 214.649 451.279 211.435 450.8C208.763 450.378 208.191 449.998 208.191 448.836C208.191 447.904 208.883 447.118 210.451 447.118C212.144 447.118 213.05 447.93 213.123 449.081L216.701 449.107C216.701 446.154 214.18 444.128 210.435 444.128C206.649 444.128 204.597 446.06 204.597 448.914C204.597 452.128 207.164 453.321 210.149 453.711C212.263 454.029 213.425 454.404 213.425 455.717C213.425 456.894 212.55 457.68 210.664 457.68C208.581 457.68 207.524 456.607 207.467 455.19L203.967 455.175C203.967 457.904 206.076 460.576 210.633 460.576Z" fill="#CB962E"/>
<path d="M223.811 465.404V459.399L223.738 457.602C224.764 459.399 226.738 460.576 229.004 460.576C233.332 460.576 236.514 456.909 236.514 452.352C236.514 447.826 233.363 444.144 228.957 444.144C226.722 444.144 224.748 445.336 223.634 447.206V444.597H220.16V465.404H223.811ZM228.337 457.211C225.863 457.211 223.769 455.19 223.769 452.352C223.769 449.638 225.806 447.508 228.321 447.508C230.842 447.508 232.894 449.44 232.894 452.352C232.894 455.357 230.795 457.211 228.337 457.211Z" fill="#CB962E"/>
<path d="M246.735 460.576C251.516 460.576 254.943 456.925 254.943 452.352C254.943 447.81 251.516 444.128 246.751 444.128C242.001 444.128 238.589 447.826 238.589 452.352C238.589 456.909 242.011 460.576 246.735 460.576ZM246.766 457.18C244.157 457.18 242.209 455.159 242.209 452.352C242.209 449.56 244.157 447.508 246.766 447.508C249.376 447.508 251.323 449.56 251.323 452.352C251.323 455.159 249.376 457.18 246.766 457.18Z" fill="#CB962E"/>
<path d="M261.767 460.107V452.185C261.767 449.154 263.73 447.493 265.871 447.493C268.074 447.493 269.464 448.748 269.464 451.826V460.107H273.115V451.748C273.115 446.878 271.048 444.128 266.881 444.128C264.501 444.128 262.475 445.321 261.589 447.013V444.597H258.115V460.107H261.767Z" fill="#CB962E"/>
<path d="M280.496 442.758L283.032 439.154L280.329 438.201L278.053 442.758H280.496ZM280.918 460.107V444.597H277.267V460.107H280.918Z" fill="#CB962E"/>
<path d="M292.772 460.107L298.991 444.597H295.085L291.475 453.982L291.085 455.597L290.678 453.967L287.069 444.597H283.194L289.382 460.107H292.772Z" fill="#CB962E"/>
<path d="M316.014 452.081C316.014 447.81 312.878 444.128 308.201 444.128C303.54 444.128 300.16 447.826 300.16 452.352C300.16 456.878 303.54 460.576 308.201 460.576C312.061 460.576 314.821 458.024 315.608 455.232H311.623C311.097 456.545 309.967 457.315 308.123 457.315C305.983 457.315 304.201 455.852 303.826 453.321H315.941C315.998 452.743 316.014 452.472 316.014 452.081ZM303.977 450.498C304.592 448.31 306.342 447.315 308.186 447.315C310.326 447.315 312.139 448.763 312.29 450.498H303.977Z" fill="#CB962E"/>
<path d="M320.774 442.185C322.254 442.185 323.082 441.263 323.082 440.086C323.082 438.956 322.254 438.003 320.79 438.003C319.358 438.003 318.524 438.956 318.524 440.086C318.524 441.248 319.373 442.185 320.774 442.185ZM322.629 460.107V444.597H318.978V460.107H322.629Z" fill="#CB962E"/>
<path d="M332.478 460.576C336.217 460.576 338.993 458.914 338.993 455.508C338.993 452.217 336.493 451.279 333.28 450.8C330.608 450.378 330.035 449.998 330.035 448.836C330.035 447.904 330.728 447.118 332.295 447.118C333.988 447.118 334.894 447.93 334.967 449.081L338.545 449.107C338.545 446.154 336.025 444.128 332.28 444.128C328.493 444.128 326.441 446.06 326.441 448.914C326.441 452.128 329.009 453.321 331.993 453.711C334.108 454.029 335.269 454.404 335.269 455.717C335.269 456.894 334.394 457.68 332.509 457.68C330.426 457.68 329.368 456.607 329.311 455.19L325.811 455.175C325.811 457.904 327.92 460.576 332.478 460.576Z" fill="#CB962E"/>
<path d="M355.732 460.576C358.253 460.576 360.305 459.43 361.316 457.498V460.107H364.784V444.597H361.316V447.222C360.316 445.295 358.253 444.128 355.717 444.128C351.566 444.128 348.43 447.826 348.43 452.352C348.43 456.909 351.54 460.576 355.732 460.576ZM356.607 457.196C354.149 457.196 352.05 455.368 352.05 452.352C352.05 449.44 354.102 447.508 356.607 447.508C359.139 447.508 361.165 449.654 361.165 452.352C361.165 455.097 359.154 457.196 356.607 457.196Z" fill="#CB962E"/>
<path d="M378.594 460.107V457.076H376.193C375.031 457.076 373.948 456.545 373.948 454.373V447.737H378.594V444.597H373.948V440.029L370.297 440.055V444.597H367.083V447.737H370.297V454.206C370.297 459.321 373.104 460.107 375.443 460.107H378.594Z" fill="#CB962E"/>
<path d="M388.517 460.576C392.616 460.576 395.788 458.404 395.788 452.883V444.597H392.153V452.774C392.153 455.612 390.944 457.18 388.502 457.18C386.069 457.18 384.835 455.644 384.835 452.774V444.597H381.215V452.883C381.215 458.404 384.366 460.576 388.517 460.576Z" fill="#CB962E"/>
<path d="M405.933 460.576C408.454 460.576 410.506 459.43 411.516 457.498V460.107H414.985V444.597H411.516V447.222C410.516 445.295 408.454 444.128 405.917 444.128C401.766 444.128 398.631 447.826 398.631 452.352C398.631 456.909 401.74 460.576 405.933 460.576ZM406.808 457.196C404.349 457.196 402.25 455.368 402.25 452.352C402.25 449.44 404.302 447.508 406.808 447.508C409.339 447.508 411.365 449.654 411.365 452.352C411.365 455.097 409.355 457.196 406.808 457.196Z" fill="#CB962E"/>
<path d="M422.909 460.107V438.852H419.258V460.107H422.909Z" fill="#CB962E"/>
<path d="M446.185 444.128C443.966 444.128 442.081 445.248 440.753 447.628C439.894 445.352 438.175 444.128 435.581 444.128C433.284 444.128 431.43 445.368 430.633 447.013L430.586 444.597H427.175V460.107H430.784V452.185C430.784 449.394 432.56 447.493 434.524 447.493C436.513 447.493 437.784 448.763 437.784 451.826V460.107H441.388V452.185C441.388 449.394 443.185 447.493 445.128 447.493C447.138 447.493 448.404 448.763 448.404 451.826V460.107H452.008V451.748C452.008 446.878 450.076 444.128 446.185 444.128Z" fill="#CB962E"/>
<path d="M470.913 452.081C470.913 447.81 467.778 444.128 463.101 444.128C458.439 444.128 455.059 447.826 455.059 452.352C455.059 456.878 458.439 460.576 463.101 460.576C466.96 460.576 469.721 458.024 470.507 455.232H466.523C465.997 456.545 464.866 457.315 463.023 457.315C460.882 457.315 459.101 455.852 458.726 453.321H470.84C470.898 452.743 470.913 452.472 470.913 452.081ZM458.877 450.498C459.491 448.31 461.241 447.315 463.085 447.315C465.226 447.315 467.038 448.763 467.189 450.498H458.877Z" fill="#CB962E"/>
<path d="M477.528 460.107V452.185C477.528 449.154 479.491 447.493 481.632 447.493C483.835 447.493 485.226 448.748 485.226 451.826V460.107H488.877V451.748C488.877 446.878 486.809 444.128 482.642 444.128C480.262 444.128 478.236 445.321 477.351 447.013V444.597H473.877V460.107H477.528Z" fill="#CB962E"/>
<path d="M502.565 460.107V457.076H500.164C499.002 457.076 497.919 456.545 497.919 454.373V447.737H502.565V444.597H497.919V440.029L494.268 440.055V444.597H491.054V447.737H494.268V454.206C494.268 459.321 497.075 460.107 499.414 460.107H502.565Z" fill="#CB962E"/>
<path d="M520.269 452.081C520.269 447.81 517.134 444.128 512.457 444.128C507.795 444.128 504.415 447.826 504.415 452.352C504.415 456.878 507.795 460.576 512.457 460.576C516.316 460.576 519.076 458.024 519.863 455.232H515.879C515.353 456.545 514.222 457.315 512.379 457.315C510.238 457.315 508.457 455.852 508.082 453.321H520.196C520.254 452.743 520.269 452.472 520.269 452.081ZM508.233 450.498C508.847 448.31 510.597 447.315 512.441 447.315C514.582 447.315 516.394 448.763 516.545 450.498H508.233Z" fill="#CB962E"/>
<path d="M525.149 460.482C526.446 460.482 527.306 459.597 527.306 458.477C527.306 457.394 526.446 456.472 525.165 456.472C523.868 456.472 523.024 457.394 523.024 458.477C523.024 459.581 523.884 460.482 525.149 460.482Z" fill="#CB962E"/>
</svg>
