<svg width="308" height="50" viewBox="0 0 308 50" fill="none" xmlns="http://www.w3.org/2000/svg">
<mask id="mask0_14_14634" style="mask-type:luminance" maskUnits="userSpaceOnUse" x="0" y="0" width="308" height="50">
<path d="M0 0H307.505V49.2396H0V0Z" fill="white"/>
</mask>
<g mask="url(#mask0_14_14634)">
<mask id="mask1_14_14634" style="mask-type:luminance" maskUnits="userSpaceOnUse" x="0" y="0" width="307" height="49">
<path d="M8 0H298.927C301.047 0 303.083 0.84375 304.583 2.34375C306.083 3.84375 306.927 5.88021 306.927 8V40.3646C306.927 42.4844 306.083 44.5208 304.583 46.0208C303.083 47.5208 301.047 48.3646 298.927 48.3646H8C5.875 48.3646 3.84375 47.5208 2.33854 46.0208C0.838542 44.5208 0 42.4844 0 40.3646V8C0 5.88021 0.838542 3.84375 2.33854 2.34375C3.84375 0.84375 5.875 0 8 0Z" fill="white"/>
</mask>
<g mask="url(#mask1_14_14634)">
<path d="M0 0H306.573V48.3125H0V0Z" fill="#CC8D7F"/>
</g>
</g>
<path d="M17.701 28.0015L12.5447 15.6005H10.3937L5.23743 28.0015H7.63326L8.61763 25.6057H14.3208L15.3051 28.0015H17.701ZM11.3885 18.8244L11.4614 18.5275H11.4874L11.5395 18.8244L13.5447 23.7098H9.38847L11.3885 18.8244Z" fill="white"/>
<path d="M24.9349 28.2671C28.987 28.2671 31.3203 25.3973 31.2943 21.3296H24.8255V23.2255H28.8307C28.487 24.9598 27.1276 26.1786 24.9141 26.1786C22.5703 26.1786 20.6589 24.4859 20.6589 21.7984C20.6589 19.1525 22.5703 17.3973 24.9141 17.3973C26.6745 17.3973 28.0599 18.2515 28.7057 19.6994H31.0078C30.4245 16.913 27.5911 15.3192 24.9714 15.3192C21.3255 15.3192 18.3984 18.189 18.3984 21.7984C18.3984 25.3765 21.3255 28.2671 24.9349 28.2671Z" fill="white"/>
<path d="M41.9517 28.0015V25.9703H35.6444V22.663H41.0194V20.7463H35.6444V17.6422H41.8683V15.6109H33.3735V28.0015H41.9517Z" fill="white"/>
<path d="M46.2843 28.0015V19.3349L53.0343 28.0015H54.977V15.6109H52.7166V24.2828L45.9666 15.6109H44.0134V28.0015H46.2843Z" fill="white"/>
<path d="M62.7257 28.0015C66.6632 28.0015 69.2882 25.5224 69.2882 21.7984C69.2882 18.0901 66.6528 15.6109 62.6996 15.6109H57.9236V28.0015H62.7257ZM60.158 17.6213H62.6371C65.4132 17.6213 67.0017 19.2984 67.0017 21.8349C67.0017 24.3817 65.3715 25.9807 62.6528 25.9807H60.158V17.6213Z" fill="white"/>
<path d="M79.9474 28.0015V25.9703H73.6401V22.663H79.0151V20.7463H73.6401V17.6422H79.8641V15.6109H71.3693V28.0015H79.9474Z" fill="white"/>
<path d="M90.7371 28.2828C93.7996 28.2828 95.7892 26.9338 95.7892 24.5275C95.7892 22.0536 93.6746 21.1473 91.3934 20.7307C89.3153 20.3921 88.2892 19.9182 88.2892 18.8817C88.2892 18.0953 88.7528 17.3036 90.6278 17.3036C92.3153 17.3036 93.0549 18.0796 93.0549 19.038H95.3205C95.3205 16.814 93.7476 15.3192 90.659 15.3192C87.4403 15.3192 86.0184 16.8609 86.0184 18.8713C86.0184 21.439 88.5601 22.189 90.6382 22.6161C92.3621 22.9442 93.4924 23.3713 93.4924 24.5223C93.4924 25.7515 92.5861 26.3713 90.7319 26.3713C88.9819 26.3713 87.9715 25.439 87.9715 24.2828H85.7007C85.7007 26.2255 87.159 28.2828 90.7371 28.2828Z" fill="white"/>
<path d="M102.91 28.2724C106.051 28.2724 108.202 26.1682 108.202 23.2099V15.6109H105.936V23.0536C105.936 24.814 104.811 26.1994 102.91 26.1994C100.952 26.1994 99.8739 24.7932 99.8739 23.0432V15.6109H97.6135V23.2099C97.6135 26.3088 99.9208 28.2724 102.91 28.2724Z" fill="white"/>
<path d="M121.996 28.0015L116.839 15.6005H114.688L109.532 28.0015H111.928L112.912 25.6057H118.615L119.6 28.0015H121.996ZM115.683 18.8244L115.756 18.5275H115.782L115.834 18.8244L117.839 23.7098H113.683L115.683 18.8244Z" fill="white"/>
<path d="M133.775 28.2671C136.416 28.2671 139.176 26.7463 139.749 23.4286H137.426C136.942 25.3296 135.468 26.1786 133.707 26.1786C131.369 26.1786 129.499 24.4859 129.499 21.7984C129.499 19.1525 131.369 17.3973 133.707 17.3973C135.478 17.3973 136.942 18.2515 137.437 20.1578H139.749C139.176 16.8505 136.39 15.3192 133.775 15.3192C130.119 15.3192 127.228 18.189 127.228 21.788C127.228 25.3869 130.119 28.2671 133.775 28.2671Z" fill="white"/>
<path d="M147.639 28.2671C151.326 28.2671 154.326 25.3869 154.326 21.788C154.326 18.189 151.326 15.3192 147.639 15.3192C143.946 15.3192 140.956 18.189 140.956 21.788C140.956 25.3869 143.946 28.2671 147.639 28.2671ZM147.639 26.1786C145.206 26.1786 143.227 24.314 143.227 21.7984C143.227 19.2723 145.196 17.3973 147.639 17.3973C150.087 17.3973 152.066 19.2619 152.066 21.7984C152.066 24.314 150.087 26.1786 147.639 26.1786Z" fill="white"/>
<path d="M158.668 28.0015V19.3349L165.418 28.0015H167.361V15.6109H165.1V24.2828L158.35 15.6109H156.397V28.0015H158.668Z" fill="white"/>
<path d="M174.49 28.2828C177.552 28.2828 179.542 26.9338 179.542 24.5275C179.542 22.0536 177.427 21.1473 175.146 20.7307C173.068 20.3921 172.042 19.9182 172.042 18.8817C172.042 18.0953 172.505 17.3036 174.38 17.3036C176.068 17.3036 176.808 18.0796 176.808 19.038H179.073C179.073 16.814 177.5 15.3192 174.412 15.3192C171.193 15.3192 169.771 16.8609 169.771 18.8713C169.771 21.439 172.313 22.189 174.391 22.6161C176.115 22.9442 177.245 23.3713 177.245 24.5223C177.245 25.7515 176.339 26.3713 174.485 26.3713C172.735 26.3713 171.724 25.439 171.724 24.2828H169.453C169.453 26.2255 170.912 28.2828 174.49 28.2828Z" fill="white"/>
<path d="M186.663 28.2724C189.804 28.2724 191.955 26.1682 191.955 23.2099V15.6109H189.689V23.0536C189.689 24.814 188.564 26.1994 186.663 26.1994C184.705 26.1994 183.627 24.7932 183.627 23.0432V15.6109H181.366V23.2099C181.366 26.3088 183.674 28.2724 186.663 28.2724Z" fill="white"/>
<path d="M202.54 28.0015V25.9703H196.946V15.6109H194.675V28.0015H202.54Z" fill="white"/>
<path d="M209.247 28.0015V17.6317H212.934V15.6109H203.294V17.6317H206.986V28.0015H209.247Z" fill="white"/>
<path d="M225.871 28.0015L220.715 15.6005H218.564L213.408 28.0015H215.804L216.788 25.6057H222.491L223.475 28.0015H225.871ZM219.559 18.8244L219.632 18.5275H219.658L219.71 18.8244L221.715 23.7098H217.559L219.559 18.8244Z" fill="white"/>
<path d="M243.052 28.0015L237.895 15.6005H235.744L230.588 28.0015H232.984L233.968 25.6057H239.671L240.656 28.0015H243.052ZM236.739 18.8244L236.812 18.5275H236.838L236.89 18.8244L238.895 23.7098H234.739L236.739 18.8244Z" fill="white"/>
<path d="M250.285 28.2671C254.338 28.2671 256.671 25.3973 256.645 21.3296H250.176V23.2255H254.181C253.838 24.9598 252.478 26.1786 250.265 26.1786C247.921 26.1786 246.009 24.4859 246.009 21.7984C246.009 19.1525 247.921 17.3973 250.265 17.3973C252.025 17.3973 253.41 18.2515 254.056 19.6994H256.358C255.775 16.913 252.942 15.3192 250.322 15.3192C246.676 15.3192 243.749 18.189 243.749 21.7984C243.749 25.3765 246.676 28.2671 250.285 28.2671Z" fill="white"/>
<path d="M264.532 28.2671C268.219 28.2671 271.219 25.3869 271.219 21.788C271.219 18.189 268.219 15.3192 264.532 15.3192C260.839 15.3192 257.849 18.189 257.849 21.788C257.849 25.3869 260.839 28.2671 264.532 28.2671ZM264.532 26.1786C262.099 26.1786 260.12 24.314 260.12 21.7984C260.12 19.2723 262.089 17.3973 264.532 17.3973C266.98 17.3973 268.959 19.2619 268.959 21.7984C268.959 24.314 266.98 26.1786 264.532 26.1786Z" fill="white"/>
<path d="M275.561 28.0015V23.6109H277.686C277.848 23.6109 278.004 23.6109 278.165 23.6005L280.618 28.0015H283.223L280.415 23.2567C281.941 22.7255 282.941 21.3974 282.941 19.6474C282.941 17.2307 281.144 15.6109 278.639 15.6109H273.29V28.0015H275.561ZM275.561 17.6317H278.551C279.754 17.6317 280.67 18.5172 280.67 19.6474C280.67 20.8557 279.759 21.689 278.561 21.6942H275.561V17.6317Z" fill="white"/>
<path d="M296.16 28.0015L291.004 15.6005H288.853L283.697 28.0015H286.092L287.077 25.6057H292.78L293.764 28.0015H296.16ZM289.848 18.8244L289.92 18.5275H289.947L289.999 18.8244L292.004 23.7098H287.848L289.848 18.8244Z" fill="white"/>
<path d="M299.81 24.2672L300.128 21.6317V15.6109H297.863V21.6213L298.17 24.2672H299.81ZM298.998 28.2203C299.784 28.2203 300.3 27.6838 300.3 27.0067C300.3 26.3453 299.784 25.788 298.998 25.788C298.232 25.788 297.722 26.3453 297.722 27.0067C297.722 27.6734 298.232 28.2203 298.998 28.2203Z" fill="white"/>
</svg>
