<svg width="642" height="439" viewBox="0 0 642 439" fill="none" xmlns="http://www.w3.org/2000/svg">
<path d="M37.4979 41.0098L21.3833 2.90039H16.6229L0.4823 41.0098H5.74792L9.36251 32.3796H28.6177L32.2323 41.0098H37.4979ZM18.8052 9.87956L18.9771 9.23372H19.0344L19.1698 9.87956L26.8521 28.1764H11.1281L18.8052 9.87956Z" fill="#CC8D7F"/>
<path d="M71.0912 8.81185L75.7162 2.14518L72.0444 0.884766L67.7319 8.81185H71.0912ZM68.935 41.8223C76.3881 41.8223 81.9089 37.6191 81.9089 27.6973V12.4264H77.0912V27.5618C77.0912 34.0046 74.1485 37.2806 68.8777 37.2806C63.6381 37.2806 60.6694 33.9785 60.6694 27.5618V12.4264H55.8777V27.6973C55.8777 37.6191 61.3412 41.8223 68.935 41.8223Z" fill="#CC8D7F"/>
<path d="M95.19 41.0097V25.9889C95.19 19.8795 99.5338 16.1295 104.299 16.1295C109.258 16.1295 112.284 19.0149 112.284 25.5983V41.0097H117.101V25.5149C117.101 16.3795 113.122 11.6139 105.529 11.6139C100.685 11.6139 96.6171 14.2754 94.9921 17.9472V12.4264H90.3723V41.0097H95.19Z" fill="#CC8D7F"/>
<path d="M128.394 6.85343C130.467 6.85343 131.728 5.47843 131.728 3.7701C131.728 2.08781 130.467 0.718018 128.42 0.718018C126.405 0.718018 125.144 2.08781 125.144 3.7701C125.144 5.47843 126.405 6.85343 128.394 6.85343ZM130.832 41.0097V12.4264H126.014V41.0097H130.832Z" fill="#CC8D7F"/>
<path d="M152.268 41.8222C159.049 41.8222 164.315 37.5931 165.94 31.4264H161.012C159.523 35.3483 156.132 37.3118 152.294 37.3118C147.335 37.3118 142.486 33.3014 142.486 26.7181C142.486 20.192 147.309 16.1556 152.294 16.1556C156.163 16.1556 159.523 18.0879 161.012 21.7858H165.971C164.262 15.8743 159.075 11.6139 152.268 11.6139C144.002 11.6139 137.669 18.3691 137.669 26.7181C137.669 35.067 144.002 41.8222 152.268 41.8222Z" fill="#CC8D7F"/>
<path d="M183.789 41.8222C188.893 41.8222 193.179 39.1608 195.111 34.9316V41.0097H199.736V12.4264H195.111V18.567C193.179 14.3066 188.919 11.6451 183.763 11.6451C176.002 11.6451 169.976 18.3691 169.976 26.7181C169.976 35.1243 175.971 41.8222 183.789 41.8222ZM184.856 37.3118C179.361 37.3118 174.768 33.0514 174.768 26.7181C174.768 20.5566 179.309 16.1556 184.882 16.1556C190.429 16.1556 194.945 20.8066 194.945 26.7181C194.945 32.7181 190.46 37.3118 184.856 37.3118Z" fill="#CC8D7F"/>
<path d="M235.347 41.8222C242.129 41.8222 247.394 37.5931 249.019 31.4264H244.092C242.603 35.3483 239.212 37.3118 235.374 37.3118C230.415 37.3118 225.566 33.3014 225.566 26.7181C225.566 20.192 230.389 16.1556 235.374 16.1556C239.243 16.1556 242.603 18.0879 244.092 21.7858H249.051C247.342 15.8743 242.155 11.6139 235.347 11.6139C227.082 11.6139 220.749 18.3691 220.749 26.7181C220.749 35.067 227.082 41.8222 235.347 41.8222Z" fill="#CC8D7F"/>
<path d="M260.285 41.0097V1.49927H255.467V41.0097H260.285Z" fill="#CC8D7F"/>
<path d="M274.044 8.81185L278.669 2.14518L274.997 0.884766L270.679 8.81185H274.044ZM274.351 41.0098V12.4264H269.533V41.0098H274.351Z" fill="#CC8D7F"/>
<path d="M288.417 41.0097V25.9889C288.417 19.8795 292.761 16.1295 297.527 16.1295C302.485 16.1295 305.511 19.0149 305.511 25.5983V41.0097H310.329V25.5149C310.329 16.3795 306.35 11.6139 298.756 11.6139C293.912 11.6139 289.844 14.2754 288.219 17.9472V12.4264H283.6V41.0097H288.417Z" fill="#CC8D7F"/>
<path d="M321.622 6.85343C323.694 6.85343 324.955 5.47843 324.955 3.7701C324.955 2.08781 323.694 0.718018 321.648 0.718018C319.632 0.718018 318.372 2.08781 318.372 3.7701C318.372 5.47843 319.632 6.85343 321.622 6.85343ZM324.059 41.0097V12.4264H319.241V41.0097H324.059Z" fill="#CC8D7F"/>
<path d="M345.495 41.8222C352.276 41.8222 357.542 37.5931 359.167 31.4264H354.24C352.75 35.3483 349.36 37.3118 345.521 37.3118C340.563 37.3118 335.714 33.3014 335.714 26.7181C335.714 20.192 340.537 16.1556 345.521 16.1556C349.391 16.1556 352.75 18.0879 354.24 21.7858H359.198C357.49 15.8743 352.302 11.6139 345.495 11.6139C337.229 11.6139 330.896 18.3691 330.896 26.7181C330.896 35.067 337.229 41.8222 345.495 41.8222Z" fill="#CC8D7F"/>
<path d="M377.016 41.8222C382.12 41.8222 386.406 39.1608 388.339 34.9316V41.0097H392.964V12.4264H388.339V18.567C386.406 14.3066 382.146 11.6451 376.99 11.6451C369.229 11.6451 363.203 18.3691 363.203 26.7181C363.203 35.1243 369.198 41.8222 377.016 41.8222ZM378.084 37.3118C372.589 37.3118 367.995 33.0514 367.995 26.7181C367.995 20.5566 372.537 16.1556 378.11 16.1556C383.656 16.1556 388.172 20.8066 388.172 26.7181C388.172 32.7181 383.688 37.3118 378.084 37.3118Z" fill="#CC8D7F"/>
<path d="M428.575 41.8222C435.356 41.8222 440.622 37.5931 442.247 31.4264H437.32C435.83 35.3483 432.439 37.3118 428.601 37.3118C423.642 37.3118 418.794 33.3014 418.794 26.7181C418.794 20.192 423.616 16.1556 428.601 16.1556C432.471 16.1556 435.83 18.0879 437.32 21.7858H442.278C440.57 15.8743 435.382 11.6139 428.575 11.6139C420.309 11.6139 413.976 18.3691 413.976 26.7181C413.976 35.067 420.309 41.8222 428.575 41.8222Z" fill="#CC8D7F"/>
<path d="M461.132 41.8222C469.679 41.8222 476.044 35.1243 476.044 26.7181C476.044 18.3431 469.653 11.6139 461.132 11.6139C452.643 11.6139 446.283 18.3691 446.283 26.7181C446.283 35.1243 452.674 41.8222 461.132 41.8222ZM461.189 37.2806C455.502 37.2806 451.101 32.8014 451.101 26.7181C451.101 20.692 455.502 16.1556 461.189 16.1556C466.851 16.1556 471.221 20.692 471.221 26.7181C471.221 32.8014 466.851 37.2806 461.189 37.2806Z" fill="#CC8D7F"/>
<path d="M517.791 11.6139C513.364 11.6139 509.499 14.0826 507.286 18.9576C505.801 14.1087 502.437 11.6139 497.306 11.6139C492.713 11.6139 488.931 14.3639 487.473 17.9472L487.416 12.4264H482.879V41.0097H487.64V25.9889C487.64 20.1608 491.65 16.1295 496.02 16.1295C500.588 16.1295 503.364 19.0149 503.364 25.5983V41.0097H508.124V25.9889C508.124 20.1608 512.129 16.1295 516.473 16.1295C521.072 16.1295 523.843 19.041 523.843 25.5983V41.0097H528.635V25.5149C528.635 16.3795 524.879 11.6139 517.791 11.6139Z" fill="#CC8D7F"/>
<path d="M46.7739 119.621V107.735H19.3364V96.1052H42.5604V84.975H19.3364V74.1469H46.3937V62.3031H5.97705V119.621H46.7739Z" fill="#D9BAA8"/>
<path d="M68.4785 119.621V83.4594L83.0202 104.194H86.39L101.098 83.5844V119.621H114.421V62.3031H102.786L84.7077 86.9125V86.9594L66.8796 62.3031H55.1191V119.621H68.4785Z" fill="#D9BAA8"/>
<path d="M146.953 121.053C161.156 121.053 170.895 114.814 170.895 103.35C170.895 92.1833 162 87.3344 150.494 85.0166C141.473 83.3344 137.682 81.5219 137.682 77.8552C137.682 75.2406 139.156 72.501 146.281 72.501C153.276 72.501 155.552 75.7041 155.552 78.9073H168.911C168.911 67.9489 161.453 60.8656 146.447 60.8656C131.614 60.8656 124.322 67.7823 124.322 77.7666C124.322 89.9073 136.208 93.6989 145.859 96.0166C153.276 97.7041 157.364 99.35 157.364 103.308C157.364 107.652 154.375 109.845 146.911 109.845C140.083 109.845 136.25 106.642 136.25 101.876H122.89C122.89 111.147 129.38 121.053 146.953 121.053Z" fill="#D9BAA8"/>
<path d="M206.086 120.928C218.264 120.928 232.008 113.72 234.451 97.0323H220.795C218.816 105.418 212.784 108.704 205.706 108.704C196.435 108.704 188.805 102.298 188.805 90.9177C188.805 79.8344 196.435 73.0896 205.706 73.0896C212.831 73.0896 218.816 76.4177 220.836 84.8083H234.451C232.008 68.0739 218.139 60.8656 206.086 60.8656C189.102 60.8656 175.446 74.1885 175.446 90.876C175.446 107.527 189.102 120.928 206.086 120.928Z" fill="#D9BAA8"/>
<path d="M266.86 120.928C282.073 120.928 292.021 111.105 292.021 97.4958V62.3031H278.662V96.5219C278.662 103.522 274.406 108.829 266.86 108.829C259.146 108.829 254.974 103.48 254.974 96.5219V62.3031H241.656V97.4958C241.656 111.949 252.615 120.928 266.86 120.928Z" fill="#D9BAA8"/>
<path d="M340.28 119.621V107.735H316.212V62.3031H302.853V119.621H340.28Z" fill="#D9BAA8"/>
<path d="M361.182 119.621V102.595H372.812C384.744 102.595 393.296 94.501 393.296 82.1521C393.296 70.6468 384.656 62.3031 372.645 62.3031H347.822V119.621H361.182ZM361.182 74.1885H372.098C376.484 74.1885 379.937 78.1469 379.937 82.1521C379.937 87.001 376.437 90.751 372.098 90.751H361.182V74.1885Z" fill="#D9BAA8"/>
<path d="M425.162 119.621V74.1885H441.177V62.3031H395.823V74.1885H411.886V119.621H425.162Z" fill="#D9BAA8"/>
<path d="M482.688 119.621V84.0062H482.73L510.126 119.621H521.673V62.3031H508.313V97.8708L481.001 62.3031H469.329V119.621H482.688Z" fill="#D9BAA8"/>
<path d="M574.188 119.621V107.735H546.75V96.1052H569.974V84.975H546.75V74.1469H573.807V62.3031H533.391V119.621H574.188Z" fill="#D9BAA8"/>
<path d="M610.054 120.928C627.21 120.928 641.2 107.527 641.2 90.876C641.2 74.1885 627.21 60.8656 610.054 60.8656C592.814 60.8656 578.866 74.1885 578.866 90.876C578.866 107.527 592.814 120.928 610.054 120.928ZM610.054 108.704C600.189 108.704 592.226 101.246 592.226 90.9177C592.226 80.5531 600.106 73.0896 610.054 73.0896C619.96 73.0896 627.882 80.5531 627.882 90.9177C627.882 101.246 619.96 108.704 610.054 108.704Z" fill="#D9BAA8"/>
<path d="M18.0927 181.076V171.227H27.7229V166.003H18.0927V156.185H12.7073V166.003L3.20728 166.029V171.201L12.7073 171.227V181.076H18.0927Z" fill="#CC8D7F"/>
<path d="M59.0098 185.107V179.404H45.4734L42.5046 180.039L51.3901 172.263C55.6088 168.602 58.3432 164.94 58.3432 160.216C58.3432 153.69 53.5932 148.409 45.6609 148.409C36.588 148.409 32.7911 155.44 32.7911 162.42H39.3432C39.3432 156.581 42.4526 154.487 45.8223 154.487C49.2703 154.487 51.739 156.873 51.739 160.216C51.739 163.67 49.0046 166.482 44.4682 170.618L32.6609 181.341V185.107H59.0098Z" fill="#CC8D7F"/>
<path d="M76.5483 185.93C84.6942 185.93 89.8921 179.987 89.8921 173.352C89.8921 166.586 85.0379 162.498 77.1317 162.498H71.9806L73.0692 154.378H87.3973V148.992H67.4963L65.2931 164.862L68.1369 167.17L75.4338 167.196C80.2619 167.222 83.2879 169.295 83.2879 173.3C83.2879 177.013 80.5535 179.904 76.5483 179.904C73.6525 179.904 70.1265 178.263 69.4077 173.831H62.9858C63.7046 182.878 70.4181 185.93 76.5483 185.93Z" fill="#CC8D7F"/>
<path d="M103.581 166.243C108.972 166.243 113.133 162.394 113.133 157.352C113.133 152.232 108.998 148.409 103.581 148.409C98.1956 148.409 94.0549 152.284 94.0549 157.352C94.0549 162.394 98.1956 166.243 103.581 166.243ZM107.482 185.133L129.638 149.045H123.67L101.591 185.133H107.482ZM103.607 161.784C101.143 161.784 99.4456 159.873 99.4456 157.352C99.4456 154.727 101.143 152.815 103.581 152.815C106.05 152.815 107.748 154.779 107.748 157.404C107.748 159.899 106.05 161.784 103.607 161.784ZM126.617 185.664C132.029 185.664 136.17 181.815 136.17 176.774C136.17 171.68 132.029 167.831 126.643 167.831C121.253 167.831 117.117 171.732 117.117 176.8C117.117 181.815 121.253 185.664 126.617 185.664ZM126.67 181.232C124.201 181.232 122.503 179.295 122.503 176.774C122.503 174.175 124.201 172.263 126.643 172.263C129.055 172.263 130.81 174.201 130.81 176.826C130.81 179.347 129.107 181.232 126.67 181.232Z" fill="#CC8D7F"/>
<path d="M167.425 185.93C171.987 185.93 175.247 183.383 176.867 180.519V185.107H182.971V147.748H176.576V159.446L176.711 162.289C175.279 159.711 171.961 157.008 167.503 157.008C159.539 157.008 154.237 163.508 154.237 171.466C154.237 179.482 159.675 185.93 167.425 185.93ZM168.591 180.013C163.893 180.013 160.55 176.3 160.55 171.466C160.55 166.508 164.055 162.951 168.591 162.951C173.102 162.951 176.628 166.69 176.628 171.466C176.628 176.3 173.076 180.013 168.591 180.013Z" fill="#CC8D7F"/>
<path d="M216.43 170.992C216.43 163.482 210.909 157.008 202.685 157.008C194.487 157.008 188.545 163.508 188.545 171.466C188.545 179.43 194.487 185.93 202.685 185.93C209.477 185.93 214.336 181.446 215.711 176.534H208.706C207.779 178.847 205.789 180.196 202.555 180.196C198.784 180.196 195.654 177.623 194.993 173.164H216.3C216.404 172.159 216.43 171.68 216.43 170.992ZM195.253 168.206C196.342 164.357 199.42 162.607 202.659 162.607C206.425 162.607 209.612 165.154 209.878 168.206H195.253Z" fill="#CC8D7F"/>
<path d="M268.331 157.008C264.43 157.008 261.113 158.972 258.779 163.164C257.264 159.154 254.238 157.008 249.675 157.008C245.644 157.008 242.378 159.185 240.972 162.076L240.894 157.831H234.894V185.107H241.238V171.175C241.238 166.268 244.368 162.925 247.821 162.925C251.321 162.925 253.55 165.154 253.55 170.539V185.107H259.894V171.175C259.894 166.268 263.05 162.925 266.472 162.925C270.003 162.925 272.232 165.154 272.232 170.539V185.107H278.571V170.409C278.571 161.836 275.175 157.008 268.331 157.008Z" fill="#CC8D7F"/>
<path d="M300.724 154.591L305.182 148.253L300.432 146.581L296.427 154.591H300.724ZM298.151 185.93C305.37 185.93 310.943 182.107 310.943 172.399V157.831H304.547V172.211C304.547 177.201 302.422 179.961 298.125 179.961C293.854 179.961 291.677 177.253 291.677 172.211V157.831H285.307V172.399C285.307 182.107 290.854 185.93 298.151 185.93Z" fill="#CC8D7F"/>
<path d="M327.708 185.93C334.291 185.93 339.171 183.013 339.171 177.013C339.171 171.227 334.77 169.586 329.114 168.737C324.421 167.992 323.411 167.331 323.411 165.284C323.411 163.638 324.629 162.263 327.39 162.263C330.364 162.263 331.958 163.696 332.088 165.711L338.379 165.763C338.379 160.56 333.947 157.008 327.364 157.008C320.702 157.008 317.098 160.404 317.098 165.42C317.098 171.071 321.609 173.164 326.859 173.857C330.577 174.414 332.619 175.076 332.619 177.383C332.619 179.456 331.077 180.836 327.765 180.836C324.103 180.836 322.244 178.951 322.14 176.456L315.984 176.43C315.984 181.232 319.697 185.93 327.708 185.93Z" fill="#CC8D7F"/>
<path d="M356.632 185.93C363.638 185.93 368.784 181.446 370.19 175.128H363.664C362.471 178.529 359.763 179.987 356.659 179.987C352.731 179.987 348.909 176.857 348.909 171.466C348.909 166.107 352.705 162.977 356.659 162.977C359.763 162.977 362.445 164.435 363.664 167.461H370.216C368.679 161.466 363.664 157.008 356.632 157.008C348.487 157.008 342.544 163.534 342.544 171.466C342.544 179.43 348.487 185.93 356.632 185.93Z" fill="#CC8D7F"/>
<path d="M387.648 185.93C394.867 185.93 400.44 182.107 400.44 172.399V157.831H394.044V172.211C394.044 177.201 391.919 179.961 387.622 179.961C383.351 179.961 381.174 177.253 381.174 172.211V157.831H374.804V172.399C374.804 182.107 380.351 185.93 387.648 185.93Z" fill="#CC8D7F"/>
<path d="M413.809 185.107V147.722H407.387V185.107H413.809Z" fill="#CC8D7F"/>
<path d="M433.712 185.93C442.124 185.93 448.145 179.508 448.145 171.466C448.145 163.482 442.124 157.008 433.738 157.008C425.379 157.008 419.384 163.508 419.384 171.466C419.384 179.482 425.405 185.93 433.712 185.93ZM433.764 179.961C429.171 179.961 425.749 176.404 425.749 171.466C425.749 166.56 429.171 162.951 433.764 162.951C438.353 162.951 441.775 166.56 441.775 171.466C441.775 176.404 438.353 179.961 433.764 179.961Z" fill="#CC8D7F"/>
<path d="M463.558 185.93C470.141 185.93 475.021 183.013 475.021 177.013C475.021 171.227 470.62 169.586 464.964 168.737C460.271 167.992 459.261 167.331 459.261 165.284C459.261 163.638 460.48 162.263 463.24 162.263C466.214 162.263 467.808 163.696 467.938 165.711L474.23 165.763C474.23 160.56 469.798 157.008 463.214 157.008C456.553 157.008 452.949 160.404 452.949 165.42C452.949 171.071 457.459 173.164 462.709 173.857C466.428 174.414 468.469 175.076 468.469 177.383C468.469 179.456 466.928 180.836 463.615 180.836C459.954 180.836 458.094 178.951 457.99 176.456L451.834 176.43C451.834 181.232 455.548 185.93 463.558 185.93Z" fill="#CC8D7F"/>
<path d="M21.3323 225.449V220.167H3.20728V225.449H21.3323Z" fill="#CC8D7F"/>
<path d="M39.3707 238.053C47.0165 238.053 52.7196 232.719 52.7196 225.766C52.7196 218.443 48.0217 215.261 40.9905 214.678L41.178 214.412L49.5634 204.594V201.141H27.803V206.501H41.5999L41.5478 206.61L33.9592 216.001V219.318H38.6832C43.2978 219.318 46.0842 222.079 46.0842 225.579C46.0842 229.298 43.0894 232.027 39.5321 232.027C36.2405 232.027 32.579 230.355 32.4228 225.079H25.8655C26.0009 234.443 32.553 238.053 39.3707 238.053Z" fill="#CC8D7F"/>
<path d="M71.2683 238.053C81.56 238.053 86.7371 229.48 86.7371 219.214C86.7371 209.449 82.3048 200.318 71.211 200.318C61.2631 200.318 55.7683 208.787 55.7683 219.344C55.7683 229.454 60.81 238.053 71.2683 238.053ZM71.2683 231.975C65.7214 231.975 62.3777 226.751 62.3777 219.292C62.3777 211.652 65.8516 206.396 71.211 206.396C76.9975 206.396 80.1277 211.865 80.1277 219.214C80.1277 226.725 76.7839 231.975 71.2683 231.975Z" fill="#CC8D7F"/>
<path d="M100.371 218.365C105.761 218.365 109.923 214.516 109.923 209.475C109.923 204.355 105.787 200.532 100.371 200.532C94.9851 200.532 90.8445 204.407 90.8445 209.475C90.8445 214.516 94.9851 218.365 100.371 218.365ZM104.272 237.256L126.428 201.167H120.459L98.3809 237.256H104.272ZM100.397 213.907C97.933 213.907 96.2351 211.996 96.2351 209.475C96.2351 206.85 97.933 204.938 100.371 204.938C102.839 204.938 104.537 206.902 104.537 209.527C104.537 212.022 102.839 213.907 100.397 213.907ZM123.407 237.787C128.818 237.787 132.959 233.938 132.959 228.897C132.959 223.803 128.818 219.954 123.433 219.954C118.042 219.954 113.907 223.855 113.907 228.923C113.907 233.938 118.042 237.787 123.407 237.787ZM123.459 233.355C120.99 233.355 119.292 231.417 119.292 228.897C119.292 226.298 120.99 224.386 123.433 224.386C125.844 224.386 127.6 226.324 127.6 228.949C127.6 231.469 125.897 233.355 123.459 233.355Z" fill="#CC8D7F"/>
<path d="M164.214 238.053C168.777 238.053 172.037 235.506 173.657 232.641V237.23H179.761V199.87H173.365V211.568L173.501 214.412C172.068 211.834 168.751 209.131 164.292 209.131C156.329 209.131 151.027 215.631 151.027 223.589C151.027 231.605 156.464 238.053 164.214 238.053ZM165.381 232.136C160.683 232.136 157.339 228.423 157.339 223.589C157.339 218.631 160.844 215.074 165.381 215.074C169.891 215.074 173.417 218.813 173.417 223.589C173.417 228.423 169.865 232.136 165.381 232.136Z" fill="#CC8D7F"/>
<path d="M213.219 223.115C213.219 215.605 207.699 209.131 199.475 209.131C191.277 209.131 185.334 215.631 185.334 223.589C185.334 231.553 191.277 238.053 199.475 238.053C206.266 238.053 211.126 233.568 212.501 228.657H205.495C204.568 230.969 202.579 232.318 199.344 232.318C195.574 232.318 192.443 229.745 191.782 225.287H213.089C213.193 224.282 213.219 223.803 213.219 223.115ZM192.042 220.329C193.131 216.48 196.209 214.73 199.449 214.73C203.214 214.73 206.402 217.277 206.667 220.329H192.042Z" fill="#CC8D7F"/>
<path d="M244.183 247.579C253.443 247.579 258.511 241.766 258.511 234.1V209.954H252.407V214.594C250.975 211.782 247.605 209.131 242.725 209.131C235.136 209.131 229.751 215.631 229.751 223.032C229.751 230.464 235.188 236.568 242.938 236.568C246.996 236.568 250.527 234.975 252.381 231.391V234.178C252.381 238.449 250.1 242.167 244.157 242.167C239.303 242.167 237.469 240.068 236.912 237.204H230.865C231.048 242.376 234.871 247.579 244.183 247.579ZM244.131 230.995C239.621 230.995 236.115 227.626 236.115 223.006C236.115 218.313 239.621 215.074 244.131 215.074C248.641 215.074 252.141 218.761 252.141 223.006C252.141 227.36 248.615 230.995 244.131 230.995Z" fill="#CC8D7F"/>
<path d="M278.44 238.053C286.851 238.053 292.872 231.631 292.872 223.589C292.872 215.605 286.851 209.131 278.466 209.131C270.106 209.131 264.112 215.631 264.112 223.589C264.112 231.605 270.132 238.053 278.44 238.053ZM278.492 232.084C273.898 232.084 270.476 228.527 270.476 223.589C270.476 218.683 273.898 215.074 278.492 215.074C283.08 215.074 286.502 218.683 286.502 223.589C286.502 228.527 283.08 232.084 278.492 232.084Z" fill="#CC8D7F"/>
<path d="M304.889 237.23V224.548C304.889 218.735 307.889 215.469 312.296 215.469H314.869V209.954H311.952C308.395 209.954 305.9 211.891 304.624 214.886V209.954H298.468V237.23H304.889Z" fill="#CC8D7F"/>
<path d="M330.71 238.053C335.273 238.053 338.533 235.506 340.153 232.641V237.23H346.257V199.87H339.861V211.568L339.997 214.412C338.565 211.834 335.247 209.131 330.789 209.131C322.825 209.131 317.523 215.631 317.523 223.589C317.523 231.605 322.96 238.053 330.71 238.053ZM331.877 232.136C327.179 232.136 323.835 228.423 323.835 223.589C323.835 218.631 327.341 215.074 331.877 215.074C336.388 215.074 339.914 218.813 339.914 223.589C339.914 228.423 336.361 232.136 331.877 232.136Z" fill="#CC8D7F"/>
<path d="M366.023 238.053C373.242 238.053 378.815 234.23 378.815 224.522V209.954H372.419V224.334C372.419 229.324 370.294 232.084 365.997 232.084C361.726 232.084 359.549 229.376 359.549 224.334V209.954H353.179V224.522C353.179 234.23 358.726 238.053 366.023 238.053Z" fill="#CC8D7F"/>
<path d="M392.184 237.23V224.548C392.184 218.735 395.184 215.469 399.59 215.469H402.163V209.954H399.246C395.689 209.954 393.194 211.891 391.918 214.886V209.954H385.762V237.23H392.184Z" fill="#CC8D7F"/>
<path d="M417.656 238.053C422.088 238.053 425.698 236.037 427.474 232.641V237.23H433.578V209.954H427.474V214.568C425.724 211.173 422.088 209.131 417.63 209.131C410.333 209.131 404.818 215.631 404.818 223.589C404.818 231.605 410.281 238.053 417.656 238.053ZM419.198 232.11C414.87 232.11 411.182 228.896 411.182 223.589C411.182 218.469 414.792 215.074 419.198 215.074C423.656 215.074 427.208 218.839 427.208 223.589C427.208 228.423 423.682 232.11 419.198 232.11Z" fill="#CC8D7F"/>
<path d="M21.3323 276.313V271.031H3.20728V276.313H21.3323Z" fill="#CC8D7F"/>
<path d="M38.3914 288.094V251.979H32.8966L25.282 254.927L25.308 260.735L31.782 258.214V288.094H38.3914Z" fill="#CC8D7F"/>
<path d="M57.4437 251.24C49.5062 251.24 44.225 256.677 44.225 263.521C44.225 270.37 49.6677 275.276 55.6885 275.276C56.9385 275.276 58.1573 274.906 59.2198 274.297L50.1729 288.094H57.7875L66.0635 275.037C69.3812 269.813 70.6573 267.24 70.6573 263.521C70.6573 256.677 65.376 251.24 57.4437 251.24ZM57.4177 257.261C61.0219 257.261 63.6521 259.807 63.6521 263.443C63.6521 266.333 61.475 269.703 57.4177 269.703C53.8344 269.703 51.2614 267.052 51.2614 263.443C51.2614 259.807 53.8344 257.261 57.4177 257.261Z" fill="#CC8D7F"/>
<path d="M84.424 269.229C89.8146 269.229 93.9761 265.38 93.9761 260.339C93.9761 255.219 89.8407 251.396 84.424 251.396C79.0386 251.396 74.8979 255.271 74.8979 260.339C74.8979 265.38 79.0386 269.229 84.424 269.229ZM88.325 288.12L110.481 252.031H104.513L82.4344 288.12H88.325ZM84.45 264.771C81.9865 264.771 80.2886 262.86 80.2886 260.339C80.2886 257.714 81.9865 255.802 84.424 255.802C86.8927 255.802 88.5907 257.766 88.5907 260.391C88.5907 262.886 86.8927 264.771 84.45 264.771ZM107.46 288.651C112.872 288.651 117.013 284.802 117.013 279.761C117.013 274.667 112.872 270.818 107.486 270.818C102.096 270.818 97.9604 274.719 97.9604 279.787C97.9604 284.802 102.096 288.651 107.46 288.651ZM107.513 284.219C105.044 284.219 103.346 282.281 103.346 279.761C103.346 277.162 105.044 275.25 107.486 275.25C109.898 275.25 111.653 277.188 111.653 279.813C111.653 282.333 109.95 284.219 107.513 284.219Z" fill="#CC8D7F"/>
<path d="M148.268 288.917C152.83 288.917 156.09 286.37 157.71 283.505V288.094H163.814V250.734H157.419V262.432L157.554 265.276C156.122 262.698 152.804 259.995 148.346 259.995C140.382 259.995 135.08 266.495 135.08 274.453C135.08 282.469 140.518 288.917 148.268 288.917ZM149.434 283C144.736 283 141.393 279.287 141.393 274.453C141.393 269.495 144.898 265.938 149.434 265.938C153.945 265.938 157.471 269.677 157.471 274.453C157.471 279.287 153.919 283 149.434 283Z" fill="#CC8D7F"/>
<path d="M182.226 288.917C186.658 288.917 190.268 286.901 192.044 283.505V288.094H198.148V260.818H192.044V265.432C190.294 262.037 186.658 259.995 182.2 259.995C174.903 259.995 169.387 266.495 169.387 274.453C169.387 282.469 174.851 288.917 182.226 288.917ZM183.768 282.974C179.44 282.974 175.752 279.761 175.752 274.453C175.752 269.334 179.361 265.938 183.768 265.938C188.226 265.938 191.778 269.703 191.778 274.453C191.778 279.287 188.252 282.974 183.768 282.974Z" fill="#CC8D7F"/>
<path d="M230.176 288.917C234.738 288.917 237.999 286.37 239.618 283.505V288.094H245.723V250.734H239.327V262.432L239.462 265.276C238.03 262.698 234.712 259.995 230.254 259.995C222.29 259.995 216.988 266.495 216.988 274.453C216.988 282.469 222.426 288.917 230.176 288.917ZM231.342 283C226.645 283 223.301 279.287 223.301 274.453C223.301 269.495 226.806 265.938 231.342 265.938C235.853 265.938 239.379 269.677 239.379 274.453C239.379 279.287 235.827 283 231.342 283Z" fill="#CC8D7F"/>
<path d="M256.39 256.573C258.989 256.573 260.447 254.953 260.447 252.88C260.447 250.891 258.989 249.219 256.416 249.219C253.895 249.219 252.437 250.891 252.437 252.88C252.437 254.927 253.921 256.573 256.39 256.573ZM259.65 288.094V260.818H253.228V288.094H259.65Z" fill="#CC8D7F"/>
<path d="M284.648 257.578L289.106 251.24L284.356 249.568L280.346 257.578H284.648ZM278.064 288.917C282.497 288.917 286.106 286.901 287.882 283.505V288.094H293.986V260.818H287.882V265.432C286.132 262.037 282.497 259.995 278.038 259.995C270.741 259.995 265.226 266.495 265.226 274.453C265.226 282.469 270.689 288.917 278.064 288.917ZM279.606 282.974C275.278 282.974 271.59 279.761 271.59 274.453C271.59 269.333 275.2 265.938 279.606 265.938C284.064 265.938 287.616 269.703 287.616 274.453C287.616 279.287 284.09 282.974 279.606 282.974Z" fill="#CC8D7F"/>
<path d="M311.337 288.917C317.92 288.917 322.8 286 322.8 280C322.8 274.214 318.399 272.573 312.743 271.724C308.05 270.979 307.04 270.318 307.04 268.271C307.04 266.625 308.258 265.25 311.019 265.25C313.993 265.25 315.587 266.682 315.717 268.698L322.008 268.75C322.008 263.547 317.576 259.995 310.993 259.995C304.331 259.995 300.727 263.391 300.727 268.406C300.727 274.057 305.238 276.151 310.488 276.844C314.206 277.401 316.248 278.063 316.248 280.37C316.248 282.443 314.706 283.823 311.394 283.823C307.732 283.823 305.873 281.938 305.769 279.443L299.613 279.417C299.613 284.219 303.326 288.917 311.337 288.917Z" fill="#CC8D7F"/>
<path d="M344.876 288.094V282.761H340.657C338.615 282.761 336.704 281.834 336.704 278.011V266.334H344.876V260.818H336.704V252.776L330.282 252.828V260.818H324.631V266.334H330.282V277.719C330.282 286.714 335.22 288.094 339.329 288.094H344.876Z" fill="#CC8D7F"/>
<path d="M360.981 288.917C365.413 288.917 369.023 286.901 370.799 283.505V288.094H376.903V260.818H370.799V265.432C369.049 262.037 365.413 259.995 360.955 259.995C353.658 259.995 348.142 266.495 348.142 274.453C348.142 282.469 353.606 288.917 360.981 288.917ZM362.523 282.974C358.194 282.974 354.507 279.761 354.507 274.453C354.507 269.334 358.116 265.938 362.523 265.938C366.981 265.938 370.533 269.703 370.533 274.453C370.533 279.287 367.007 282.974 362.523 282.974Z" fill="#CC8D7F"/>
<path d="M394.253 288.917C400.836 288.917 405.717 286 405.717 280C405.717 274.214 401.316 272.573 395.659 271.724C390.967 270.979 389.956 270.318 389.956 268.271C389.956 266.625 391.175 265.25 393.935 265.25C396.909 265.25 398.503 266.682 398.633 268.698L404.925 268.75C404.925 263.547 400.493 259.995 393.909 259.995C387.248 259.995 383.644 263.391 383.644 268.406C383.644 274.057 388.154 276.151 393.404 276.844C397.123 277.401 399.164 278.063 399.164 280.37C399.164 282.443 397.623 283.823 394.31 283.823C390.649 283.823 388.789 281.938 388.685 279.443L382.529 279.417C382.529 284.219 386.243 288.917 394.253 288.917Z" fill="#CC8D7F"/>
<path d="M436.975 273.979C436.975 266.469 431.454 259.995 423.23 259.995C415.032 259.995 409.089 266.495 409.089 274.453C409.089 282.417 415.032 288.917 423.23 288.917C430.022 288.917 434.881 284.432 436.256 279.521H429.251C428.324 281.834 426.334 283.182 423.1 283.182C419.329 283.182 416.199 280.61 415.537 276.151H436.845C436.949 275.146 436.975 274.667 436.975 273.979ZM415.798 271.193C416.886 267.344 419.964 265.594 423.204 265.594C426.97 265.594 430.157 268.141 430.423 271.193H415.798Z" fill="#CC8D7F"/>
<path d="M21.3323 325.216V319.934H3.20728V325.216H21.3323Z" fill="#CC8D7F"/>
<path d="M40.2507 337.82C48.3966 337.82 53.5945 331.877 53.5945 325.242C53.5945 318.476 48.7403 314.388 40.8341 314.388H35.683L36.7716 306.268H51.0997V300.882H31.1986L28.9955 316.752L31.8393 319.059L39.1361 319.085C43.9643 319.111 46.9903 321.184 46.9903 325.19C46.9903 328.903 44.2559 331.794 40.2507 331.794C37.3549 331.794 33.8289 330.153 33.1101 325.721H26.6882C27.407 334.768 34.1205 337.82 40.2507 337.82Z" fill="#CC8D7F"/>
<path d="M62.2156 341.934L66.8354 331.054H60.5697L57.4656 341.934H62.2156Z" fill="#CC8D7F"/>
<path d="M83.7383 300.143C75.8008 300.143 70.5195 305.58 70.5195 312.424C70.5195 319.273 75.9622 324.179 81.9831 324.179C83.2331 324.179 84.4518 323.809 85.5143 323.2L76.4674 336.997H84.082L92.3581 323.94C95.6758 318.716 96.9518 316.143 96.9518 312.424C96.9518 305.58 91.6706 300.143 83.7383 300.143ZM83.7122 306.164C87.3164 306.164 89.9466 308.71 89.9466 312.346C89.9466 315.236 87.7695 318.606 83.7122 318.606C80.1289 318.606 77.556 315.955 77.556 312.346C77.556 308.71 80.1289 306.164 83.7122 306.164Z" fill="#CC8D7F"/>
<path d="M114.755 337.82C121.76 337.82 126.906 333.335 128.312 327.018H121.786C120.593 330.419 117.885 331.877 114.781 331.877C110.854 331.877 107.031 328.747 107.031 323.356C107.031 317.997 110.828 314.867 114.781 314.867C117.885 314.867 120.567 316.325 121.786 319.351H128.338C126.802 313.356 121.786 308.898 114.755 308.898C106.609 308.898 100.666 315.424 100.666 323.356C100.666 331.32 106.609 337.82 114.755 337.82Z" fill="#CC8D7F"/>
<path d="M166.948 308.898C163.046 308.898 159.729 310.861 157.395 315.054C155.88 311.044 152.854 308.898 148.291 308.898C144.26 308.898 140.994 311.075 139.588 313.966L139.51 309.721H133.51V336.997H139.854V323.065C139.854 318.158 142.984 314.815 146.437 314.815C149.937 314.815 152.166 317.044 152.166 322.429V336.997H158.51V323.065C158.51 318.158 161.666 314.815 165.088 314.815C168.619 314.815 170.849 317.044 170.849 322.429V336.997H177.187V322.299C177.187 313.726 173.791 308.898 166.948 308.898Z" fill="#CC8D7F"/>
<path d="M209.002 337.82C213.565 337.82 216.825 335.273 218.445 332.408V336.997H224.549V299.637H218.153V311.335L218.289 314.179C216.856 311.601 213.539 308.898 209.08 308.898C201.117 308.898 195.815 315.398 195.815 323.356C195.815 331.372 201.252 337.82 209.002 337.82ZM210.169 331.903C205.471 331.903 202.127 328.19 202.127 323.356C202.127 318.398 205.632 314.841 210.169 314.841C214.679 314.841 218.205 318.58 218.205 323.356C218.205 328.19 214.653 331.903 210.169 331.903Z" fill="#CC8D7F"/>
<path d="M258.008 322.882C258.008 315.372 252.487 308.898 244.263 308.898C236.065 308.898 230.122 315.398 230.122 323.356C230.122 331.32 236.065 337.82 244.263 337.82C251.055 337.82 255.914 333.335 257.289 328.424H250.284C249.357 330.736 247.367 332.085 244.133 332.085C240.362 332.085 237.232 329.513 236.57 325.054H257.878C257.982 324.049 258.008 323.57 258.008 322.882ZM236.831 320.096C237.919 316.247 240.997 314.497 244.237 314.497C248.003 314.497 251.19 317.044 251.456 320.096H236.831Z" fill="#CC8D7F"/>
<path d="M288.628 337.82C295.633 337.82 300.779 333.335 302.185 327.018H295.659C294.466 330.419 291.758 331.877 288.654 331.877C284.727 331.877 280.904 328.747 280.904 323.356C280.904 317.997 284.701 314.867 288.654 314.867C291.758 314.867 294.44 316.325 295.659 319.351H302.211C300.674 313.356 295.659 308.898 288.628 308.898C280.482 308.898 274.539 315.424 274.539 323.356C274.539 331.32 280.482 337.82 288.628 337.82Z" fill="#CC8D7F"/>
<path d="M310.544 305.476C313.143 305.476 314.601 303.856 314.601 301.783C314.601 299.794 313.143 298.122 310.57 298.122C308.049 298.122 306.591 299.794 306.591 301.783C306.591 303.83 308.075 305.476 310.544 305.476ZM313.805 336.997V309.721H307.383V336.997H313.805Z" fill="#CC8D7F"/>
<path d="M327.735 336.997V323.065C327.735 317.731 331.188 314.815 334.953 314.815C338.828 314.815 341.271 317.018 341.271 322.429V336.997H347.693V322.299C347.693 313.726 344.058 308.898 336.729 308.898C332.537 308.898 328.985 310.992 327.417 313.966V309.721H321.313V336.997H327.735Z" fill="#CC8D7F"/>
<path d="M371.781 336.997V331.664H367.562C365.52 331.664 363.609 330.736 363.609 326.914V315.236H371.781V309.721H363.609V301.679L357.187 301.731V309.721H351.536V315.236H357.187V326.622C357.187 335.617 362.124 336.997 366.234 336.997H371.781Z" fill="#CC8D7F"/>
<path d="M389.24 337.82C396.459 337.82 402.032 333.997 402.032 324.289V309.721H395.636V324.101C395.636 329.091 393.511 331.851 389.214 331.851C384.943 331.851 382.766 329.143 382.766 324.101V309.721H376.396V324.289C376.396 333.997 381.943 337.82 389.24 337.82Z" fill="#CC8D7F"/>
<path d="M415.401 336.997V324.315C415.401 318.502 418.401 315.236 422.807 315.236H425.38V309.721H422.463C418.906 309.721 416.411 311.658 415.135 314.653V309.721H408.979V336.997H415.401Z" fill="#CC8D7F"/>
<path d="M440.873 337.82C445.305 337.82 448.914 335.804 450.69 332.408V336.997H456.795V309.721H450.69V314.335C448.94 310.94 445.305 308.898 440.847 308.898C433.55 308.898 428.034 315.398 428.034 323.356C428.034 331.372 433.498 337.82 440.873 337.82ZM442.414 331.877C438.086 331.877 434.399 328.664 434.399 323.356C434.399 318.236 438.008 314.841 442.414 314.841C446.873 314.841 450.425 318.606 450.425 323.356C450.425 328.19 446.899 331.877 442.414 331.877Z" fill="#CC8D7F"/>
<path d="M12.8782 394.79C19.3886 394.79 24.2532 390.244 24.2532 384.316C24.2532 378.072 20.248 375.358 14.2532 374.858L14.4146 374.634L21.5605 366.264V363.322H3.01359V367.895H14.774L14.7323 367.983L8.26359 375.988V378.816H12.2896C16.2219 378.816 18.5969 381.171 18.5969 384.155C18.5969 387.322 16.0448 389.655 13.0136 389.655C10.2063 389.655 7.08651 388.228 6.95109 383.728H1.36255C1.47713 391.712 7.06047 394.79 12.8782 394.79Z" fill="#CC8D7F"/>
<path d="M40.0604 394.79C48.8364 394.79 53.2479 387.483 53.2479 378.728C53.2479 370.405 49.4718 362.624 40.0135 362.624C31.5343 362.624 26.8521 369.837 26.8521 378.843C26.8521 387.457 31.1489 394.79 40.0604 394.79ZM40.0604 389.608C35.3312 389.608 32.4823 385.15 32.4823 378.796C32.4823 372.28 35.4458 367.801 40.0135 367.801C44.9458 367.801 47.6177 372.462 47.6177 378.728C47.6177 385.129 44.7635 389.608 40.0604 389.608Z" fill="#CC8D7F"/>
<path d="M97.7344 370.134C94.4115 370.134 91.5833 371.806 89.5938 375.379C88.3021 371.962 85.724 370.134 81.8333 370.134C78.3958 370.134 75.6094 371.988 74.4115 374.452L74.3438 370.832H69.2344V394.087H74.6406V382.212C74.6406 378.025 77.3073 375.176 80.25 375.176C83.2344 375.176 85.1354 377.077 85.1354 381.671V394.087H90.5417V382.212C90.5417 378.025 93.2344 375.176 96.151 375.176C99.1615 375.176 101.063 377.077 101.063 381.671V394.087H106.469V381.556C106.469 374.249 103.573 370.134 97.7344 370.134Z" fill="#CC8D7F"/>
<path d="M115.395 367.212C117.609 367.212 118.853 365.832 118.853 364.072C118.853 362.374 117.609 360.947 115.416 360.947C113.265 360.947 112.02 362.374 112.02 364.072C112.02 365.811 113.291 367.212 115.395 367.212ZM118.176 394.087V370.832H112.702V394.087H118.176Z" fill="#CC8D7F"/>
<path d="M130.05 394.087V382.212C130.05 377.665 132.987 375.176 136.201 375.176C139.503 375.176 141.586 377.056 141.586 381.671V394.087H147.06V381.556C147.06 374.249 143.961 370.134 137.717 370.134C134.144 370.134 131.112 371.921 129.779 374.452V370.832H124.576V394.087H130.05Z" fill="#CC8D7F"/>
<path d="M170.058 394.087V382.212C170.058 377.665 172.995 375.176 176.209 375.176C179.511 375.176 181.594 377.056 181.594 381.671V394.087H187.068V381.556C187.068 374.249 183.969 370.134 177.724 370.134C174.151 370.134 171.12 371.921 169.787 374.452V370.832H164.584V394.087H170.058Z" fill="#CC8D7F"/>
<path d="M203.869 394.79C211.04 394.79 216.176 389.316 216.176 382.462C216.176 375.65 211.04 370.134 203.889 370.134C196.764 370.134 191.655 375.676 191.655 382.462C191.655 389.29 196.79 394.79 203.869 394.79ZM203.915 389.697C199.999 389.697 197.082 386.665 197.082 382.462C197.082 378.275 199.999 375.197 203.915 375.197C207.827 375.197 210.744 378.275 210.744 382.462C210.744 386.665 207.827 389.697 203.915 389.697Z" fill="#CC8D7F"/>
<path d="M241.525 394.79C245.301 394.79 248.379 393.072 249.895 390.176V394.087H255.098V370.832H249.895V374.77C248.4 371.874 245.301 370.134 241.499 370.134C235.28 370.134 230.577 375.676 230.577 382.462C230.577 389.29 235.233 394.79 241.525 394.79ZM242.838 389.723C239.15 389.723 236.004 386.983 236.004 382.462C236.004 378.092 239.082 375.197 242.838 375.197C246.634 375.197 249.666 378.41 249.666 382.462C249.666 386.577 246.66 389.723 242.838 389.723Z" fill="#CC8D7F"/>
<path d="M274.771 394.79C281.261 394.79 286.037 389.29 286.037 382.462C286.037 375.676 281.308 370.155 274.703 370.155C271.354 370.155 268.391 371.941 266.854 374.634L266.99 371.582V362.238H261.516V394.087H266.719V390.176C268.302 393.025 271.375 394.79 274.771 394.79ZM273.776 389.743C270.063 389.743 266.922 386.712 266.922 382.462C266.922 378.389 269.974 375.197 273.75 375.197C277.531 375.197 280.604 378.092 280.604 382.462C280.604 386.962 277.464 389.743 273.776 389.743Z" fill="#CC8D7F"/>
<path d="M301.003 394.79C304.894 394.79 307.675 392.618 309.055 390.176V394.087H314.258V362.238H308.81V372.212L308.92 374.634C307.701 372.441 304.873 370.134 301.071 370.134C294.284 370.134 289.763 375.676 289.763 382.462C289.763 389.29 294.399 394.79 301.003 394.79ZM301.998 389.743C297.998 389.743 295.144 386.577 295.144 382.462C295.144 378.228 298.133 375.197 301.998 375.197C305.847 375.197 308.852 378.389 308.852 382.462C308.852 386.577 305.821 389.743 301.998 389.743Z" fill="#CC8D7F"/>
<path d="M331.131 365.087L333.912 368.119H338.256L333.074 362.327H329.162L324.006 368.119H328.344L331.131 365.087ZM331.219 394.79C338.391 394.79 343.527 389.316 343.527 382.462C343.527 375.65 338.391 370.134 331.24 370.134C324.115 370.134 319.006 375.676 319.006 382.462C319.006 389.29 324.141 394.79 331.219 394.79ZM331.266 389.697C327.35 389.697 324.433 386.665 324.433 382.462C324.433 378.275 327.35 375.197 331.266 375.197C335.178 375.197 338.094 378.275 338.094 382.462C338.094 386.665 335.178 389.697 331.266 389.697Z" fill="#CC8D7F"/>
<path d="M376.794 370.134C373.471 370.134 370.643 371.806 368.653 375.379C367.361 371.962 364.783 370.134 360.893 370.134C357.455 370.134 354.669 371.988 353.471 374.452L353.403 370.832H348.294V394.087H353.7V382.212C353.7 378.025 356.367 375.176 359.309 375.176C362.294 375.176 364.195 377.077 364.195 381.671V394.087H369.601V382.212C369.601 378.025 372.294 375.176 375.21 375.176C378.221 375.176 380.122 377.077 380.122 381.671V394.087H385.528V381.556C385.528 374.249 382.632 370.134 376.794 370.134Z" fill="#CC8D7F"/>
<path d="M413.881 382.051C413.881 375.65 409.178 370.134 402.168 370.134C395.178 370.134 390.111 375.676 390.111 382.462C390.111 389.249 395.178 394.79 402.168 394.79C407.954 394.79 412.095 390.967 413.272 386.78H407.298C406.506 388.749 404.814 389.905 402.053 389.905C398.84 389.905 396.173 387.707 395.605 383.91H413.772C413.861 383.051 413.881 382.639 413.881 382.051ZM395.829 379.676C396.762 376.4 399.381 374.905 402.142 374.905C405.355 374.905 408.069 377.077 408.298 379.676H395.829Z" fill="#CC8D7F"/>
<path d="M423.81 394.087V382.212C423.81 377.665 426.747 375.176 429.961 375.176C433.263 375.176 435.346 377.056 435.346 381.671V394.087H440.82V381.556C440.82 374.249 437.721 370.134 431.476 370.134C427.903 370.134 424.872 371.921 423.539 374.452V370.832H418.336V394.087H423.81Z" fill="#CC8D7F"/>
<path d="M25.451 418.543C25.451 412.142 20.7479 406.627 13.7375 406.627C6.74788 406.627 1.68018 412.168 1.68018 418.955C1.68018 425.741 6.74788 431.283 13.7375 431.283C19.5239 431.283 23.6646 427.46 24.8416 423.273H18.8677C18.076 425.241 16.3833 426.398 13.6229 426.398C10.4093 426.398 7.74268 424.2 7.17497 420.403H25.3416C25.4302 419.543 25.451 419.132 25.451 418.543ZM7.39893 416.168C8.33122 412.892 10.951 411.398 13.7114 411.398C16.925 411.398 19.6385 413.57 19.8677 416.168H7.39893Z" fill="#CC8D7F"/>
<path d="M52.7489 438.517V407.325H47.5458V411.241C46.1917 408.934 43.3635 406.627 39.5614 406.627C32.775 406.627 28.2542 412.168 28.2542 418.955C28.2542 425.783 32.8896 431.283 39.4937 431.283C43.3844 431.283 46.1656 429.111 47.3687 426.778L47.2542 429.132V438.517H52.7489ZM40.4885 426.236C36.4885 426.236 33.6344 423.07 33.6344 418.955C33.6344 414.721 36.6239 411.689 40.4885 411.689C44.3375 411.689 47.3427 414.882 47.3427 418.955C47.3427 423.07 44.3114 426.236 40.4885 426.236Z" fill="#CC8D7F"/>
<path d="M69.5956 431.283C75.7519 431.283 80.5019 428.023 80.5019 419.747V407.325H75.0487V419.585C75.0487 423.84 73.2415 426.189 69.5748 426.189C65.9342 426.189 64.08 423.882 64.08 419.585V407.325H58.6477V419.747C58.6477 428.023 63.3769 431.283 69.5956 431.283Z" fill="#CC8D7F"/>
<path d="M89.1152 403.705C91.3288 403.705 92.5736 402.325 92.5736 400.564C92.5736 398.866 91.3288 397.439 89.1361 397.439C86.985 397.439 85.7402 398.866 85.7402 400.564C85.7402 402.304 87.0111 403.705 89.1152 403.705ZM91.8965 430.58V407.325H86.4225V430.58H91.8965Z" fill="#CC8D7F"/>
<path d="M109.671 430.58L118.994 407.325H113.135L107.728 421.398L107.14 423.814L106.53 421.372L101.124 407.325H95.3064L104.582 430.58H109.671Z" fill="#CC8D7F"/>
<path d="M131.702 431.283C135.478 431.283 138.556 429.564 140.071 426.668V430.58H145.274V407.325H140.071V411.262C138.577 408.366 135.478 406.627 131.676 406.627C125.457 406.627 120.754 412.168 120.754 418.955C120.754 425.783 125.41 431.283 131.702 431.283ZM133.014 426.215C129.327 426.215 126.181 423.476 126.181 418.955C126.181 414.585 129.259 411.689 133.014 411.689C136.811 411.689 139.842 414.903 139.842 418.955C139.842 423.07 136.837 426.215 133.014 426.215Z" fill="#CC8D7F"/>
<path d="M157.166 430.58V398.705H151.692V430.58H157.166Z" fill="#CC8D7F"/>
<path d="M185.686 418.543C185.686 412.142 180.983 406.627 173.972 406.627C166.983 406.627 161.915 412.168 161.915 418.955C161.915 425.741 166.983 431.283 173.972 431.283C179.759 431.283 183.899 427.46 185.076 423.273H179.102C178.311 425.241 176.618 426.398 173.858 426.398C170.644 426.398 167.977 424.2 167.41 420.403H185.576C185.665 419.543 185.686 419.132 185.686 418.543ZM167.634 416.168C168.566 412.892 171.186 411.398 173.946 411.398C177.16 411.398 179.873 413.57 180.102 416.168H167.634Z" fill="#CC8D7F"/>
<path d="M210.722 431.283C214.498 431.283 217.576 429.564 219.092 426.668V430.58H224.295V407.325H219.092V411.262C217.597 408.366 214.498 406.627 210.696 406.627C204.477 406.627 199.774 412.168 199.774 418.955C199.774 425.783 204.43 431.283 210.722 431.283ZM212.035 426.215C208.347 426.215 205.201 423.476 205.201 418.955C205.201 414.585 208.279 411.689 212.035 411.689C215.831 411.689 218.863 414.903 218.863 418.955C218.863 423.07 215.858 426.215 212.035 426.215Z" fill="#CC8D7F"/>
<path d="M262.832 430.58V425.715H251.295L248.759 426.257L256.337 419.632C259.936 416.512 262.264 413.387 262.264 409.361C262.264 403.799 258.217 399.294 251.451 399.294C243.717 399.294 240.483 405.288 240.483 411.241H246.066C246.066 406.262 248.717 404.476 251.587 404.476C254.53 404.476 256.634 406.512 256.634 409.361C256.634 412.304 254.3 414.7 250.436 418.231L240.368 427.366V430.58H262.832Z" fill="#CC8D7F"/>
<path d="M278.976 431.283C287.752 431.283 292.164 423.976 292.164 415.221C292.164 406.898 288.388 399.116 278.929 399.116C270.45 399.116 265.768 406.33 265.768 415.335C265.768 423.95 270.065 431.283 278.976 431.283ZM278.976 426.101C274.247 426.101 271.398 421.642 271.398 415.288C271.398 408.773 274.362 404.293 278.929 404.293C283.862 404.293 286.533 408.955 286.533 415.221C286.533 421.622 283.679 426.101 278.976 426.101Z" fill="#CC8D7F"/>
<path d="M325.365 406.627C322.042 406.627 319.214 408.299 317.224 411.872C315.932 408.455 313.354 406.627 309.464 406.627C306.026 406.627 303.24 408.481 302.042 410.945L301.974 407.325H296.865V430.58H302.271V418.705C302.271 414.517 304.938 411.668 307.88 411.668C310.865 411.668 312.766 413.57 312.766 418.163V430.58H318.172V418.705C318.172 414.517 320.865 411.668 323.781 411.668C326.792 411.668 328.693 413.57 328.693 418.163V430.58H334.099V418.049C334.099 410.741 331.203 406.627 325.365 406.627Z" fill="#CC8D7F"/>
<path d="M343.026 403.705C345.239 403.705 346.484 402.325 346.484 400.564C346.484 398.866 345.239 397.439 343.046 397.439C340.895 397.439 339.651 398.866 339.651 400.564C339.651 402.304 340.921 403.705 343.026 403.705ZM345.807 430.58V407.325H340.333V430.58H345.807Z" fill="#CC8D7F"/>
<path d="M357.68 430.58V398.705H352.206V430.58H357.68Z" fill="#CC8D7F"/>
<path d="M384.662 431.283C388.438 431.283 391.516 429.564 393.032 426.668V430.58H398.235V407.325H393.032V411.262C391.537 408.366 388.438 406.627 384.636 406.627C378.417 406.627 373.714 412.168 373.714 418.955C373.714 425.783 378.37 431.283 384.662 431.283ZM385.975 426.215C382.287 426.215 379.141 423.476 379.141 418.955C379.141 414.585 382.219 411.689 385.975 411.689C389.771 411.689 392.803 414.903 392.803 418.955C392.803 423.07 389.797 426.215 385.975 426.215Z" fill="#CC8D7F"/>
<path d="M417.908 431.283C424.398 431.283 429.174 425.783 429.174 418.955C429.174 412.169 424.444 406.648 417.84 406.648C414.491 406.648 411.528 408.434 409.991 411.127L410.127 408.075V398.731H404.653V430.58H409.856V426.669C411.439 429.517 414.512 431.283 417.908 431.283ZM416.913 426.236C413.2 426.236 410.059 423.205 410.059 418.955C410.059 414.882 413.111 411.689 416.887 411.689C420.668 411.689 423.741 414.585 423.741 418.955C423.741 423.455 420.601 426.236 416.913 426.236Z" fill="#CC8D7F"/>
<path d="M444.14 431.283C448.031 431.283 450.812 429.111 452.192 426.669V430.58H457.395V398.731H451.947V408.705L452.057 411.127C450.838 408.934 448.01 406.627 444.208 406.627C437.421 406.627 432.9 412.169 432.9 418.955C432.9 425.783 437.536 431.283 444.14 431.283ZM445.135 426.236C441.135 426.236 438.281 423.07 438.281 418.955C438.281 414.721 441.27 411.689 445.135 411.689C448.984 411.689 451.989 414.882 451.989 418.955C451.989 423.07 448.958 426.236 445.135 426.236Z" fill="#CC8D7F"/>
<path d="M474.356 431.283C481.528 431.283 486.663 425.809 486.663 418.955C486.663 412.142 481.528 406.627 474.377 406.627C467.252 406.627 462.143 412.168 462.143 418.955C462.143 425.783 467.278 431.283 474.356 431.283ZM474.403 426.189C470.486 426.189 467.57 423.158 467.57 418.955C467.57 414.767 470.486 411.689 474.403 411.689C478.314 411.689 481.231 414.767 481.231 418.955C481.231 423.158 478.314 426.189 474.403 426.189Z" fill="#CC8D7F"/>
<path d="M519.931 406.627C516.608 406.627 513.78 408.299 511.79 411.872C510.498 408.455 507.92 406.627 504.03 406.627C500.592 406.627 497.806 408.481 496.608 410.945L496.54 407.325H491.431V430.58H496.837V418.705C496.837 414.517 499.504 411.668 502.446 411.668C505.431 411.668 507.332 413.57 507.332 418.163V430.58H512.738V418.705C512.738 414.517 515.431 411.668 518.347 411.668C521.358 411.668 523.259 413.57 523.259 418.163V430.58H528.665V418.049C528.665 410.741 525.769 406.627 519.931 406.627Z" fill="#CC8D7F"/>
<path d="M537.591 403.705C539.805 403.705 541.05 402.325 541.05 400.564C541.05 398.866 539.805 397.439 537.612 397.439C535.461 397.439 534.216 398.866 534.216 400.564C534.216 402.304 535.487 403.705 537.591 403.705ZM540.373 430.58V407.325H534.899V430.58H540.373Z" fill="#CC8D7F"/>
<path d="M552.246 430.58V418.705C552.246 414.158 555.183 411.668 558.397 411.668C561.699 411.668 563.782 413.549 563.782 418.163V430.58H569.256V418.049C569.256 410.741 566.157 406.627 559.913 406.627C556.34 406.627 553.308 408.413 551.975 410.945V407.325H546.772V430.58H552.246Z" fill="#CC8D7F"/>
<path d="M584.791 431.283C588.567 431.283 591.645 429.564 593.161 426.668V430.58H598.364V407.325H593.161V411.262C591.666 408.366 588.567 406.627 584.765 406.627C578.546 406.627 573.843 412.168 573.843 418.955C573.843 425.783 578.5 431.283 584.791 431.283ZM586.104 426.215C582.416 426.215 579.27 423.476 579.27 418.955C579.27 414.585 582.348 411.689 586.104 411.689C589.901 411.689 592.932 414.903 592.932 418.955C592.932 423.07 589.927 426.215 586.104 426.215Z" fill="#CC8D7F"/>
<path d="M607.475 403.705C609.689 403.705 610.933 402.325 610.933 400.564C610.933 398.866 609.689 397.439 607.496 397.439C605.345 397.439 604.1 398.866 604.1 400.564C604.1 402.304 605.371 403.705 607.475 403.705ZM610.256 430.58V407.325H604.782V430.58H610.256Z" fill="#CC8D7F"/>
<path d="M625.025 431.283C630.635 431.283 634.796 428.793 634.796 423.679C634.796 418.752 631.041 417.346 626.223 416.622C622.218 415.991 621.359 415.424 621.359 413.684C621.359 412.278 622.4 411.106 624.755 411.106C627.286 411.106 628.645 412.325 628.755 414.043L634.119 414.09C634.119 409.658 630.338 406.627 624.729 406.627C619.051 406.627 615.973 409.523 615.973 413.793C615.973 418.611 619.822 420.403 624.301 420.991C627.468 421.465 629.208 422.028 629.208 423.997C629.208 425.762 627.895 426.939 625.067 426.939C621.947 426.939 620.364 425.33 620.275 423.205L615.025 423.184C615.025 427.278 618.192 431.283 625.025 431.283Z" fill="#CC8D7F"/>
</svg>
